<svg width="154" height="99" viewBox="0 0 154 99" fill="none" xmlns="http://www.w3.org/2000/svg">
<path d="M136.674 70.8437C136.842 70.5611 137.101 70.3448 137.409 70.2313C137.717 70.1177 138.055 70.1139 138.366 70.2205C138.649 70.3242 138.905 70.4883 139.119 70.7012C139.332 70.9141 139.496 71.1709 139.6 71.4536C140.116 72.5433 139.797 74.0255 138.302 75.2808C137.935 75.1612 137.575 75.0215 137.223 74.8624C137.683 74.0433 137.938 73.8532 137.609 73.1924C137.397 72.7644 137.107 72.8518 136.802 72.3575C136.633 72.1463 136.53 71.8896 136.508 71.62C136.485 71.3504 136.543 71.0802 136.674 70.8437Z" fill="#1B3254"/>
<path d="M147.782 72.368C147.434 72.368 146.982 72.349 146.453 72.313C146.712 71.8558 146.882 71.3531 146.953 70.832C147.085 70.0105 146.957 69.1683 146.587 68.423C145.807 66.9517 144.538 65.7987 142.999 65.163C141.662 64.4821 140.182 64.1267 138.682 64.126C137.783 64.1399 136.885 64.2158 135.997 64.353C134.668 64.5787 133.365 64.9379 132.108 65.425C131.659 65.584 131.234 65.733 130.855 65.848C130.14 66.0565 129.399 66.1619 128.655 66.161C127.697 66.1846 126.75 65.9626 125.903 65.516C125.047 65.0281 124.338 64.3186 123.851 63.462C123.356 62.6032 123.098 61.6283 123.103 60.637C123.101 60.0809 123.176 59.5272 123.328 58.992C123.48 58.4625 123.708 57.9575 124.003 57.492C124.82 56.3214 125.837 55.3041 127.008 54.487C126.368 54.0837 125.781 53.6008 125.263 53.05C124.753 52.5027 124.316 51.8916 123.963 51.232C123.606 50.572 123.334 49.8698 123.152 49.142C122.97 48.3997 122.88 47.6382 122.882 46.874C122.877 45.9769 122.995 45.0833 123.233 44.218C123.468 43.3808 123.823 42.5821 124.288 41.847C124.78 41.0781 125.37 40.3771 126.045 39.762C126.799 39.0774 127.624 38.4741 128.505 37.962C129.957 37.1124 131.528 36.4822 133.165 36.092C134.987 35.6617 136.854 35.4502 138.726 35.462C139.748 35.4451 140.77 35.512 141.782 35.662C142.958 35.9051 144.107 36.2656 145.212 36.738C145.28 36.7808 145.35 36.8192 145.423 36.853C145.495 36.889 145.577 36.93 145.678 36.986C146.51 37.4085 147.287 37.9318 147.991 38.544C148.685 39.1336 149.329 39.7798 149.916 40.476C150.607 41.3015 151.148 42.2413 151.516 43.253C151.875 44.2738 152.055 45.3489 152.049 46.431C152.051 47.2231 151.95 48.0121 151.749 48.778C151.539 49.5546 151.232 50.3016 150.835 51.001C150.429 51.7195 149.939 52.3866 149.374 52.988C148.789 53.6065 148.136 54.157 147.428 54.629C146.062 55.5502 144.556 56.2448 142.969 56.686C141.245 57.1551 139.465 57.3859 137.679 57.372C136.051 57.3837 134.427 57.2259 132.832 56.901C131.425 56.6121 130.063 56.1369 128.782 55.488C127.918 56.076 127.482 56.682 127.482 57.288C127.482 58.005 127.976 58.434 128.95 58.562C130.12 58.7331 131.3 58.8332 132.483 58.862C132.764 58.8653 133.046 58.8496 133.326 58.815L133.492 58.787H141.774C141.774 58.787 141.844 58.787 141.966 58.787C143.704 58.7681 145.433 59.053 147.074 59.629C147.941 59.9639 148.757 60.4201 149.496 60.984C150.003 61.4004 150.452 61.8823 150.832 62.417C150.96 62.588 151.096 62.759 151.232 62.924C152.1 63.8775 152.684 65.0555 152.916 66.324C153.084 67.1445 153.105 67.9882 152.979 68.816C152.888 69.398 152.647 69.9461 152.279 70.406C151.75 71.0415 151.082 71.5462 150.326 71.881C149.521 72.2184 148.654 72.3842 147.782 72.368ZM138.724 39.918C138.337 39.9161 137.952 39.9607 137.576 40.051C136.971 40.2 136.663 40.373 136.609 40.594C136.53 40.917 136.986 41.318 137.616 41.873C138.272 42.4144 138.864 43.0283 139.382 43.703C139.981 44.4859 140.304 45.4452 140.301 46.431C140.282 48.556 138.834 49.862 137.782 50.816C137.161 51.378 136.67 51.822 136.735 52.222C136.777 52.482 137.046 52.712 137.579 52.945C138.009 53.1265 138.473 53.2167 138.94 53.21C140.669 53.0943 142.303 52.3748 143.556 51.177C144.258 50.5931 144.831 49.87 145.24 49.0533C145.648 48.2366 145.883 47.3441 145.93 46.432C145.93 42.764 142.058 39.92 138.73 39.919L138.724 39.918ZM131.375 42.418C131.147 42.418 130.924 42.4857 130.734 42.6124C130.544 42.7391 130.396 42.9192 130.309 43.13C130.221 43.3407 130.198 43.5726 130.243 43.7964C130.287 44.0202 130.397 44.2259 130.558 44.3873C130.719 44.5488 130.925 44.6589 131.148 44.7036C131.372 44.7484 131.604 44.7258 131.815 44.6388C132.026 44.5517 132.206 44.4041 132.333 44.2146C132.46 44.0251 132.528 43.8022 132.529 43.574C132.528 43.2682 132.407 42.975 132.191 42.7587C131.975 42.5424 131.682 42.4206 131.376 42.42L131.375 42.418Z" fill="#1B3254"/>
<path d="M55.5456 0.0799561H69.0096L65.1466 6.05496C65.1466 6.05496 64.6916 10.455 53.9356 10.455C43.1796 10.455 43.2566 6.05496 43.2566 6.05496L55.5456 0.0799561Z" fill="#FFF2E4"/>
<path d="M43.4697 1.505L56.1297 0L43.4697 6.055C43.4697 6.055 43.0417 10.455 32.2857 10.455C21.5297 10.455 21.6067 6.055 21.6067 6.055L43.4697 1.505Z" fill="#FD5E29"/>
<path d="M69.0527 0H82.5177L86.7717 6.055C86.7717 6.055 86.3427 10.455 75.5867 10.455C64.8307 10.455 64.9077 6.055 64.9077 6.055L69.0527 0Z" fill="#FD5E29"/>
<path d="M109.479 1.505L95.8357 0L108.362 6.055C108.362 6.055 108.354 10.469 119.11 10.469C129.866 10.469 130.221 6.06 130.221 6.06L109.479 1.505Z" fill="#FD5E29"/>
<path d="M95.9826 0H82.5176L86.6836 6.055C86.6836 6.055 86.7836 10.467 97.5396 10.467C108.296 10.467 108.572 6.058 108.572 6.058L95.9826 0Z" fill="#FFF2E4"/>
<path d="M43.4697 6.05505C43.4697 6.05505 43.0417 15.7371 32.2857 15.7371C21.5297 15.7371 21.6067 6.05505 21.6067 6.05505H43.4697Z" fill="#E44D1C"/>
<path d="M65.1206 6.05505C65.1206 6.05505 64.6926 15.7371 53.9366 15.7371C43.1806 15.7371 43.2576 6.05505 43.2576 6.05505H65.1206Z" fill="#FFC48F"/>
<path d="M86.7707 6.05505C86.7707 6.05505 86.3427 15.7371 75.5867 15.7371C64.8307 15.7371 64.9077 6.05505 64.9077 6.05505H86.7707Z" fill="#E44D1C"/>
<path d="M108.635 6.05505C108.635 6.05505 108.207 15.7371 97.4507 15.7371C86.6947 15.7371 86.7717 6.05505 86.7717 6.05505H108.635Z" fill="#FFC48F"/>
<path d="M130.222 6.05505C130.222 6.05505 129.794 15.7371 119.038 15.7371C108.282 15.7371 108.359 6.05505 108.359 6.05505H130.222Z" fill="#E44D1C"/>
<path d="M70.1157 55.181C70.0784 55.7574 70.2397 56.3291 70.5727 56.801C70.7278 56.9901 70.9252 57.14 71.1489 57.2387C71.3727 57.3373 71.6165 57.382 71.8607 57.369C72.5208 57.3234 73.1801 57.4677 73.7607 57.785C74.1956 58.1944 74.4662 58.7484 74.5217 59.343V65.493H71.1517C69.0097 65.493 65.4947 65.693 63.0277 63.793C61.9886 63.0813 61.1438 62.1212 60.5699 61C59.9961 59.8789 59.7114 58.6321 59.7417 57.373V29.217H67.3147C68.0909 29.144 68.8703 29.3191 69.5407 29.717C69.9852 30.2707 70.192 30.9781 70.1157 31.684V55.181Z" fill="#FD5E29"/>
<path d="M136.187 74.6286L139.754 76.5433L140.302 77.3431L141.493 85.9798L141.415 86.655L140.945 87.4078L140.357 87.7158L135.104 88.3343L134.349 88.3881L136.457 85.1671L136.453 82.178L137.385 78.5746L135.557 74.7431C135.655 74.6576 135.746 74.5651 135.83 74.4662C135.83 74.4662 136.16 74.605 136.187 74.6286Z" fill="#FD5E29"/>
<path d="M136.244 78.1031C136.583 78.1267 136.876 77.8717 136.9 77.5334C136.923 77.1952 136.668 76.9017 136.33 76.8781C135.992 76.8544 135.698 77.1094 135.675 77.4477C135.651 77.786 135.906 78.0794 136.244 78.1031Z" fill="#FD5E29"/>
<g filter="url(#filter0_d_3_4053)">
<path d="M135.239 88.672L130.017 87.343L129.281 87.121L128.816 86.259L128.704 85.581L130.658 77.653L131.09 76.516L131.619 76.052L135.409 74.584C135.533 74.5386 135.653 74.4841 135.77 74.421L135.778 74.428C135.874 74.5153 135.965 74.6081 136.051 74.706L138.743 77.828L138.972 78.789L136.952 87.435L136.632 88.048L135.911 88.592L135.238 88.672H135.239ZM135.004 77.031C134.863 77.0309 134.726 77.0792 134.617 77.1677C134.508 77.2562 134.432 77.3796 134.403 77.5172C134.373 77.6549 134.392 77.7984 134.456 77.9238C134.52 78.0492 134.625 78.1488 134.754 78.206C134.832 78.241 134.917 78.2591 135.003 78.259C135.165 78.259 135.322 78.1943 135.437 78.0792C135.552 77.964 135.617 77.8079 135.617 77.645C135.617 77.4822 135.552 77.326 135.437 77.2109C135.322 77.0957 135.165 77.031 135.003 77.031H135.004Z" fill="#FD5E29"/>
</g>
<path d="M8.48749 77.9572C12.2467 78.4906 31.7602 86.3867 58.4296 89.4667C70.0682 90.3371 81.7715 89.4616 93.1511 86.8693C96.5275 86.0571 99.8373 84.9893 103.052 83.6751C105.414 82.6507 107.715 81.4904 109.943 80.2C112.174 78.9601 114.876 77.3703 117.726 76.0907C123.033 73.7072 125.411 73.5104 125.744 73.4577C127.277 73.2495 128.837 73.373 130.319 73.8199C131.8 74.2667 133.168 75.0264 134.331 76.0477C134.485 76.1859 134.649 76.3898 134.876 76.629C134.979 76.7345 135.103 76.8742 135.276 77.0505C135.449 77.2268 135.419 77.1742 135.474 77.2461C135.536 77.3185 135.579 77.405 135.6 77.4981C135.534 77.5756 135.447 77.6318 135.349 77.6595C135.251 77.6872 135.147 77.6852 135.051 77.6536C134.864 77.5837 134.69 77.4814 134.539 77.3514C134.41 77.2445 134.088 76.9903 133.878 76.8541C131.781 75.4813 129.236 74.9668 126.771 75.4171C124.088 76.0023 121.491 76.9272 119.042 78.1694C115.092 80.1264 110.78 83.4723 106.625 85.809C102.751 88.0494 98.62 89.8111 94.3216 91.0553C82.6097 94.5088 70.2915 95.4002 58.2043 93.6687C29.317 89.5752 9.9249 79.5345 8.48749 77.9572Z" fill="#1B3254"/>
<path d="M45.1559 43.6258C45.213 42.2406 44.9982 40.8573 44.5238 39.5546C43.8028 38.0626 43.1238 36.6892 41.7008 36.4442C40.2778 36.1992 35.8089 36.9547 33.0009 38.7567C30.1929 40.5587 27.2438 43.3485 27.7838 46.8495C28.3238 50.3505 32.0767 52.2669 33.1837 52.8749C34.2907 53.4829 35.8518 54.7546 35.9838 55.2616C36.0358 55.6376 35.1957 56.7777 33.3717 57.5067C31.5477 58.2357 28.9718 58.0803 27.7408 58.1073C27.6035 59.7456 27.7915 61.3944 28.2938 62.9598C29.1028 64.8828 30.1589 65.7925 30.9579 65.9325C34.4861 65.8989 37.9377 64.8988 40.9379 63.0419C44.7829 60.4579 45.9917 58.3553 46.1757 55.6483C46.3597 52.9413 44.6578 51.0598 43.2308 49.7938C41.8038 48.5278 38.7408 47.0997 37.9308 45.9227C38.3768 45.1167 39.4718 44.6952 41.3038 44.1092C42.5423 43.691 43.8525 43.5263 45.1559 43.6258Z" fill="#FD5E29"/>
<path d="M99.1717 66.1479C97.6547 66.1492 96.1453 65.9327 94.6897 65.5049C93.2329 65.0784 91.8502 64.4309 90.5897 63.5849C89.3008 62.7192 88.1667 61.6428 87.2347 60.4009C86.2367 59.0635 85.4784 57.5628 84.9937 55.9659C84.6112 54.7307 84.371 53.4557 84.2777 52.1659C84.1935 50.97 84.2513 49.7683 84.4497 48.5859C84.826 46.3513 85.7244 44.237 87.0717 42.4149C87.7596 41.485 88.5547 40.6395 89.4407 39.8959C90.3355 39.1466 91.3144 38.504 92.3577 37.9809C93.4232 37.4466 94.547 37.0379 95.7067 36.7629C96.9103 36.4784 98.143 36.3351 99.3797 36.3359C99.5247 36.3359 99.6707 36.3359 99.8157 36.3419C101.794 36.3341 103.751 36.7507 105.554 37.5635C107.357 38.3764 108.966 39.5666 110.27 41.0539C111.746 42.8975 112.823 45.028 113.432 47.31C114.041 49.5921 114.169 51.9758 113.808 54.3099H109.175H96.4327H93.1517C93.1756 54.3578 93.1959 54.4072 93.2127 54.4579C93.5346 55.3397 94.0716 56.1271 94.7751 56.7487C95.4785 57.3702 96.326 57.8061 97.2407 58.0169C97.9611 58.2141 98.7049 58.3123 99.4517 58.3089C100.383 58.2937 101.309 58.1784 102.216 57.9649L102.616 57.8769C103.135 57.7402 103.666 57.6545 104.202 57.6209C104.337 57.6189 104.471 57.635 104.602 57.6689C105.449 57.9298 106.166 58.5014 106.61 59.2689C106.72 59.4159 106.833 59.5689 106.957 59.7229C107.436 60.3289 107.989 61.0229 108.525 61.6949L109.154 62.4849C107.781 63.6904 106.191 64.624 104.47 65.2359C102.77 65.8432 100.977 66.1517 99.1717 66.1479ZM99.5337 43.2709C98.478 43.22 97.426 43.4291 96.4699 43.8798C95.5139 44.3305 94.6832 45.0091 94.0507 45.8559C93.4837 46.626 93.0804 47.504 92.8657 48.4359H105.858C105.705 47.5136 105.359 46.6341 104.841 45.8559C104.254 45.0039 103.457 44.3182 102.527 43.8654C101.597 43.4126 100.566 43.2082 99.5337 43.2719V43.2709Z" fill="#FD5E29"/>
<path d="M0.445634 62.359C0.0542718 60.3248 -0.0801127 58.2496 0.0456336 56.182C0.280634 52.4 0.629634 47.25 0.508634 46.695C0.227676 45.7257 0.342762 44.6845 0.828634 43.8C1.59763 42.437 2.90863 41.424 5.77863 40.939C8.64863 40.454 10.7286 40.912 11.2176 42.233C11.7066 43.554 10.7656 46.033 10.1036 49.494C9.56709 52.7147 9.74806 56.0142 10.6336 59.157C11.2646 60.7 12.2946 61.657 12.3526 62.468C12.3866 62.939 11.8796 63.768 10.6336 64.73C9.0592 65.917 7.15635 66.5883 5.18563 66.652C5.06363 66.6586 4.9443 66.662 4.82763 66.662C2.10863 66.669 0.987634 64.841 0.445634 62.359ZM5.44563 35.078C5.15056 34.6208 4.95938 34.1045 4.8856 33.5654C4.81183 33.0263 4.85724 32.4776 5.01863 31.958C5.55846 31.0564 6.28843 30.2835 7.15763 29.693C8.51377 29.0716 9.97135 28.7013 11.4596 28.6C12.401 28.598 13.3148 28.9176 14.0496 29.506C14.4208 30.0708 14.6032 30.7389 14.5706 31.414C14.5593 31.7492 14.4816 32.0789 14.342 32.3839C14.2025 32.6889 14.0038 32.9632 13.7576 33.191C13.0145 33.9561 12.2065 34.6554 11.3426 35.281C10.4343 35.7302 9.44518 35.9931 8.43363 36.054H8.33363C7.29627 36.023 6.29176 35.6831 5.44863 35.078H5.44563Z" fill="#1B3254"/>
<defs>
<filter id="filter0_d_3_4053" x="128.704" y="71.421" width="18.2681" height="22.251" filterUnits="userSpaceOnUse" color-interpolation-filters="sRGB">
<feFlood flood-opacity="0" result="BackgroundImageFix"/>
<feColorMatrix in="SourceAlpha" type="matrix" values="0 0 0 0 0 0 0 0 0 0 0 0 0 0 0 0 0 0 127 0" result="hardAlpha"/>
<feOffset dx="4" dy="1"/>
<feGaussianBlur stdDeviation="2"/>
<feColorMatrix type="matrix" values="0 0 0 0 0 0 0 0 0 0 0 0 0 0 0 0 0 0 0.349 0"/>
<feBlend mode="normal" in2="BackgroundImageFix" result="effect1_dropShadow_3_4053"/>
<feBlend mode="normal" in="SourceGraphic" in2="effect1_dropShadow_3_4053" result="shape"/>
</filter>
</defs>
</svg>
