<svg width="25" height="21" viewBox="0 0 25 21" fill="none" xmlns="http://www.w3.org/2000/svg">
<path fill-rule="evenodd" clip-rule="evenodd" d="M4.98596 16.524C4.69693 16.51 4.41405 16.6105 4.19861 16.8037C3.98316 16.9969 3.85251 17.2672 3.83496 17.556V19.624C3.85226 19.913 3.9828 20.1835 4.19827 20.3769C4.41375 20.5703 4.69677 20.6709 4.98596 20.657C5.27481 20.6704 5.55732 20.5695 5.77236 20.3762C5.9874 20.1829 6.11766 19.9126 6.13496 19.624V17.556C6.11741 17.2675 5.98703 16.9975 5.77203 16.8044C5.55702 16.6113 5.27465 16.5106 4.98596 16.524ZM19.567 16.524C19.2778 16.51 18.9947 16.6107 18.7793 16.8041C18.5638 16.9974 18.4333 17.268 18.416 17.557V19.624C18.4492 19.9056 18.5847 20.1652 18.7967 20.3536C19.0086 20.542 19.2824 20.6461 19.566 20.6461C19.8496 20.6461 20.1233 20.542 20.3353 20.3536C20.5472 20.1652 20.6827 19.9056 20.716 19.624V17.556C20.6984 17.2675 20.568 16.9975 20.353 16.8044C20.138 16.6113 19.8556 16.5106 19.567 16.524Z" fill="#735538"/>
<path d="M12.277 0C3.83505 0 2.30005 1.377 2.30005 3.442C2.30005 6.885 3.83505 6.885 3.83505 15.835H20.718C20.718 6.885 22.253 6.885 22.253 3.442C22.253 1.377 19.951 0 12.277 0Z" fill="#A67C52"/>
<path fill-rule="evenodd" clip-rule="evenodd" d="M20.719 3.44201C20.719 2.06501 17.649 1.37701 12.277 1.37701C6.90496 1.37701 3.83496 2.06501 3.83496 3.44201C3.83496 5.30501 5.08196 5.49101 5.32796 13.081H4.60196V15.835H19.951V13.077H19.225C19.471 5.49101 20.719 5.30501 20.719 3.44201Z" fill="#CCC2B8"/>
<path fill-rule="evenodd" clip-rule="evenodd" d="M12.277 4.819C12.1438 4.8333 12.0177 4.88587 11.9138 4.97035C11.8099 5.05482 11.7327 5.16759 11.6915 5.29502C11.6504 5.42244 11.647 5.55907 11.6818 5.68836C11.7167 5.81766 11.7883 5.93409 11.8879 6.02358C11.9875 6.11306 12.1109 6.17177 12.2432 6.1926C12.3755 6.21343 12.5109 6.19549 12.6332 6.14095C12.7555 6.08641 12.8594 5.99761 12.9323 5.88528C13.0052 5.77295 13.044 5.64191 13.044 5.508C13.0331 5.31511 12.9464 5.13436 12.8026 5.00525C12.6589 4.87614 12.4699 4.80918 12.277 4.819ZM14.579 2.754C14.4458 2.7683 14.3196 2.8209 14.2157 2.90542C14.1118 2.98995 14.0346 3.10278 13.9935 3.23026C13.9523 3.35774 13.949 3.49441 13.9839 3.62372C14.0189 3.75304 14.0905 3.86947 14.1902 3.95891C14.29 4.04835 14.4135 4.10698 14.5458 4.1277C14.6781 4.14842 14.8136 4.13034 14.9359 4.07565C15.0582 4.02096 15.162 3.932 15.2348 3.81955C15.3076 3.70709 15.3462 3.57595 15.346 3.442C15.3349 3.24929 15.248 3.06879 15.1043 2.93989C14.9606 2.811 14.7718 2.74417 14.579 2.754ZM9.97898 6.885C9.84579 6.8993 9.71961 6.9519 9.61569 7.03642C9.51178 7.12095 9.43458 7.23378 9.39345 7.36126C9.35232 7.48874 9.34902 7.62541 9.38395 7.75472C9.41887 7.88404 9.49053 8.00047 9.59024 8.08991C9.68995 8.17935 9.81345 8.23798 9.94579 8.2587C10.0781 8.27942 10.2136 8.26134 10.3359 8.20665C10.4582 8.15196 10.562 8.063 10.6348 7.95055C10.7076 7.83809 10.7462 7.70695 10.746 7.573C10.7349 7.37956 10.6474 7.19843 10.5029 7.06942C10.3583 6.94041 10.1684 6.87408 9.97498 6.885H9.97898ZM14.579 6.885C14.4458 6.8993 14.3196 6.9519 14.2157 7.03642C14.1118 7.12095 14.0346 7.23378 13.9935 7.36126C13.9523 7.48874 13.949 7.62541 13.9839 7.75472C14.0189 7.88404 14.0905 8.00047 14.1902 8.08991C14.29 8.17935 14.4135 8.23798 14.5458 8.2587C14.6781 8.27942 14.8136 8.26134 14.9359 8.20665C15.0582 8.15196 15.162 8.063 15.2348 7.95055C15.3076 7.83809 15.3462 7.70695 15.346 7.573C15.3349 7.38029 15.248 7.19979 15.1043 7.07089C14.9606 6.942 14.7718 6.87517 14.579 6.885ZM16.879 6.197C17.0122 6.1827 17.1383 6.1301 17.2423 6.04558C17.3462 5.96105 17.4234 5.84822 17.4645 5.72074C17.5056 5.59326 17.5089 5.45659 17.474 5.32728C17.4391 5.19796 17.3674 5.08154 17.2677 4.99209C17.168 4.90265 17.0445 4.84402 16.9122 4.8233C16.7798 4.80258 16.6443 4.82066 16.522 4.87535C16.3998 4.93004 16.296 5.019 16.2232 5.13145C16.1504 5.24391 16.1118 5.37505 16.112 5.509C16.1233 5.70208 16.2107 5.8828 16.3551 6.01157C16.4994 6.14033 16.6889 6.20665 16.882 6.196L16.879 6.197ZM7.67198 8.954C7.53879 8.9683 7.41261 9.0209 7.30869 9.10542C7.20477 9.18995 7.12758 9.30278 7.08645 9.43026C7.04533 9.55774 7.04202 9.69441 7.07695 9.82372C7.11187 9.95304 7.18353 10.0695 7.28324 10.1589C7.38295 10.2484 7.50645 10.307 7.63879 10.3277C7.77113 10.3484 7.90664 10.3303 8.02892 10.2756C8.15119 10.221 8.255 10.132 8.32778 10.0195C8.40055 9.90709 8.43918 9.77595 8.43898 9.642C8.42787 9.44929 8.34099 9.26879 8.1973 9.13989C8.0536 9.011 7.86476 8.94417 7.67198 8.954ZM12.272 8.954C12.1388 8.9683 12.0126 9.0209 11.9087 9.10542C11.8048 9.18995 11.7276 9.30278 11.6865 9.43026C11.6453 9.55774 11.642 9.69441 11.6769 9.82372C11.7119 9.95304 11.7835 10.0695 11.8832 10.1589C11.983 10.2484 12.1065 10.307 12.2388 10.3277C12.3711 10.3484 12.5066 10.3303 12.6289 10.2756C12.7512 10.221 12.855 10.132 12.9278 10.0195C13.0006 9.90709 13.0392 9.77595 13.039 9.642C13.0279 9.45019 12.9417 9.27048 12.7991 9.14172C12.6565 9.01297 12.4689 8.94553 12.277 8.954H12.272ZM16.872 8.954C16.7388 8.9683 16.6126 9.0209 16.5087 9.10542C16.4048 9.18995 16.3276 9.30278 16.2865 9.43026C16.2453 9.55774 16.242 9.69441 16.2769 9.82372C16.3119 9.95304 16.3835 10.0695 16.4832 10.1589C16.583 10.2484 16.7065 10.307 16.8388 10.3277C16.9711 10.3484 17.1066 10.3303 17.2289 10.2756C17.3512 10.221 17.455 10.132 17.5278 10.0195C17.6006 9.90709 17.6392 9.77595 17.639 9.642C17.6279 9.45109 17.5424 9.27215 17.4009 9.14353C17.2594 9.01492 17.0731 8.94688 16.882 8.954H16.872ZM9.97498 2.754C9.84179 2.7683 9.71561 2.8209 9.61169 2.90542C9.50777 2.98995 9.43058 3.10278 9.38945 3.23026C9.34832 3.35774 9.34502 3.49441 9.37995 3.62372C9.41487 3.75304 9.48653 3.86947 9.58624 3.95891C9.68595 4.04835 9.80945 4.10698 9.94179 4.1277C10.0741 4.14842 10.2096 4.13034 10.3319 4.07565C10.4542 4.02096 10.558 3.932 10.6308 3.81955C10.7036 3.70709 10.7422 3.57595 10.742 3.442C10.7309 3.24929 10.644 3.06879 10.5003 2.93989C10.3566 2.811 10.1678 2.74417 9.97498 2.754ZM7.67498 4.819C7.54184 4.8333 7.41569 4.88587 7.31179 4.97035C7.20789 5.05482 7.13069 5.16759 7.08953 5.29502C7.04837 5.42244 7.045 5.55907 7.07985 5.68836C7.11469 5.81766 7.18625 5.93409 7.28587 6.02358C7.38548 6.11306 7.5089 6.17177 7.64117 6.1926C7.77345 6.21343 7.90893 6.19549 8.03123 6.14095C8.15353 6.08641 8.25741 5.99761 8.3303 5.88528C8.4032 5.77295 8.44199 5.64191 8.44198 5.508C8.43114 5.31456 8.34395 5.13334 8.19957 5.00414C8.05519 4.87495 7.86543 4.80836 7.67198 4.819H7.67498Z" fill="#B3AAA1"/>
<path d="M19.184 11.705H5.37003C5.17708 11.6952 4.98809 11.7621 4.84437 11.8913C4.70065 12.0204 4.61388 12.2011 4.60303 12.394V13.082H19.952V12.394C19.9412 12.2009 19.8543 12.02 19.7103 11.8909C19.5664 11.7618 19.3771 11.6949 19.184 11.705Z" fill="#E6DACF"/>
<path fill-rule="evenodd" clip-rule="evenodd" d="M22.254 8.26201C21.6757 8.23281 21.1093 8.43355 20.6784 8.82041C20.2475 9.20728 19.9871 9.74887 19.954 10.327V13.081C19.954 14.458 19.187 15.835 18.419 15.835H6.13705C5.37005 15.835 4.60205 14.458 4.60205 13.081V10.327C4.56874 9.74824 4.30772 9.20618 3.87601 8.81925C3.4443 8.43232 2.877 8.23199 2.29805 8.26201C1.7197 8.23281 1.15328 8.43355 0.722391 8.82041C0.291498 9.20728 0.0311098 9.74887 -0.00195312 10.327C-0.00195312 12.392 2.29805 12.392 2.29805 13.081C2.29805 13.081 2.29805 19.281 4.59805 19.281H19.951C22.251 19.281 22.251 13.081 22.251 13.081C22.251 12.393 24.551 12.393 24.551 10.327C24.5177 9.74952 24.2577 9.20855 23.8275 8.82182C23.3973 8.43509 22.8318 8.23389 22.254 8.26201Z" fill="#A67C52"/>
</svg>
