<svg width="17" height="18" viewBox="0 0 17 18" fill="none" xmlns="http://www.w3.org/2000/svg">
<path opacity="0.4" d="M8.58997 17.314C10.2534 17.3142 11.8794 16.8211 13.2626 15.8972C14.6457 14.9732 15.7238 13.6598 16.3605 12.1231C16.9972 10.5864 17.1639 8.89537 16.8395 7.26393C16.5151 5.63248 15.7142 4.13387 14.5381 2.95761C13.362 1.78135 11.8635 0.980274 10.2321 0.655691C8.60064 0.331109 6.90962 0.497596 5.37284 1.1341C3.83605 1.7706 2.52253 2.84853 1.59838 4.23157C0.674236 5.61461 0.180971 7.24064 0.180971 8.90402C0.183088 11.1337 1.06968 13.2714 2.64619 14.8481C4.2227 16.4248 6.36032 17.3116 8.58997 17.314Z" fill="#B5BAC2"/>
<path d="M7.37699 12.4541C7.45962 12.4542 7.54147 12.438 7.61783 12.4064C7.69419 12.3748 7.76357 12.3285 7.82199 12.2701L10.754 9.35406C10.8127 9.29537 10.8593 9.22569 10.8911 9.14899C10.9229 9.07229 10.9392 8.99008 10.9392 8.90706C10.9392 8.82404 10.9229 8.74183 10.8911 8.66514C10.8593 8.58844 10.8127 8.51875 10.754 8.46006L7.82199 5.53806C7.70234 5.42559 7.54355 5.36419 7.37935 5.36691C7.21515 5.36963 7.05848 5.43626 6.94262 5.55264C6.82676 5.66902 6.76084 5.82599 6.75885 5.99019C6.75687 6.1544 6.81898 6.31292 6.93199 6.43206L9.41499 8.90406L6.93199 11.3771C6.84388 11.4652 6.78386 11.5776 6.75951 11.6998C6.73516 11.8221 6.74757 11.9488 6.79518 12.064C6.84278 12.1792 6.92345 12.2778 7.027 12.3472C7.13054 12.4166 7.25233 12.4538 7.37699 12.4541Z" fill="#1B3254"/>
</svg>
