<svg width="21" height="24" viewBox="0 0 21 24" fill="none" xmlns="http://www.w3.org/2000/svg">
<path d="M12.5189 19.0021C12.3672 18.9589 12.2047 18.9749 12.0644 19.0469C11.924 19.1189 11.8162 19.2416 11.7629 19.3901L10.8239 22.6031C10.8059 22.6772 10.8033 22.7541 10.816 22.8293C10.8288 22.9044 10.8568 22.9761 10.8983 23.0401C10.9398 23.104 10.9938 23.1588 11.0572 23.2011C11.1206 23.2434 11.192 23.2723 11.2669 23.2861C11.4187 23.3294 11.5812 23.3134 11.7215 23.2413C11.8619 23.1693 11.9696 23.0466 12.0229 22.8981L12.9589 19.6841C12.9768 19.6103 12.9795 19.5337 12.9668 19.4589C12.9541 19.384 12.9264 19.3125 12.8852 19.2487C12.8441 19.1849 12.7904 19.1302 12.7274 19.0878C12.6645 19.0454 12.5935 19.0163 12.5189 19.0021Z" fill="#CCCCCC"/>
<path d="M16.299 4.77006C13.473 3.97706 10.681 5.29206 9.69901 9.13906C8.71701 12.9861 10.059 17.3291 12.885 18.1221C15.711 18.9151 18.949 15.8581 19.933 12.0111C20.917 8.16406 19.125 5.55906 16.299 4.77006Z" fill="#48A0DC"/>
<path d="M13.098 17.5811C12.075 17.2881 10.953 18.4991 10.846 18.9291C10.8219 19.0098 10.8142 19.0946 10.8233 19.1784C10.8325 19.2622 10.8583 19.3433 10.8993 19.4169C10.9403 19.4906 10.9957 19.5553 11.0621 19.6072C11.1285 19.659 11.2047 19.6971 11.286 19.7191L13.667 20.4001C13.7459 20.425 13.8291 20.4329 13.9112 20.4233C13.9933 20.4137 14.0725 20.3868 14.1435 20.3444C14.2144 20.3019 14.2756 20.2449 14.3229 20.1772C14.3702 20.1094 14.4027 20.0323 14.418 19.9511C14.525 19.5211 14.121 17.8741 13.098 17.5811Z" fill="#387BA8"/>
<path d="M6.49102 17.5411C6.2998 17.5411 6.11641 17.6171 5.9812 17.7523C5.84598 17.8875 5.77002 18.0709 5.77002 18.2621V22.5911C5.77002 22.7824 5.84598 22.9657 5.9812 23.101C6.11641 23.2362 6.2998 23.3121 6.49102 23.3121C6.68224 23.3121 6.86563 23.2362 7.00084 23.101C7.13606 22.9657 7.21202 22.7824 7.21202 22.5911V18.2601C7.21123 18.0693 7.13495 17.8866 6.99985 17.7519C6.86475 17.6172 6.68181 17.5414 6.49102 17.5411Z" fill="#CCCCCC"/>
<path d="M6.49095 0.225098C2.90695 0.225098 0.00195312 2.6581 0.00195312 7.4401C0.00195312 12.2221 2.90695 16.8191 6.49095 16.8191C10.075 16.8191 12.98 12.2191 12.98 7.4401C12.98 2.6611 10.075 0.225098 6.49095 0.225098Z" fill="#ED7161"/>
<path d="M6.49099 16.0991C5.25199 16.0991 4.32799 17.7631 4.32799 18.2631C4.32494 18.3587 4.3415 18.4538 4.37664 18.5428C4.41178 18.6317 4.46476 18.7124 4.53232 18.7801C4.59987 18.8477 4.68057 18.9008 4.76943 18.9361C4.85829 18.9713 4.95343 18.988 5.04899 18.9851H7.93499C8.03055 18.988 8.12569 18.9713 8.21456 18.9361C8.30342 18.9008 8.38411 18.8477 8.45167 18.7801C8.51922 18.7124 8.5722 18.6317 8.60734 18.5428C8.64248 18.4538 8.65904 18.3587 8.65599 18.2631C8.65399 17.7611 7.73499 16.0991 6.49099 16.0991Z" fill="#D46557"/>
</svg>
