<svg width="23" height="20" viewBox="0 0 23 20" fill="none" xmlns="http://www.w3.org/2000/svg">
<path d="M11.3442 19.207C16.9212 19.207 21.4422 15.1511 21.4422 10.148C21.4422 5.14484 16.9212 1.08899 11.3442 1.08899C5.76724 1.08899 1.24622 5.14484 1.24622 10.148C1.24622 15.1511 5.76724 19.207 11.3442 19.207Z" fill="#9E9E9E"/>
<path d="M11.3442 18.707C16.645 18.707 20.9422 14.875 20.9422 10.148C20.9422 5.42098 16.645 1.58899 11.3442 1.58899C6.04339 1.58899 1.74622 5.42098 1.74622 10.148C1.74622 14.875 6.04339 18.707 11.3442 18.707Z" stroke="#707070"/>
<path d="M19.1992 8.78602C19.1568 8.52719 19.0919 8.27254 19.0052 8.025C18.9542 7.82109 18.8821 7.62305 18.7902 7.43403C18.6935 7.18665 18.5789 6.94666 18.4472 6.71601C17.8062 5.62528 16.9225 4.697 15.8645 4.00327C14.8066 3.30954 13.603 2.86905 12.3472 2.71601C12.0616 2.67845 11.7742 2.6561 11.4862 2.64902C11.3711 2.63462 11.2552 2.62792 11.1392 2.629C11.0172 2.62757 10.8953 2.63427 10.7742 2.64902C10.4893 2.65263 10.2048 2.67232 9.92218 2.70801C8.66351 2.84904 7.45473 3.28027 6.39102 3.96778C5.32731 4.65529 4.43769 5.58032 3.79218 6.67002C3.6469 6.89519 3.52463 7.13438 3.42719 7.38401C3.35219 7.57701 3.26919 7.77501 3.20819 7.97501C3.12541 8.22228 3.06088 8.47528 3.01517 8.732C2.9328 9.14092 2.89028 9.55687 2.88818 9.97401C2.89419 10.9711 3.11425 11.9553 3.53348 12.86C3.95271 13.7647 4.56132 14.5689 5.31818 15.218L5.34418 15.241L5.93716 15.731L5.96317 15.742C6.1377 15.8754 6.32113 15.9966 6.51218 16.105L7.26819 16.515C8.45617 17.0742 9.7522 17.3663 11.0652 17.371C12.3782 17.3757 13.6762 17.0927 14.8682 16.542C15.1298 16.4316 15.3825 16.3012 15.6242 16.152C15.8242 16.034 16.0062 15.911 16.1912 15.789L16.8362 15.269C17.6001 14.6242 18.217 13.8233 18.6455 12.9201C19.0739 12.017 19.304 11.0325 19.3202 10.033C19.3182 9.61453 19.2777 9.19709 19.1992 8.78602ZM11.0992 15.871C7.48218 15.871 4.55618 13.241 4.55618 10.001C4.55618 6.76101 7.48218 4.13502 11.0992 4.13502C14.7162 4.13502 17.6392 6.76001 17.6392 10.001C17.6392 13.242 14.7132 15.871 11.0992 15.871Z" fill="#ABABAB"/>
<path d="M19.2412 8.77998C19.2013 8.51847 19.1367 8.26134 19.0482 8.01201C18.9959 7.80752 18.924 7.60857 18.8333 7.41798C18.7342 7.17082 18.6186 6.93061 18.4872 6.69899C17.8427 5.60149 16.9537 4.66751 15.8893 3.96974C14.8248 3.27197 13.6137 2.82926 12.3503 2.67601C12.0613 2.64201 11.7682 2.613 11.4832 2.606C11.3686 2.59449 11.2534 2.58915 11.1382 2.59001C11.0154 2.58893 10.8925 2.59427 10.7702 2.606C10.4828 2.60922 10.196 2.63059 9.91125 2.67C8.64639 2.81149 7.4316 3.2446 6.36252 3.93522C5.29344 4.62585 4.39923 5.55515 3.75024 6.65001C3.60554 6.8779 3.48203 7.11856 3.38126 7.369C3.30726 7.562 3.22523 7.76298 3.16223 7.96098C3.08044 8.21104 3.01694 8.46673 2.97223 8.726C2.88666 9.13521 2.84212 9.55193 2.83923 9.96998C2.84654 10.9718 3.06838 11.9604 3.48978 12.8692C3.91118 13.7781 4.52238 14.5861 5.28226 15.239L5.31024 15.265L5.91025 15.755L5.93524 15.765C6.11199 15.897 6.2963 16.0185 6.48724 16.129L7.25125 16.542C8.44428 17.1048 9.74619 17.3993 11.0653 17.4046C12.3844 17.41 13.6887 17.1261 14.8862 16.573C15.1497 16.4592 15.4041 16.3255 15.6472 16.173C15.8472 16.058 16.0363 15.933 16.2173 15.808L16.8672 15.286C17.8127 14.5143 18.5325 13.502 18.9512 12.3557C19.3699 11.2093 19.4718 9.97135 19.2462 8.77199L19.2412 8.77998ZM18.1992 7.65401C18.278 7.8286 18.3448 8.00834 18.3992 8.192C18.3982 8.19627 18.3982 8.20073 18.3992 8.205L13.7622 9.53898C13.7186 9.33214 13.6452 9.13275 13.5443 8.947L18.1762 7.60899C18.1829 7.6245 18.1906 7.63955 18.1992 7.65401ZM17.8282 6.88399L12.6932 8.02199L12.3432 3.30598C13.4667 3.45514 14.5426 3.85393 15.4919 4.47307C16.4412 5.0922 17.2398 5.91597 17.8293 6.88399H17.8282ZM11.1062 9.32799C11.2355 9.34268 11.3577 9.39454 11.4582 9.47728C11.5586 9.56001 11.6329 9.67007 11.672 9.79414C11.7112 9.91822 11.7135 10.051 11.6788 10.1764C11.6441 10.3018 11.5737 10.4144 11.4763 10.5006C11.3789 10.5869 11.2585 10.643 11.1299 10.6623C11.0012 10.6815 10.8697 10.6631 10.7513 10.6092C10.6329 10.5553 10.5326 10.4682 10.4627 10.3584C10.3928 10.2487 10.3561 10.1211 10.3572 9.99101C10.3618 9.89779 10.3849 9.80642 10.4253 9.72227C10.4657 9.63813 10.5225 9.56292 10.5924 9.50105C10.6623 9.43918 10.7438 9.3919 10.8322 9.36201C10.9207 9.33212 11.0142 9.32023 11.1072 9.32701L11.1062 9.32799ZM10.7672 3.21998C10.7938 3.21394 10.821 3.21091 10.8482 3.21098C10.9232 3.21098 10.9942 3.21098 11.0742 3.21098H11.1812C11.2751 3.20996 11.3689 3.21431 11.4622 3.22398H11.4753L11.4583 7.589C11.3386 7.57306 11.2179 7.5657 11.0972 7.567C10.9779 7.56574 10.8586 7.57309 10.7402 7.589L10.7672 3.21998ZM9.90726 3.29298L9.52524 8.00899L4.40726 6.839C5.00145 5.87511 5.80379 5.05637 6.75546 4.44279C7.70714 3.82922 8.78405 3.43635 9.90726 3.29298ZM3.82224 8.128C3.87919 7.94357 3.94596 7.76231 4.02225 7.585C4.02225 7.585 4.03025 7.56501 4.03625 7.56001L8.66223 8.92799C8.55633 9.11563 8.47852 9.31779 8.43124 9.528L3.81226 8.158C3.81697 8.14807 3.82064 8.13768 3.82324 8.127L3.82224 8.128ZM5.68423 14.739C5.00863 14.1411 4.46683 13.4074 4.09427 12.5858C3.72171 11.7641 3.5268 10.8731 3.52225 9.97099C3.52908 9.61897 3.56251 9.26798 3.62225 8.921L3.67325 8.93699L8.49423 10.714L5.68423 14.739ZM6.89026 15.639L6.86826 15.619C6.69366 15.523 6.52652 15.414 6.36826 15.293L6.33725 15.27L9.20425 11.748C9.37447 11.9004 9.56534 12.028 9.77124 12.127L6.89026 15.639ZM11.0742 16.794C9.8939 16.7938 8.72768 16.5373 7.65625 16.042L11.0632 12.442L14.4792 16.073C13.4104 16.5578 12.2489 16.8045 11.0753 16.796L11.0742 16.794ZM15.7982 15.325C15.6242 15.44 15.4593 15.559 15.2603 15.674C15.2603 15.674 15.2532 15.68 15.2492 15.687L12.3952 12.145C12.6026 12.0447 12.7959 11.9176 12.9702 11.767L15.8092 15.311C15.8065 15.3163 15.8031 15.3214 15.7993 15.326L15.7982 15.325ZM16.4583 14.784L13.6972 10.718L18.5772 8.964C18.6426 9.31343 18.6724 9.66857 18.6662 10.024C18.6589 10.9287 18.4585 11.8215 18.0784 12.6425C17.6983 13.4635 17.1473 14.194 16.4622 14.785L16.4583 14.784Z" fill="white"/>
<path d="M11.4952 8.245C11.5043 8.32541 11.4888 8.40671 11.4508 8.47813C11.4127 8.54954 11.3539 8.60774 11.2821 8.64503C11.2102 8.68231 11.1288 8.69693 11.0485 8.68696C10.9682 8.67699 10.8928 8.6429 10.8322 8.58918C10.7717 8.53546 10.7289 8.46464 10.7095 8.38608C10.69 8.30753 10.6949 8.22492 10.7234 8.14918C10.7519 8.07343 10.8026 8.00813 10.869 7.96186C10.9354 7.91559 11.0143 7.89053 11.0952 7.89002C11.1448 7.88691 11.1946 7.89364 11.2416 7.90983C11.2886 7.92601 11.3319 7.95133 11.3691 7.98432C11.4062 8.01731 11.4365 8.05731 11.4582 8.10206C11.4798 8.1468 11.4924 8.19538 11.4952 8.245Z" fill="#67576A"/>
<path d="M9.28724 9.8C9.50594 9.8 9.68324 9.64106 9.68324 9.445C9.68324 9.24894 9.50594 9.09 9.28724 9.09C9.06853 9.09 8.89124 9.24894 8.89124 9.445C8.89124 9.64106 9.06853 9.8 9.28724 9.8Z" fill="#67576A"/>
<path d="M9.97217 11.719C10.1909 11.719 10.3682 11.5601 10.3682 11.364C10.3682 11.1679 10.1909 11.009 9.97217 11.009C9.75347 11.009 9.57617 11.1679 9.57617 11.364C9.57617 11.5601 9.75347 11.719 9.97217 11.719Z" fill="#67576A"/>
<path d="M12.2341 11.719C12.4528 11.719 12.6301 11.5601 12.6301 11.364C12.6301 11.1679 12.4528 11.009 12.2341 11.009C12.0154 11.009 11.8381 11.1679 11.8381 11.364C11.8381 11.5601 12.0154 11.719 12.2341 11.719Z" fill="#67576A"/>
<path d="M12.9262 9.8C13.1449 9.8 13.3222 9.64106 13.3222 9.445C13.3222 9.24894 13.1449 9.09 12.9262 9.09C12.7074 9.09 12.5302 9.24894 12.5302 9.445C12.5302 9.64106 12.7074 9.8 12.9262 9.8Z" fill="#67576A"/>
<path d="M11.0981 9.017C10.9083 9.03822 10.7287 9.11392 10.5809 9.23495C10.4331 9.35598 10.3235 9.51719 10.2653 9.69912C10.207 9.88106 10.2027 10.0759 10.2527 10.2603C10.3028 10.4446 10.4051 10.6106 10.5473 10.7381C10.6896 10.8656 10.8657 10.9492 11.0544 10.9788C11.2431 11.0085 11.4363 10.983 11.6108 10.9053C11.7853 10.8276 11.9336 10.701 12.0378 10.5409C12.1421 10.3808 12.1977 10.194 12.1981 10.003C12.1824 9.7266 12.0578 9.4677 11.8517 9.28293C11.6455 9.09815 11.3746 9.00253 11.0981 9.017ZM11.0981 10.665C10.9104 10.6737 10.7268 10.6075 10.5879 10.4809C10.4489 10.3543 10.366 10.1777 10.3572 9.98999C10.362 9.89703 10.3853 9.80598 10.4257 9.72213C10.4661 9.63829 10.5229 9.56335 10.5926 9.50171C10.6624 9.44006 10.7437 9.39295 10.8319 9.36313C10.9201 9.3333 11.0133 9.32136 11.1061 9.328C11.1997 9.31899 11.2942 9.32972 11.3833 9.35949C11.4725 9.38927 11.5544 9.43743 11.6238 9.50085C11.6932 9.56427 11.7486 9.64155 11.7862 9.72769C11.8239 9.81383 11.8431 9.9069 11.8425 10.0009C11.8419 10.0949 11.8217 10.1878 11.783 10.2735C11.7443 10.3591 11.688 10.4358 11.6179 10.4983C11.5477 10.5609 11.4652 10.6081 11.3757 10.6368C11.2861 10.6655 11.1916 10.6751 11.0981 10.665Z" fill="#67576A"/>
<path d="M11.1002 0.0339966C4.96219 0.0339966 -0.0078125 4.49699 -0.0078125 9.99899C-0.0078125 15.501 4.96219 19.964 11.1002 19.964C17.2382 19.964 22.2002 15.501 22.2002 9.99899C22.2002 4.49699 17.2332 0.0339966 11.1002 0.0339966ZM16.8282 15.264L16.1832 15.784C16.0012 15.907 15.8142 16.03 15.6162 16.147C15.3743 16.2972 15.1212 16.4286 14.8592 16.54C13.6673 17.0911 12.3691 17.3742 11.056 17.3691C9.74286 17.3641 8.44682 17.0712 7.25919 16.511L6.50217 16.101C6.3109 15.9919 6.12686 15.8707 5.95117 15.738L5.92618 15.726L5.33417 15.239L5.30719 15.214C4.55056 14.5646 3.94201 13.7604 3.52264 12.8558C3.10328 11.9511 2.88284 10.9671 2.87619 9.97C2.87916 9.55343 2.92268 9.13811 3.00616 8.72998C3.0516 8.47283 3.11509 8.2192 3.19617 7.97098C3.25717 7.77098 3.34119 7.57099 3.41519 7.38199C3.51312 7.13194 3.63536 6.89212 3.78018 6.66599C4.42653 5.57645 5.31677 4.65168 6.38095 3.96439C7.44513 3.27709 8.65422 2.84599 9.91318 2.70499C10.1964 2.66783 10.4816 2.64713 10.7672 2.64299C10.888 2.62927 11.0096 2.62326 11.1312 2.62498C11.2464 2.62361 11.3617 2.62963 11.4762 2.64299C11.7645 2.65038 12.0523 2.67341 12.3382 2.71199C13.594 2.86511 14.7975 3.30564 15.8555 3.99936C16.9134 4.69308 17.7972 5.62133 18.4382 6.71201C18.5682 6.94314 18.6834 7.18226 18.7832 7.42798C18.8706 7.61913 18.9422 7.81714 18.9972 8.01999C19.0822 8.26808 19.1458 8.52301 19.1872 8.78198C19.413 9.97548 19.3121 11.2078 18.8951 12.3487C18.4781 13.4896 17.7605 14.4965 16.8182 15.263L16.8282 15.264Z" fill="#4D4D4D"/>
</svg>
