<svg width="26" height="26" viewBox="0 0 26 26" fill="none" xmlns="http://www.w3.org/2000/svg">
<path d="M20.8011 25.43C20.3231 25.4298 19.8559 25.2878 19.4585 25.0221C19.0612 24.7564 18.7515 24.3789 18.5687 23.9372C18.386 23.4956 18.3382 23.0096 18.4316 22.5408C18.525 22.072 18.7553 21.6415 19.0933 21.3035C19.4314 20.9656 19.8621 20.7355 20.3309 20.6423C20.7997 20.5492 21.2856 20.5971 21.7272 20.78C22.1688 20.963 22.5462 21.2728 22.8118 21.6703C23.0773 22.0677 23.2191 22.535 23.2191 23.013C23.2194 23.3306 23.1572 23.6451 23.0358 23.9386C22.9144 24.2321 22.7363 24.4987 22.5117 24.7233C22.287 24.9478 22.0203 25.1258 21.7268 25.2471C21.4332 25.3683 21.1187 25.4305 20.8011 25.43ZM10.7201 25.43C10.2421 25.4298 9.77485 25.2878 9.37751 25.0221C8.98017 24.7564 8.67053 24.3789 8.48775 23.9372C8.30496 23.4956 8.25724 23.0096 8.35061 22.5408C8.44399 22.072 8.67426 21.6415 9.01233 21.3035C9.35039 20.9656 9.78106 20.7355 10.2499 20.6423C10.7187 20.5492 11.2046 20.5971 11.6462 20.78C12.0878 20.963 12.4652 21.2728 12.7308 21.6703C12.9963 22.0677 13.1381 22.535 13.1381 23.013C13.1384 23.3306 13.0762 23.6451 12.9548 23.9386C12.8334 24.2321 12.6553 24.4987 12.4307 24.7233C12.206 24.9478 11.9393 25.1258 11.6458 25.2471C11.3522 25.3683 11.0377 25.4305 10.7201 25.43ZM21.1031 18.722C21.0601 18.722 16.4891 18.715 13.2341 18.715C11.3341 18.715 10.2691 18.715 10.0661 18.722C9.7412 18.6523 9.4372 18.5074 9.17844 18.299C8.91969 18.0906 8.71337 17.8245 8.57605 17.522C8.48405 17.372 8.37605 17.202 8.25305 17.016L4.84105 2.16897H0.852051V0.391968H6.60505L8.12105 6.32697H24.791C25.1116 6.32723 25.419 6.45469 25.6457 6.68137C25.8723 6.90804 25.9998 7.2154 26.0001 7.53597C26.0014 7.73849 25.9504 7.93793 25.8521 8.11497L23.2161 17.476C23.0076 17.8538 22.7016 18.1687 22.3299 18.3879C21.9583 18.6071 21.5345 18.7225 21.1031 18.722ZM12.7521 13.985C13.1135 14.8179 13.743 15.5061 14.5405 15.9402C15.3379 16.3743 16.2576 16.5295 17.1534 16.381C18.0491 16.2325 18.8695 15.7889 19.4842 15.1206C20.099 14.4524 20.4727 13.5979 20.5461 12.6929C20.6195 11.7879 20.3883 10.8843 19.8893 10.1258C19.3902 9.36726 18.652 8.79727 17.7919 8.5064C16.9318 8.21553 15.9991 8.22047 15.1421 8.52043C14.2852 8.8204 13.553 9.39818 13.0621 10.162L12.0031 9.10497V12.359H15.2521L13.9521 11.059C14.2382 10.509 14.6966 10.0679 15.2572 9.80298C15.8177 9.53811 16.4496 9.46409 17.0562 9.59222C17.6628 9.72035 18.2107 10.0436 18.6162 10.5125C19.0218 10.9815 19.2626 11.5703 19.3019 12.189C19.3412 12.8078 19.1768 13.4223 18.8339 13.9388C18.4909 14.4553 17.9883 14.8453 17.4028 15.0491C16.8173 15.253 16.1812 15.2595 15.5916 15.0677C15.002 14.8759 14.4915 14.4963 14.1381 13.987L12.7521 13.985Z" fill="#FD5E29"/>
</svg>
