<svg width="22" height="21" viewBox="0 0 22 21" fill="none" xmlns="http://www.w3.org/2000/svg">
<path d="M9.93608 6.88501C9.29157 6.85199 8.66017 7.07533 8.17978 7.50626C7.69938 7.9372 7.40901 8.54071 7.37208 9.18501C7.37238 9.41191 7.40988 9.63723 7.48308 9.85201C7.44608 9.85201 7.41008 9.84201 7.37208 9.84201C7.12194 9.86782 6.88435 9.96444 6.6872 10.1205C6.49004 10.2766 6.34149 10.4857 6.25898 10.7233C6.17647 10.9608 6.16342 11.217 6.22137 11.4617C6.27931 11.7064 6.40585 11.9294 6.58612 12.1048C6.7664 12.2801 6.99294 12.4003 7.23916 12.4514C7.48538 12.5025 7.74107 12.4824 7.97622 12.3933C8.21137 12.3041 8.41623 12.1498 8.56676 11.9484C8.7173 11.747 8.80725 11.5068 8.82608 11.256C9.1766 11.4072 9.55434 11.4851 9.93608 11.485C10.5806 11.518 11.212 11.2947 11.6924 10.8638C12.1728 10.4328 12.4632 9.82931 12.5001 9.18501C12.4632 8.54071 12.1728 7.9372 11.6924 7.50626C11.212 7.07533 10.5806 6.85199 9.93608 6.88501Z" fill="#FFE5CF"/>
<path d="M21.2722 17.793L20.8822 15.229C20.6375 13.6199 20.6375 11.9831 20.8822 10.374C21.2682 7.834 19.0202 5.57401 16.1632 5.57401C13.3062 5.57401 11.0632 7.835 11.4442 10.374C11.6888 11.9831 11.6888 13.6199 11.4442 15.229L11.0542 17.793C11.0276 18.0887 11.0653 18.3866 11.1647 18.6663C11.2641 18.946 11.4228 19.2009 11.63 19.4135C11.8372 19.6261 12.0879 19.7914 12.365 19.898C12.6421 20.0046 12.9389 20.0499 13.2352 20.031H19.0962C19.392 20.0492 19.6883 20.0032 19.9647 19.8963C20.2412 19.7894 20.4913 19.624 20.6979 19.4115C20.9045 19.199 21.0628 18.9444 21.1619 18.665C21.261 18.3857 21.2986 18.0882 21.2722 17.793Z" fill="#BDD3F4"/>
<path d="M21.235 17.526C21.0951 17.9798 20.8095 18.3747 20.4225 18.6499C20.0355 18.925 19.5686 19.0649 19.094 19.048H13.235C12.7616 19.0642 12.2959 18.9243 11.9097 18.6498C11.5236 18.3753 11.2384 17.9815 11.098 17.529L11.057 17.796C11.031 18.0912 11.069 18.3885 11.1684 18.6676C11.2678 18.9467 11.4264 19.2011 11.6332 19.4133C11.84 19.6255 12.0902 19.7906 12.3666 19.8972C12.6431 20.0038 12.9393 20.0494 13.235 20.031H19.096C19.3921 20.0495 19.6886 20.0038 19.9653 19.897C20.242 19.7902 20.4923 19.6249 20.6992 19.4123C20.906 19.1998 21.0645 18.945 21.1637 18.6655C21.2629 18.386 21.3006 18.0884 21.274 17.793L21.235 17.526Z" fill="#B0CBF4"/>
<path d="M11.445 10.372C11.6897 11.9811 11.6897 13.6179 11.445 15.227L11.165 17.072H21.165L20.885 15.227C20.6404 13.6179 20.6404 11.9811 20.885 10.372C20.9425 9.97829 20.9368 9.57791 20.868 9.186H11.46C11.3917 9.578 11.3867 9.97841 11.445 10.372Z" fill="#FFC885"/>
<path d="M8.84696 15.617L6.69696 16.003C6.38544 16.0589 6.06647 16.0589 5.75496 16.003L3.60496 15.617C3.27441 15.5392 2.9309 15.5342 2.59823 15.6024C2.26555 15.6705 1.95167 15.8101 1.6783 16.0116C1.40494 16.213 1.17863 16.4715 1.01505 16.7691C0.851475 17.0667 0.754539 17.3962 0.730957 17.735H11.721C11.6972 17.3963 11.6002 17.0668 11.4365 16.7693C11.2729 16.4718 11.0466 16.2134 10.7733 16.012C10.5 15.8106 10.1862 15.6709 9.85355 15.6027C9.52094 15.5345 9.17749 15.5394 8.84696 15.617Z" fill="#FFE5CF"/>
<path d="M15.0181 3.26999V5.66999C15.3491 5.60453 15.6856 5.57105 16.0231 5.56999H16.2111C16.5485 5.57107 16.885 5.60455 17.2161 5.66999V3.26999H15.0181Z" fill="white"/>
<path d="M17.2141 0.969987H12.8141C12.63 0.960965 12.4498 1.02489 12.3126 1.14789C12.1753 1.27089 12.0922 1.44304 12.0811 1.62699V2.28399H14.2811V3.26999H17.9441V1.62699C17.933 1.44358 17.8502 1.2719 17.7136 1.14898C17.577 1.02607 17.3976 0.961777 17.2141 0.969987Z" fill="#BDD3F4"/>
<path d="M12.087 17.731H0.364014V20.032H12.087V17.731Z" fill="#4A81D4"/>
<path d="M2.19601 14.115C3.2078 14.115 4.02801 13.3794 4.02801 12.472C4.02801 11.5646 3.2078 10.829 2.19601 10.829C1.18423 10.829 0.364014 11.5646 0.364014 12.472C0.364014 13.3794 1.18423 14.115 2.19601 14.115Z" fill="#FFE5CF"/>
<path d="M4.02817 8.19901C4.43299 8.19901 4.76117 7.90486 4.76117 7.54201C4.76117 7.17916 4.43299 6.88501 4.02817 6.88501C3.62334 6.88501 3.29517 7.17916 3.29517 7.54201C3.29517 7.90486 3.62334 8.19901 4.02817 8.19901Z" fill="#FFE5CF"/>
<path d="M3.29501 4.58399C3.69984 4.58399 4.02801 4.28984 4.02801 3.92699C4.02801 3.56414 3.69984 3.26999 3.29501 3.26999C2.89019 3.26999 2.56201 3.56414 2.56201 3.92699C2.56201 4.28984 2.89019 4.58399 3.29501 4.58399Z" fill="#FFE5CF"/>
<path d="M12.087 19.045H0.364014V20.031H12.087V19.045Z" fill="#3977D4"/>
<path d="M12.1951 6.803C11.7283 7.26827 11.3762 7.83574 11.1665 8.46055C10.9569 9.08535 10.8954 9.75036 10.9871 10.403V10.414C11.2278 11.9939 11.2278 13.6011 10.9871 15.181L11.7131 15.27C11.9616 13.6344 11.9616 11.9706 11.7131 10.335C11.7129 10.3313 11.7129 10.3277 11.7131 10.324C11.6725 10.055 11.6634 9.78213 11.6861 9.511H20.5441C20.5661 9.77778 20.5574 10.0462 20.5181 10.311V10.321C20.269 11.9596 20.269 13.6264 20.5181 15.265L20.7421 16.737H13.1861V17.394H20.8421L20.9081 17.829C20.9416 18.0646 20.9197 18.3047 20.8442 18.5304C20.7687 18.7561 20.6416 18.961 20.4731 19.129C20.2919 19.3097 20.0766 19.4526 19.8397 19.5492C19.6027 19.6459 19.3489 19.6944 19.0931 19.692H13.1401V20.349H19.0951C19.4533 20.3524 19.8086 20.2845 20.1403 20.1492C20.472 20.0139 20.7734 19.8139 21.0271 19.561C21.2636 19.3254 21.4419 19.0378 21.5476 18.7211C21.6534 18.4045 21.6837 18.0675 21.6361 17.737L21.2461 15.173C21.0067 13.596 21.0067 11.992 21.2461 10.415V10.405C21.3401 9.75038 21.2799 9.08285 21.0704 8.45559C20.8608 7.82832 20.5077 7.25867 20.0391 6.792C19.3641 6.11224 18.514 5.63283 17.5831 5.407V3.599H17.9491C18.0412 3.60364 18.1314 3.57164 18.1999 3.50999C18.2685 3.44835 18.3099 3.36207 18.3151 3.27V1.627C18.2991 1.35089 18.1746 1.0923 17.9687 0.907605C17.7628 0.722907 17.4923 0.627076 17.2161 0.640999H12.8161C12.5397 0.626803 12.2689 0.722512 12.0628 0.907237C11.8567 1.09196 11.7321 1.35071 11.7161 1.627V2.284C11.7212 2.37607 11.7626 2.46235 11.8312 2.52399C11.8998 2.58564 11.99 2.61764 12.0821 2.613H13.9141V3.27C13.9192 3.36207 13.9606 3.44835 14.0292 3.50999C14.0978 3.57164 14.188 3.60364 14.2801 3.599H14.6461V5.418C13.7169 5.64469 12.8686 6.12404 12.1951 6.803ZM19.4861 7.235C19.9297 7.68833 20.252 8.24618 20.4231 8.857H11.8101C11.981 8.24611 12.3032 7.68823 12.7471 7.235C13.1771 6.80593 13.6882 6.46681 14.2507 6.23743C14.8131 6.00805 15.4157 5.893 16.0231 5.899H16.2111C16.8183 5.89319 17.4206 6.00833 17.9829 6.2377C18.5452 6.46708 19.0562 6.8061 19.4861 7.235ZM12.4531 1.956V1.627C12.4582 1.53493 12.4996 1.44865 12.5682 1.38701C12.6368 1.32536 12.727 1.29336 12.8191 1.298H17.2191C17.3112 1.29336 17.4014 1.32536 17.4699 1.38701C17.5385 1.44865 17.5799 1.53493 17.5851 1.627V2.941H14.6511V2.613H15.7511V1.956H12.4511H12.4531ZM15.3841 3.599H16.8491V5.282C16.637 5.2566 16.4237 5.24324 16.2101 5.242H16.0221C15.8085 5.24324 15.5951 5.2566 15.3831 5.282L15.3841 3.599Z" fill="#1B3254"/>
<path d="M-0.00195312 20.031C0.00321458 20.1231 0.0446088 20.2093 0.113187 20.271C0.181764 20.3326 0.271952 20.3646 0.364047 20.36H12.087C12.1791 20.3646 12.2693 20.3326 12.3379 20.271C12.4065 20.2093 12.4479 20.1231 12.453 20.031V17.731C12.4479 17.6389 12.4065 17.5526 12.3379 17.491C12.2693 17.4294 12.1791 17.3974 12.087 17.402H12.06C12.0101 17.0836 11.8971 16.7785 11.7276 16.5044C11.5581 16.2303 11.3356 15.9929 11.073 15.806C10.7443 15.5693 10.371 15.4017 9.97574 15.3132C9.58045 15.2246 9.17133 15.2171 8.77305 15.291L6.62305 15.677C6.35852 15.7248 6.08757 15.7248 5.82305 15.677L3.67305 15.291C3.27478 15.2167 2.86557 15.224 2.47022 15.3126C2.07487 15.4011 1.70161 15.5689 1.37305 15.806C1.11096 15.9937 0.889074 16.232 0.720431 16.5068C0.551788 16.7816 0.439798 17.0873 0.391047 17.406H0.364047C0.271952 17.4013 0.181764 17.4333 0.113187 17.495C0.0446088 17.5566 0.00321458 17.6429 -0.00195312 17.735V20.031ZM11.725 19.706H0.731047V18.059H11.725V19.706ZM1.84205 16.318C2.08344 16.1438 2.35769 16.0203 2.64818 15.9552C2.93867 15.89 3.23936 15.8845 3.53205 15.939L5.68205 16.325C6.04117 16.3895 6.40892 16.3895 6.76805 16.325L8.91805 15.939C9.21073 15.8845 9.51142 15.89 9.80191 15.9552C10.0924 16.0203 10.3667 16.1438 10.608 16.318C10.9715 16.5781 11.2244 16.9648 11.317 17.402H1.13305C1.22569 16.9648 1.47861 16.5781 1.84205 16.318Z" fill="#1B3254"/>
<path d="M17.6981 13.759C17.6762 14.1391 17.5048 14.4951 17.2213 14.7494C16.9379 15.0036 16.5654 15.1354 16.1851 15.116C15.8049 15.1354 15.4324 15.0036 15.1489 14.7494C14.8655 14.4951 14.6941 14.1391 14.6721 13.759C14.6721 13.009 16.1851 11.044 16.1851 11.044C16.1851 11.044 17.6981 13.009 17.6981 13.759Z" fill="#3F6297"/>
</svg>
