<svg width="35" height="20" viewBox="0 0 35 20" fill="none" xmlns="http://www.w3.org/2000/svg">
<path d="M8.4292 3.28098L9.3292 3.91898H10.0172L9.1172 3.28098H8.4292Z" fill="#9B9B9B"/>
<path d="M7.0072 3.28098L7.9072 3.91898H8.6162L7.7162 3.28098H7.0072Z" fill="#9B9B9B"/>
<path d="M4.22815 3.28098L5.12815 3.91898H5.81615L4.91615 3.28098H4.22815Z" fill="#9B9B9B"/>
<path d="M5.62817 3.28098L6.52818 3.91898H7.19518L6.29517 3.28098H5.62817Z" fill="#9B9B9B"/>
<path d="M9.8291 3.28098L10.7291 3.91898H11.4381L10.5381 3.28098H9.8291Z" fill="#9B9B9B"/>
<path d="M14.0391 3.28098H11.2501L12.1501 3.91898H14.0361L14.0391 3.28098Z" fill="#9B9B9B"/>
<path d="M10.5381 3.28098L11.4381 3.91898H12.1501L11.2501 3.28098H10.5381Z" fill="#B2B2B2"/>
<path d="M9.11719 3.28098L10.0172 3.91898H10.7292L9.82919 3.28098H9.11719Z" fill="#B2B2B2"/>
<path d="M7.71619 3.28098L8.61619 3.91898H9.32819L8.42819 3.28098H7.71619Z" fill="#B2B2B2"/>
<path d="M6.29517 3.28098L7.19517 3.91898H7.91417L7.01417 3.28098H6.29517Z" fill="#B2B2B2"/>
<path d="M4.91919 3.28098L5.81919 3.91898H6.53119L5.63119 3.28098H4.91919Z" fill="#B2B2B2"/>
<path d="M4.22913 3.27798L4.24012 3.91798H5.13012L4.22913 3.27798Z" fill="#B2B2B2"/>
<path d="M21.4751 3.59999C21.4641 2.05199 20.5942 0.799999 18.1662 0.799999C17.1022 0.798696 16.041 0.906586 14.9991 1.12199V3.59599L21.4751 3.59999Z" fill="#9B9B9B"/>
<path d="M14.9941 3.599V6.073C16.036 6.28839 17.0972 6.39629 18.1611 6.395C20.5891 6.395 21.4611 5.145 21.4701 3.595H14.9891L14.9941 3.599Z" fill="#808080"/>
<path d="M13.0101 2.48001V3.60001H14.9941V1.12601C14.2068 1.35737 13.5125 1.83119 13.0101 2.48001Z" fill="#CCCCCC"/>
<path d="M13.0101 3.59999V4.717C13.5125 5.36582 14.2068 5.83962 14.9941 6.07098V3.59698L13.0101 3.59999Z" fill="#B2B2B2"/>
<path d="M21.3271 6.60399L18.1342 6.45599V0.655991L21.3271 0.584991V6.60399Z" fill="#CCCCCC"/>
<path d="M23.0351 1.66099C23.0271 1.80099 22.964 1.93215 22.8597 2.02583C22.7553 2.1195 22.6182 2.16808 22.4781 2.16099H19.9321C19.7921 2.16808 19.6549 2.1195 19.5505 2.02583C19.4462 1.93215 19.3831 1.80099 19.3751 1.66099C19.3831 1.52099 19.4462 1.38984 19.5505 1.29617C19.6549 1.20249 19.7921 1.15389 19.9321 1.16099H22.4781C22.6182 1.15389 22.7553 1.20249 22.8597 1.29617C22.964 1.38984 23.0271 1.52099 23.0351 1.66099Z" fill="#B2B2B2"/>
<path d="M23.0351 3.54499C23.0271 3.68499 22.964 3.81614 22.8597 3.90981C22.7553 4.00349 22.6182 4.05209 22.4781 4.04499H19.9321C19.7921 4.05209 19.6549 4.00349 19.5505 3.90981C19.4462 3.81614 19.3831 3.68499 19.3751 3.54499C19.3831 3.40499 19.4462 3.27383 19.5505 3.18015C19.6549 3.08648 19.7921 3.0379 19.9321 3.04499H22.4781C22.6182 3.0379 22.7553 3.08648 22.8597 3.18015C22.964 3.27383 23.0271 3.40499 23.0351 3.54499Z" fill="#B2B2B2"/>
<path d="M23.0351 5.54399C23.0271 5.68399 22.964 5.81515 22.8597 5.90882C22.7553 6.0025 22.6182 6.05108 22.4781 6.04399H19.9321C19.7921 6.05108 19.6549 6.0025 19.5505 5.90882C19.4462 5.81515 19.3831 5.68399 19.3751 5.54399C19.3831 5.40398 19.4462 5.27284 19.5505 5.17916C19.6549 5.08549 19.7921 5.03689 19.9321 5.04399H22.4781C22.6182 5.03689 22.7553 5.08549 22.8597 5.17916C22.964 5.27284 23.0271 5.40398 23.0351 5.54399Z" fill="#B2B2B2"/>
<path d="M24.2971 9.45599C24.2899 9.58396 24.2323 9.70386 24.1369 9.7895C24.0415 9.87513 23.9161 9.91953 23.7881 9.91299H22.4721C22.3441 9.91953 22.2187 9.87513 22.1233 9.7895C22.028 9.70386 21.9704 9.58396 21.9631 9.45599V8.23998C21.9704 8.11201 22.028 7.99209 22.1233 7.90646C22.2187 7.82082 22.3441 7.77644 22.4721 7.78298H23.7881C23.9161 7.77644 24.0415 7.82082 24.1369 7.90646C24.2323 7.99209 24.2899 8.11201 24.2971 8.23998V9.45599Z" fill="#FBCB43"/>
<path d="M30.4722 13.799C30.2232 13.7271 29.987 13.6168 29.7722 13.472C28.5422 12.654 28.5422 10.331 28.4782 8.92299C28.4262 7.78099 28.6922 6.506 27.6722 6.506C26.5722 6.506 25.7202 6.42999 24.0872 6.44899C22.6872 6.46499 22.3472 6.278 22.3262 5.726C22.2692 4.249 22.2882 1.67 22.2992 0.589996H21.2072C21.2072 0.589996 21.2012 7.218 21.1912 7.562C21.1772 8.062 21.4652 8.16199 21.7532 8.16199H23.7372C23.7372 8.16199 23.7482 9.41799 23.7482 9.95099C23.7482 10.103 23.8412 10.161 23.9602 10.227C24.0602 10.283 24.2052 10.32 24.2522 10.453L24.8522 10.388C25.7862 10.288 25.8972 11.534 25.5522 11.627C25.1328 11.7278 24.7086 11.8069 24.2812 11.864C24.2812 11.994 24.2812 12.13 24.2812 12.27C24.7882 12.181 25.3582 12.084 25.5262 12.063C26.2902 11.963 26.6082 13.243 26.0392 13.363C25.6222 13.448 24.8962 13.563 24.2872 13.649C24.2872 13.808 24.2872 13.966 24.2872 14.12C24.8422 14.02 25.7302 13.876 25.9482 13.859C26.7142 13.8 26.8282 14.959 26.4812 15.037C25.8722 15.171 24.9082 15.343 24.2902 15.45C24.2902 15.857 24.2902 16.117 24.2902 16.117L30.7982 16.131C30.7982 16.131 30.6432 15.139 30.4722 13.799Z" fill="#D3362D"/>
<path d="M25.9502 13.855C25.7322 13.872 24.8442 14.021 24.2892 14.116C24.2892 14.623 24.2892 15.09 24.2892 15.446C24.9072 15.339 25.8712 15.166 26.4802 15.033C26.8292 14.956 26.7162 13.795 25.9502 13.855Z" fill="#E84C43"/>
<path d="M25.5272 12.063C25.3592 12.084 24.7892 12.181 24.2832 12.27C24.2832 12.706 24.2832 13.182 24.2832 13.644C24.8922 13.555 25.6192 13.444 26.0352 13.358C26.6102 13.243 26.2872 11.968 25.5272 12.063Z" fill="#E84C43"/>
<path d="M24.8482 10.389L24.2482 10.454C24.2572 10.4791 24.2626 10.5054 24.2642 10.532C24.2712 10.661 24.2762 11.186 24.2802 11.866C24.7076 11.809 25.1319 11.7298 25.5512 11.629C25.8942 11.535 25.7822 10.294 24.8482 10.389Z" fill="#E84C43"/>
<path d="M30.4581 6.592H32.5331C33.0375 6.61792 33.5316 6.44314 33.9075 6.10585C34.2834 5.76857 34.5105 5.29621 34.5391 4.792V2.392C34.5105 1.88779 34.2834 1.41543 33.9075 1.07814C33.5316 0.740859 33.0375 0.566078 32.5331 0.591999H22.2971C22.2861 1.671 22.2671 4.251 22.3241 5.728C22.3451 6.28 22.6831 6.46799 24.0851 6.45099C25.7191 6.43199 26.5671 6.508 27.6701 6.508C28.6901 6.508 28.4251 7.78299 28.4761 8.92499C28.5401 10.333 28.5401 12.655 29.7701 13.474C29.985 13.6189 30.2212 13.7292 30.4701 13.801C30.1441 11.185 30.1441 7.02 30.4581 6.592Z" fill="#E84C43"/>
<path d="M29.6192 17.026C29.8762 16.963 30.4342 16.867 30.8842 16.794L30.6052 14.757C30.6052 14.757 24.8932 15.528 23.0152 16.457C22.8561 16.5846 22.7299 16.7484 22.6469 16.9347C22.564 17.121 22.5267 17.3244 22.5382 17.528C22.5462 17.879 22.5502 18.27 22.5522 18.604C23.7872 18.513 27.6412 18.225 28.1392 18.113C28.8422 17.955 29.1552 17.141 29.6192 17.026Z" fill="#808080"/>
<path d="M22.5582 19.411H31.2462L30.8882 16.795C30.4372 16.869 29.8792 16.965 29.6232 17.027C29.1562 17.141 28.8432 17.955 28.1432 18.112C27.6432 18.224 23.7922 18.512 22.5562 18.603C22.5592 19.062 22.5582 19.411 22.5582 19.411Z" fill="#D3362D"/>
<path d="M24.8911 7.36198C24.8911 7.85698 25.2311 8.09898 25.8241 8.08498C26.6511 8.06598 27.4801 7.69697 27.5641 7.32397C27.6281 7.03897 26.8211 6.96198 25.9731 6.96198C25.3791 6.96298 24.8911 6.99998 24.8911 7.36198Z" fill="#FBCB43"/>
<path d="M28.4781 1.79498C27.8161 1.80398 27.1711 1.82098 26.6311 1.85298C24.6581 1.96698 24.1171 3.62298 23.6401 4.59398C23.3281 5.22898 23.6401 5.67898 25.4251 5.75098C25.9941 5.77398 26.6301 5.78998 27.2821 5.80098C27.6442 5.16908 27.9216 4.49227 28.1071 3.78798C28.2945 3.13711 28.4188 2.46969 28.4781 1.79498Z" fill="#CCCCCC"/>
<path d="M30.3461 1.78699C29.9561 1.78699 29.5391 1.78699 29.1181 1.78699C29.0559 2.51344 28.9219 3.23195 28.7181 3.93199C28.5384 4.58043 28.2942 5.20924 27.9891 5.80899C28.3751 5.80899 28.7601 5.81599 29.1321 5.81799C29.5012 5.18138 29.7828 4.49788 29.9691 3.786C30.159 3.1334 30.2853 2.46393 30.3461 1.78699Z" fill="#CCCCCC"/>
<path d="M32.2161 1.797C31.9381 1.797 31.5061 1.797 30.9891 1.789C30.9267 2.5151 30.7927 3.23326 30.5891 3.933C30.4087 4.58514 30.1628 5.21735 29.8551 5.81999C30.2721 5.81999 30.6611 5.81999 31.0061 5.81999C31.3741 5.18412 31.6549 4.50169 31.8411 3.791C32.0299 3.13993 32.1555 2.47217 32.2161 1.797Z" fill="#CCCCCC"/>
<path d="M32.8482 1.84198C32.7849 2.55035 32.6533 3.25095 32.4552 3.93399C32.2758 4.58131 32.0323 5.20909 31.7281 5.80798C32.0201 5.80798 32.2402 5.79798 32.3602 5.79198C33.5692 5.73498 33.4422 4.22198 33.4422 3.59198C33.4412 3.04698 33.5372 2.06398 32.8482 1.84198Z" fill="#CCCCCC"/>
<path d="M30.9851 1.78998H30.3461C30.2863 2.46715 30.161 3.13693 29.9721 3.78998C29.7858 4.50187 29.5042 5.18536 29.1351 5.82198H29.8531C30.1608 5.21933 30.4067 4.58712 30.5871 3.93498C30.7902 3.23486 30.9235 2.51636 30.9851 1.78998Z" fill="#E84C43"/>
<path d="M29.1181 1.78897L28.4781 1.79498C28.4182 2.46943 28.2933 3.13651 28.1051 3.78697C27.9197 4.49129 27.6424 5.16811 27.2802 5.79997L27.9911 5.80998C28.2962 5.21022 28.5404 4.58142 28.7201 3.93298C28.9232 3.2332 29.0565 2.51502 29.1181 1.78897Z" fill="#E84C43"/>
<path d="M32.8472 1.84199C32.7304 1.8059 32.6083 1.79 32.4862 1.79499C32.4292 1.79499 32.3342 1.79499 32.2112 1.79499C32.1512 2.46872 32.0267 3.13513 31.8392 3.785C31.653 4.49568 31.3721 5.17812 31.0042 5.81399L31.7272 5.80599C32.0312 5.20706 32.2747 4.57927 32.4541 3.93199C32.6519 3.24955 32.7836 2.54966 32.8472 1.84199Z" fill="#E84C43"/>
<path d="M11.4551 18.886H0.407104V19.364H11.4551V18.886Z" fill="#FBCB43"/>
<path d="M-0.00390625 17.492H0.640099V18.834H2.19509V19.415L0.00309753 19.365L-0.00390625 17.492Z" fill="#B2B2B2"/>
<path d="M6.1311 15.05C6.1311 15.711 6.1471 17.05 6.1611 18.065C6.16043 18.2402 6.19463 18.4138 6.26173 18.5756C6.32883 18.7375 6.42748 18.8843 6.55193 19.0077C6.67638 19.131 6.82413 19.2283 6.98658 19.294C7.14902 19.3596 7.32291 19.3922 7.4981 19.39C8.6111 19.398 10.1531 19.407 10.9881 19.407C11.9211 19.407 13.6741 19.385 14.7991 19.369C14.9318 19.3793 15.0652 19.3622 15.1911 19.3188C15.3169 19.2754 15.4325 19.2066 15.5307 19.1167C15.6288 19.0267 15.7075 18.9176 15.7618 18.7961C15.816 18.6745 15.8447 18.5431 15.8461 18.41V15.049C15.7764 13.8281 15.2263 12.6845 14.316 11.8679C13.4058 11.0514 12.2093 10.6282 10.9881 10.691C9.76687 10.6285 8.57055 11.0519 7.66048 11.8686C6.75042 12.6854 6.20058 13.8291 6.1311 15.05Z" fill="#6B6B6B"/>
<path d="M10.9881 18.81C13.3027 18.81 15.1791 17.1266 15.1791 15.05C15.1791 12.9734 13.3027 11.29 10.9881 11.29C8.67349 11.29 6.79712 12.9734 6.79712 15.05C6.79712 17.1266 8.67349 18.81 10.9881 18.81Z" fill="#FBCB43"/>
<path d="M10.9881 17.202C12.313 17.202 13.3871 16.2385 13.3871 15.05C13.3871 13.8615 12.313 12.898 10.9881 12.898C9.66318 12.898 8.58911 13.8615 8.58911 15.05C8.58911 16.2385 9.66318 17.202 10.9881 17.202Z" fill="#6B6B6B"/>
<path d="M10.9891 17.788C11.5178 17.7304 12.0186 17.5209 12.4308 17.1848C12.843 16.8487 13.149 16.4004 13.3119 15.8941C13.4747 15.3878 13.4874 14.8451 13.3485 14.3318C13.2095 13.8184 12.9248 13.3563 12.5287 13.0012C12.1327 12.6462 11.6423 12.4135 11.1168 12.3313C10.5914 12.249 10.0533 12.3207 9.56776 12.5378C9.0822 12.7548 8.66989 13.1078 8.38068 13.5542C8.09148 14.0005 7.93776 14.5211 7.93811 15.053C7.98329 15.819 8.32925 16.5363 8.90066 17.0485C9.47207 17.5607 10.2227 17.8265 10.9891 17.788ZM10.9891 12.474C11.4871 12.5281 11.9588 12.7253 12.3471 13.0417C12.7355 13.3582 13.0238 13.7803 13.1773 14.2572C13.3309 14.734 13.343 15.2451 13.2122 15.7287C13.0814 16.2123 12.8134 16.6476 12.4405 16.9821C12.0676 17.3166 11.6058 17.5359 11.1109 17.6135C10.616 17.6911 10.1092 17.6237 9.65181 17.4195C9.1944 17.2152 8.80596 16.8828 8.53342 16.4625C8.26089 16.0422 8.11595 15.5519 8.11611 15.051C8.15821 14.3292 8.48375 13.6533 9.02185 13.1705C9.55995 12.6876 10.267 12.4369 10.9891 12.473V12.474Z" fill="white"/>
<path d="M6.39713 12.569C7.07423 11.6191 8.07246 10.9467 9.20712 10.676C9.31891 10.8429 9.41181 11.0216 9.48412 11.209C8.52895 11.4345 7.67836 11.977 7.07113 12.748C6.49212 13.6631 6.23032 14.7433 6.32612 15.822C6.13875 15.8349 5.95085 15.8059 5.77612 15.737C5.59259 14.6406 5.81326 13.5149 6.39713 12.569Z" fill="#FBCB43"/>
<path d="M6.84208 12.609C7.49939 11.8117 8.38233 11.2317 9.37508 10.945C9.65308 11.445 9.65608 11.9 9.35308 12.051C8.35308 12.551 7.19808 12.851 7.13108 15.08C7.12015 15.1971 7.08477 15.3107 7.02723 15.4133C6.96969 15.5159 6.89127 15.6052 6.79702 15.6756C6.70278 15.746 6.59481 15.7959 6.4801 15.822C6.3654 15.848 6.24649 15.8497 6.13108 15.827C5.98724 14.7043 6.23862 13.5666 6.84208 12.609Z" fill="#F5B400"/>
<path d="M11.1291 14.077H9.14514V14.555H11.1291V14.077Z" fill="#E84C43"/>
<path d="M11.9891 14.941H9.14514V15.937H11.9891V14.941Z" fill="#B2B2B2"/>
</svg>
