<svg width="20" height="22" viewBox="0 0 20 22" fill="none" xmlns="http://www.w3.org/2000/svg">
<path d="M13.924 21H5.07697C1.84997 21 -2.94545e-05 19.148 -2.94545e-05 15.918V5.07201C-0.0363147 4.39172 0.0630247 3.71101 0.292211 3.06946C0.521397 2.42791 0.875856 1.83833 1.33497 1.33501C1.8392 0.875749 2.42965 0.521236 3.07202 0.292061C3.7144 0.0628854 4.39591 -0.036385 5.07697 1.39e-05H13.924C17.15 1.39e-05 19 1.84901 19 5.07201V15.918C19.0434 16.6011 18.9494 17.286 18.7235 17.9322C18.4977 18.5784 18.1445 19.1727 17.685 19.68C17.1788 20.1413 16.5849 20.4959 15.9388 20.7227C15.2926 20.9494 14.6074 21.0438 13.924 21ZM5.27597 14.423C5.06066 14.4279 4.8557 14.5164 4.70439 14.6696C4.55307 14.8229 4.46724 15.0289 4.46504 15.2443C4.46283 15.4596 4.54441 15.6674 4.69256 15.8237C4.8407 15.9801 5.04381 16.0727 5.25897 16.082C5.29242 16.0819 5.32583 16.0796 5.35897 16.075H13.635C13.8379 16.0526 14.0254 15.9562 14.1616 15.8041C14.2977 15.6521 14.3731 15.4551 14.3731 15.251C14.3731 15.0469 14.2977 14.8499 14.1616 14.6979C14.0254 14.5459 13.8379 14.4494 13.635 14.427H5.36197C5.33339 14.4242 5.30469 14.4229 5.27597 14.423ZM5.36197 9.63801C5.14463 9.63801 4.93618 9.72435 4.7825 9.87804C4.62881 10.0317 4.54247 10.2402 4.54247 10.4575C4.54247 10.6749 4.62881 10.8833 4.7825 11.037C4.93618 11.1907 5.14463 11.277 5.36197 11.277H13.638C13.8553 11.277 14.0638 11.1907 14.2174 11.037C14.3711 10.8833 14.4575 10.6749 14.4575 10.4575C14.4575 10.2402 14.3711 10.0317 14.2174 9.87804C14.0638 9.72435 13.8553 9.63801 13.638 9.63801H5.36197ZM5.36197 4.88301V4.89301C5.14489 4.89301 4.9367 4.97925 4.7832 5.13275C4.6297 5.28625 4.54347 5.49443 4.54347 5.71151C4.54347 5.92859 4.6297 6.13678 4.7832 6.29028C4.9367 6.44378 5.14489 6.53001 5.36197 6.53001H8.51797C8.73651 6.53001 8.9461 6.4432 9.10063 6.28867C9.25516 6.13414 9.34197 5.92455 9.34197 5.70601C9.34197 5.48748 9.25516 5.27789 9.10063 5.12336C8.9461 4.96883 8.73651 4.88201 8.51797 4.88201L5.36197 4.88301Z" fill="#FD5E29"/>
</svg>
