<svg width="65" height="72" viewBox="0 0 65 72" fill="none" xmlns="http://www.w3.org/2000/svg">
<path d="M19.364 57.183C15.814 57.183 12.942 60.348 12.942 64.216C12.942 68.084 15.814 71.249 19.364 71.249C22.914 71.249 25.819 68.084 25.819 64.216C25.819 60.348 22.914 57.183 19.364 57.183ZM0 0.916016V7.94902H6.455L18.073 34.641L13.716 43.257C13.1787 44.3008 12.9018 45.4591 12.909 46.633C12.909 50.501 15.809 53.666 19.364 53.666H58.093V46.633H20.72C20.609 46.6292 20.4999 46.6033 20.399 46.5569C20.2981 46.5104 20.2075 46.4444 20.1324 46.3626C20.0572 46.2808 19.9992 46.1848 19.9615 46.0803C19.9239 45.9759 19.9074 45.8649 19.913 45.754L20.013 45.332L22.913 39.6H46.958C48.1434 39.5824 49.3003 39.2339 50.2982 38.594C51.2961 37.954 52.0954 37.048 52.606 35.978L64.16 13.154C64.4214 12.6301 64.554 12.0514 64.547 11.466C64.5812 10.5728 64.2614 9.70222 63.6571 9.04359C63.0528 8.38497 62.2128 7.99159 61.32 7.94902H16.375L18.78 14.349H56.705L46.958 32.116H24.425L10.554 0.916016H0ZM51.638 57.183C48.088 57.183 45.216 60.348 45.216 64.216C45.216 68.084 48.088 71.249 51.638 71.249C55.188 71.249 58.093 68.084 58.093 64.216C58.093 60.348 55.188 57.183 51.638 57.183Z" fill="#F7A78C"/>
</svg>
