<svg width="21" height="19" viewBox="0 0 21 19" fill="none" xmlns="http://www.w3.org/2000/svg">
<path d="M10.074 17.773C4.49004 17.058 0.342041 12.767 0.342041 7.71201V3.43001C1.21585 3.47504 2.07196 3.17235 2.72328 2.58811C3.37461 2.00386 3.7682 1.18556 3.81804 0.312012H16.33C16.3799 1.18556 16.7735 2.00386 17.4248 2.58811C18.0761 3.17235 18.9322 3.47504 19.806 3.43001V7.71201C19.806 12.772 15.658 17.063 10.074 17.778V17.773Z" fill="#838EB1"/>
<path d="M3.80811 0.770012C5.05311 0.770012 5.75411 1.10601 7.00111 1.10601C8.24811 1.10601 8.24711 0.312012 9.49411 0.312012C10.7411 0.312012 10.7411 1.10601 11.9881 1.10601C13.2351 1.10601 12.7881 0.447012 14.0161 0.658012C14.0354 1.14688 14.1459 1.62782 14.3421 2.07601C14.5221 2.46401 15.5081 2.37601 15.8371 2.67601C16.1661 2.97601 16.0711 3.85101 16.5041 4.01201C16.9211 4.16801 17.4401 3.94601 17.9221 3.94601C18.1411 4.38301 17.5891 4.36401 17.5891 4.84601C17.5891 5.32801 18.4761 5.80301 18.4761 6.28001C18.4761 6.75701 17.5891 6.75901 17.5891 7.23801C17.5891 7.71701 18.2381 8.13801 18.2381 8.62001C18.2381 9.64701 17.4381 9.63001 17.1381 10.575C16.8211 11.548 17.1521 12.791 16.5531 13.631C15.9541 14.471 14.5531 14.731 13.7031 15.396C12.7551 16.2015 11.7144 16.8911 10.6031 17.45L10.0511 17.781C15.7011 16.862 19.8071 13.1 19.8071 7.32201V3.43001C18.8921 3.45042 18.0017 3.13204 17.3071 2.53601C16.984 2.26134 16.7231 1.92086 16.5421 1.53734C16.361 1.15382 16.2638 0.736076 16.2571 0.312012H3.83411L3.80811 0.770012Z" fill="#617093"/>
<path d="M10.0732 15.902C5.64625 15.183 2.42725 11.721 2.42725 7.68301V4.67701C3.12608 4.71276 3.81067 4.47056 4.33153 4.00328C4.8524 3.536 5.16722 2.88162 5.20725 2.18301H14.9392C14.9793 2.88162 15.2941 3.536 15.815 4.00328C16.3358 4.47056 17.0204 4.71276 17.7192 4.67701V7.68301C17.7192 11.72 14.5002 15.183 10.0732 15.901V15.902Z" fill="#D7E6F9"/>
<path d="M5.18311 2.54201C6.15911 2.54201 6.70911 2.80601 7.68311 2.80601C8.65711 2.80601 8.6621 2.18301 9.6391 2.18301C10.6161 2.18301 10.6161 2.80701 11.5941 2.80701C12.5721 2.80701 12.2241 2.28901 13.1841 2.45501C13.1989 2.83932 13.2854 3.21747 13.4391 3.57001C13.5801 3.87001 14.3531 3.80901 14.6091 4.03801C14.8651 4.26701 14.7921 4.96101 15.1321 5.08801C15.4721 5.21501 15.8661 5.03601 16.2441 5.03601C16.4161 5.37901 15.9831 5.36501 15.9831 5.73601C15.9831 6.10701 16.6831 6.48801 16.6831 6.86301C16.6831 7.23801 15.9831 7.23901 15.9831 7.61501C15.9831 7.99101 16.4911 8.32501 16.4911 8.70101C16.4911 9.50801 15.8681 9.49401 15.6261 10.237C15.3781 11.002 15.6371 11.978 15.1681 12.637C14.6991 13.296 13.5971 13.503 12.9361 14.024C12.1936 14.6564 11.3786 15.1982 10.5081 15.638L10.0731 15.899C14.5011 15.177 17.7191 11.718 17.7191 7.68101V4.67701C17.0203 4.71276 16.3357 4.47056 15.8148 4.00328C15.294 3.536 14.9791 2.88162 14.9391 2.18301H5.20711L5.18311 2.54201Z" fill="#CCD3DD"/>
<path d="M14.5922 7.483H11.4642V4.677H8.68418V7.483H5.55518V9.977H8.68318V12.783H11.4632V9.977H14.5912L14.5922 7.483Z" fill="#F95555"/>
<path d="M10.0731 18.085C10.0568 18.0861 10.0405 18.0861 10.0241 18.085C4.28114 17.324 0.0181406 12.914 -0.00585938 7.70701V3.43001C-0.000953191 3.34253 0.038432 3.26057 0.103664 3.20209C0.168896 3.14361 0.254653 3.11337 0.342141 3.11801C1.1282 3.15733 1.89796 2.88452 2.48381 2.35897C3.06967 1.83342 3.42418 1.0977 3.47014 0.312007C3.47505 0.224716 3.5143 0.142913 3.57931 0.0844578C3.64432 0.0260024 3.72982 -0.00435746 3.81714 6.6403e-06H16.3291C16.4166 -0.00463046 16.5024 0.0256064 16.5676 0.0840902C16.6328 0.142574 16.6722 0.224534 16.6771 0.312007C16.7231 1.0977 17.0776 1.83342 17.6635 2.35897C18.2493 2.88452 19.0191 3.15733 19.8051 3.11801C19.8926 3.11337 19.9784 3.14361 20.0436 3.20209C20.1088 3.26057 20.1482 3.34253 20.1531 3.43001V7.70701C20.1291 12.914 15.8661 17.323 10.1241 18.081C10.1075 18.0821 10.0908 18.0821 10.0741 18.081L10.0731 18.085ZM0.694141 3.72801V7.70801C0.717141 12.589 4.69914 16.727 10.0781 17.459C15.4571 16.727 19.4391 12.589 19.4621 7.70801V3.72801C18.6132 3.69511 17.8023 3.36708 17.1692 2.80047C16.5362 2.23385 16.1206 1.46414 15.9941 0.624007H4.14914C4.02211 1.46211 3.60734 2.22987 2.97599 2.79553C2.34465 3.36118 1.53611 3.68945 0.689141 3.72401L0.694141 3.72801Z" fill="#1B3254"/>
<path d="M10.0731 16.214C10.0523 16.2141 10.0316 16.2124 10.0111 16.209C5.4171 15.461 2.0791 11.871 2.0791 7.68401V4.67701C2.08401 4.58954 2.12339 4.50758 2.18862 4.44909C2.25386 4.39061 2.33961 4.36037 2.4271 4.36501C3.03825 4.39533 3.63664 4.18308 4.09209 3.77444C4.54755 3.36581 4.82321 2.79385 4.8591 2.18301C4.86401 2.09554 4.90339 2.01358 4.96863 1.95509C5.03386 1.89661 5.11961 1.86637 5.2071 1.87101H14.9391C15.0266 1.86637 15.1123 1.89661 15.1776 1.95509C15.2428 2.01358 15.2822 2.09554 15.2871 2.18301C15.3227 2.79421 15.5984 3.36658 16.0541 3.77546C16.5098 4.18433 17.1086 4.39659 17.7201 4.36601C17.8076 4.36137 17.8933 4.39161 17.9586 4.45009C18.0238 4.50858 18.0632 4.59054 18.0681 4.67801V7.68401C18.0681 11.872 14.7311 15.462 10.1371 16.209C10.1159 16.2125 10.0945 16.2142 10.0731 16.214ZM2.7791 4.97101V7.68401C2.7791 11.549 5.8441 14.868 10.0791 15.584C14.3131 14.867 17.3791 11.548 17.3791 7.68401V4.97101C16.7073 4.92961 16.0691 4.66258 15.568 4.21319C15.0669 3.7638 14.7322 3.15838 14.6181 2.49501H5.5351C5.42125 3.15759 5.08727 3.76241 4.58717 4.21171C4.08706 4.66101 3.45005 4.92852 2.7791 4.97101Z" fill="#1B3254"/>
<path d="M11.4631 12.784V9.977H14.5911V7.483H11.4631V4.677H9.75408C9.48008 5.069 9.59808 5.345 9.89308 5.677C10.1521 5.969 10.8351 6.256 10.6481 6.716C10.5161 7.041 10.0571 7.016 9.81608 7.238C9.51608 7.519 9.67508 7.921 9.93208 8.173C10.2381 8.473 10.4621 8.388 10.8411 8.504C10.9013 8.52973 10.9543 8.56963 10.9958 8.6203C11.0372 8.67097 11.0658 8.7309 11.0791 8.795C11.0901 8.85806 11.0848 8.92289 11.0636 8.9833C11.0424 9.0437 11.0061 9.09766 10.9581 9.14C10.6261 9.391 9.55308 9.33 9.87608 9.946C10.0631 10.303 10.6911 10.035 10.7761 10.446C10.8611 10.857 10.3311 11.075 10.1901 11.413C10.0611 11.725 10.2991 11.961 10.4361 12.226C10.4932 12.305 10.533 12.3952 10.5528 12.4907C10.5726 12.5862 10.572 12.6848 10.5511 12.78L11.4631 12.784Z" fill="#D81D1D"/>
<path d="M11.3652 12.785H8.7822C8.70098 12.7891 8.62144 12.7609 8.56093 12.7066C8.50042 12.6523 8.46385 12.5762 8.4592 12.495V10.176H5.8772C5.79598 10.1801 5.71644 10.1519 5.65593 10.0976C5.59542 10.0433 5.55885 9.96721 5.5542 9.88602V7.57602C5.55885 7.49483 5.59542 7.41878 5.65593 7.36445C5.71644 7.31012 5.79598 7.28193 5.8772 7.28602H8.4602V4.96602C8.46485 4.88483 8.50142 4.80878 8.56193 4.75445C8.62244 4.70012 8.70198 4.67193 8.7832 4.67602H11.3662C11.4474 4.67193 11.527 4.70012 11.5875 4.75445C11.648 4.80878 11.6845 4.88483 11.6892 4.96602V7.28302H14.2722C14.3534 7.27893 14.433 7.30712 14.4935 7.36145C14.554 7.41578 14.5906 7.49183 14.5952 7.57302V9.89002C14.5906 9.97121 14.554 10.0473 14.4935 10.1016C14.433 10.1559 14.3534 10.1841 14.2722 10.18H11.6882V12.496C11.6833 12.577 11.6466 12.6528 11.5861 12.7069C11.5257 12.7611 11.4463 12.7891 11.3652 12.785ZM9.1052 12.206H11.0422V9.88902C11.0468 9.80783 11.0834 9.73178 11.1439 9.67745C11.2044 9.62312 11.284 9.59493 11.3652 9.59902H13.9482V7.86202H11.3652C11.284 7.86611 11.2044 7.83792 11.1439 7.78359C11.0834 7.72926 11.0468 7.65321 11.0422 7.57202V5.25502H9.1052V7.57602C9.10055 7.65721 9.06398 7.73326 9.00347 7.78759C8.94296 7.84192 8.86342 7.87011 8.7822 7.86602H6.2002V9.60402H8.7832C8.86442 9.59993 8.94396 9.62812 9.00447 9.68245C9.06498 9.73678 9.10155 9.81283 9.1062 9.89402L9.1052 12.206Z" fill="#1B3254"/>
</svg>
