<svg width="78" height="71" viewBox="0 0 78 71" fill="none" xmlns="http://www.w3.org/2000/svg">
<path d="M38.6005 70.4837L33.1717 65.5791L33.0198 65.4411C13.2871 47.5094 0.250977 35.663 0.250977 21.2201C0.250977 15.5369 2.41148 10.2465 6.33448 6.32349C10.2575 2.40048 15.5478 0.23999 21.231 0.23999C27.7336 0.23999 34.1559 3.22299 38.4108 8.2195L38.6011 8.44302L38.7914 8.2195C43.0463 3.22299 49.4686 0.23999 55.9712 0.23999C61.6544 0.23999 66.9447 2.40048 70.8677 6.32349C74.7907 10.2465 76.9512 15.5369 76.9512 21.2201C76.9512 35.6881 63.874 47.5465 44.0792 65.4964L44.0302 65.5408L38.6005 70.4837ZM38.0426 60.1943L38.4243 60.576L38.6011 60.7528L38.7779 60.576L39.1595 60.1944C57.57 43.5244 69.7312 32.5121 69.7312 21.2201C69.7312 13.3756 63.8157 7.46002 55.9712 7.46002C49.9123 7.46002 44.0348 11.359 41.9958 16.7309L41.9945 16.7344L41.9933 16.7378C41.9913 16.7435 41.7734 17.3547 41.2423 17.9536C40.5438 18.7413 39.6552 19.1407 38.6011 19.1407C36.0731 19.1407 35.2565 16.765 35.2486 16.741L35.2467 16.7352L35.2444 16.7294C33.1666 11.3584 27.2731 7.46002 21.231 7.46002C13.3865 7.46002 7.47101 13.3756 7.47101 21.2201C7.47101 32.5121 19.6322 43.5243 38.0426 60.1943Z" fill="#F7A78C"/>
<path d="M21.231 0.48999C15.6146 0.48999 10.387 2.62448 6.51125 6.50026C2.63547 10.376 0.500977 15.6036 0.500977 21.2201C0.500977 35.5524 13.5046 47.3692 33.188 65.2561L33.3393 65.3936L38.5998 70.1462L43.9113 65.3112C63.6567 47.4061 76.7012 35.5774 76.7012 21.2201C76.7012 15.6036 74.5667 10.376 70.691 6.50026C66.8152 2.62448 61.5876 0.48999 55.9712 0.48999C49.5409 0.48999 43.1897 3.44012 38.9818 8.38159L38.6011 8.82862L38.2204 8.38159C34.0125 3.44012 27.6613 0.48999 21.231 0.48999ZM38.6011 18.8907C40.9378 18.8907 41.7253 16.7456 41.7571 16.656L41.7621 16.6422C43.8365 11.1768 49.8123 7.21001 55.9712 7.21001C63.9582 7.21001 69.9812 13.233 69.9812 21.2201C69.9812 32.6216 57.788 43.6642 39.3318 60.3756L38.6011 61.1063L37.8703 60.3755C19.4141 43.6641 7.22099 32.6216 7.22099 21.2201C7.22099 13.233 13.244 7.21001 21.231 7.21001C27.3724 7.21001 33.3639 11.1756 35.4776 16.6392L35.4859 16.6624C35.4933 16.6846 36.2515 18.8907 38.6011 18.8907ZM21.231 -0.0100098C27.9475 -0.0100098 34.3937 3.1166 38.6011 8.05742C42.8085 3.1166 49.2547 -0.0100098 55.9712 -0.0100098C67.86 -0.0100098 77.2012 9.33122 77.2012 21.2201C77.2012 35.8109 64.0772 47.6997 44.1981 65.726L38.6011 70.8212L33.0041 65.7646C13.125 47.6997 0.000976562 35.8109 0.000976562 21.2201C0.000976562 9.33122 9.3422 -0.0100098 21.231 -0.0100098ZM38.6011 19.3907C35.8633 19.3907 35.0113 16.8196 35.0113 16.8196C32.9655 11.5314 27.1755 7.71001 21.231 7.71001C13.511 7.71001 7.72099 13.5 7.72099 21.2201C7.72099 32.3755 19.8414 43.3765 38.2151 60.0132L38.6011 60.3992L38.9871 60.0132C57.3608 43.3765 69.4812 32.3755 69.4812 21.2201C69.4812 13.5 63.6912 7.71001 55.9712 7.71001C50.0267 7.71001 44.2367 11.5314 42.2295 16.8196C42.2295 16.8196 41.3389 19.3907 38.6011 19.3907Z" fill="#F2F2F2"/>
<path d="M55.439 16.338C57.2291 16.9168 58.8076 18.0131 59.9751 19.4884C61.1427 20.9636 61.8469 22.7518 61.999 24.627" stroke="#F7A78C" stroke-width="6" stroke-miterlimit="10" stroke-linecap="round" stroke-linejoin="round"/>
</svg>
