<svg width="23" height="19" viewBox="0 0 23 19" fill="none" xmlns="http://www.w3.org/2000/svg">
<path d="M20.0736 18.37C18.6906 17.134 20.1136 11.187 20.0736 10.835C20.3136 10.58 22.1686 9.05101 22.3506 8.90201C22.1506 8.71801 22.9176 8.50201 22.5506 8.17201C22.4884 8.11483 22.4215 8.06298 22.3506 8.01701C18.8252 5.69901 15.3052 3.38568 11.7906 1.07701C11.6643 0.983018 11.511 0.932251 11.3536 0.932251C11.1961 0.932251 11.0429 0.983018 10.9166 1.07701C8.37056 2.75301 5.82223 4.42901 3.27156 6.10501C2.29256 6.74701 1.32056 7.38901 0.341563 8.03101C0.236777 8.08936 0.150497 8.17599 0.092562 8.28101C0.0417408 8.38675 0.0297194 8.50699 0.0586036 8.6207C0.0874877 8.73441 0.155435 8.83433 0.250559 8.903C0.966559 9.552 1.68956 10.194 2.41256 10.836C2.45468 10.87 2.4882 10.9134 2.51044 10.9627C2.53267 11.0121 2.54299 11.066 2.54056 11.12C2.54056 13.539 2.54056 15.952 2.53256 18.371C2.52988 18.4805 2.55227 18.5891 2.59803 18.6886C2.64379 18.7881 2.7117 18.8758 2.79656 18.945C3.19656 19.012 19.1356 18.968 19.4386 18.945C19.5396 19.03 20.0886 18.381 20.0736 18.37Z" fill="#99D0D2"/>
<path d="M22.3516 8.02901L11.6406 0.993011C11.5372 0.926832 11.417 0.891663 11.2941 0.891663C11.1713 0.891663 11.0511 0.926832 10.9476 0.993011L0.236643 8.02702C0.175623 8.06339 0.12319 8.11251 0.0829259 8.17104C0.0426622 8.22957 0.0155227 8.29612 0.00336657 8.36611C-0.00878952 8.4361 -0.00567976 8.5079 0.0124913 8.57658C0.0306624 8.64525 0.0634641 8.70919 0.108645 8.76402C0.208779 8.87872 0.346905 8.95348 0.497698 8.9746C0.648491 8.99572 0.801846 8.96179 0.929644 8.87901L11.2946 2.06801L21.6596 8.868C21.7634 8.93385 21.8838 8.96856 22.0066 8.96801C22.0969 8.96966 22.1864 8.95112 22.2686 8.91375C22.3508 8.87638 22.4236 8.82112 22.4816 8.75201C22.5251 8.69766 22.5564 8.63466 22.5735 8.56722C22.5905 8.49979 22.593 8.42948 22.5807 8.36102C22.5684 8.29255 22.5416 8.22749 22.5021 8.17023C22.4626 8.11297 22.4113 8.06483 22.3516 8.02901Z" fill="#1B3254"/>
<path d="M19.5117 9.00201C19.364 8.99436 19.2192 9.04549 19.109 9.14423C18.9989 9.24298 18.9322 9.3813 18.9237 9.529V17.915H14.2307V14.991C14.1516 14.2672 13.808 13.5981 13.2659 13.112C12.7238 12.6259 12.0213 12.3571 11.2932 12.3571C10.5651 12.3571 9.86262 12.6259 9.32051 13.112C8.7784 13.5981 8.43484 14.2672 8.35571 14.991V17.915H3.65572V9.529C3.63989 9.38424 3.57117 9.25042 3.46275 9.15321C3.35433 9.05599 3.21383 9.00222 3.06821 9.00222C2.92258 9.00222 2.7821 9.05599 2.67368 9.15321C2.56525 9.25042 2.49654 9.38424 2.48071 9.529V18.442C2.48923 18.5897 2.55586 18.728 2.66603 18.8268C2.7762 18.9255 2.92096 18.9766 3.06871 18.969H8.93671C9.07765 18.9752 9.21587 18.9288 9.32452 18.8388C9.43318 18.7488 9.50452 18.6216 9.52472 18.482V14.99C9.57219 14.5557 9.77833 14.1543 10.1036 13.8626C10.4289 13.571 10.8503 13.4097 11.2872 13.4097C11.7241 13.4097 12.1456 13.571 12.4708 13.8626C12.7961 14.1543 13.0022 14.5557 13.0497 14.99V18.482C13.0699 18.6216 13.1413 18.7488 13.2499 18.8388C13.3586 18.9288 13.4968 18.9752 13.6377 18.969H19.5057C19.6535 18.9766 19.7982 18.9255 19.9084 18.8268C20.0186 18.728 20.0852 18.5897 20.0937 18.442V9.529C20.0915 9.45573 20.0745 9.38367 20.0437 9.31713C20.013 9.25059 19.9691 9.19095 19.9148 9.14175C19.8604 9.09255 19.7967 9.05481 19.7275 9.0308C19.6582 9.00679 19.5848 8.997 19.5117 9.00201Z" fill="#1B3254"/>
<path d="M10.6987 6.33401H9.03369V7.82701H10.6987V6.33401Z" fill="#1B3254"/>
<path d="M13.1848 6.33401H11.5198V7.82701H13.1848V6.33401Z" fill="#1B3254"/>
<path d="M10.6987 8.436H9.03369V9.929H10.6987V8.436Z" fill="#1B3254"/>
<path d="M13.1848 8.436H11.5198V9.929H13.1848V8.436Z" fill="#1B3254"/>
</svg>
