<svg width="19" height="19" viewBox="0 0 19 19" fill="none" xmlns="http://www.w3.org/2000/svg">
<path fill-rule="evenodd" clip-rule="evenodd" d="M4.40709 16.954C4.40709 17.519 5.66709 18.084 9.44709 18.084C13.2271 18.084 14.4871 17.519 14.4871 16.954V16.389H4.40709V16.954ZM0.627094 17.524C0.942094 17.524 2.51709 17.259 2.51709 16.959V15.824L-0.00390625 16.389C-0.00390625 16.389 0.312094 17.524 0.627094 17.524ZM16.3751 15.824V16.954C16.3751 17.254 17.9501 17.519 18.2651 17.519C18.5801 17.519 18.8951 16.389 18.8951 16.389L16.3751 15.824Z" fill="#638C3F"/>
<path d="M17.6361 4.52001C16.8311 3.90311 15.9895 3.33541 15.1161 2.82001H3.77707C2.9036 3.33541 2.06207 3.90311 1.25707 4.52001C0.62707 5.08601 -0.00292969 7.91101 -0.00292969 9.04101C-0.00292969 10.171 -0.00292969 15.826 -0.00292969 16.388C0.47707 16.388 2.51707 16.233 2.51707 15.823C2.61363 14.3024 2.82422 12.7911 3.14707 11.302C3.54707 9.41801 3.77707 9.60201 3.77707 9.60201V15.826C3.77707 16.391 5.03707 16.956 9.44607 16.956C13.8551 16.956 15.1151 16.391 15.1151 15.826C15.1151 15.543 15.1151 9.61001 15.1151 9.61001C15.1151 9.61001 15.3461 9.42201 15.7451 11.31C16.0679 12.7975 16.2788 14.307 16.3761 15.826C16.3761 16.236 18.4151 16.391 18.8961 16.391V9.04101C18.8971 7.91101 18.2661 5.08601 17.6361 4.52001Z" fill="#49682D"/>
<path fill-rule="evenodd" clip-rule="evenodd" d="M8.18713 3.391C8.02877 3.38282 7.87361 3.43765 7.75556 3.54352C7.63751 3.64939 7.56617 3.79769 7.55713 3.956V6.781C7.57461 6.93585 7.6485 7.07884 7.76471 7.18267C7.88092 7.2865 8.03129 7.3439 8.18713 7.3439C8.34297 7.3439 8.49334 7.2865 8.60955 7.18267C8.72576 7.07884 8.79965 6.93585 8.81713 6.781V3.955C8.80784 3.79687 8.73639 3.64882 8.61836 3.54317C8.50034 3.43751 8.34533 3.38281 8.18713 3.391ZM10.7071 3.391C10.5488 3.38282 10.3936 3.43765 10.2756 3.54352C10.1575 3.64939 10.0862 3.79769 10.0771 3.956V6.217C10.0946 6.37185 10.1685 6.51484 10.2847 6.61867C10.4009 6.7225 10.5513 6.7799 10.7071 6.7799C10.863 6.7799 11.0133 6.7225 11.1295 6.61867C11.2458 6.51484 11.3197 6.37185 11.3371 6.217V3.955C11.3278 3.79687 11.2564 3.64882 11.1384 3.54317C11.0203 3.43751 10.8653 3.38281 10.7071 3.391Z" fill="#E6E6E6"/>
<path fill-rule="evenodd" clip-rule="evenodd" d="M13.8561 11.868C13.6201 11.868 13.2261 12.204 13.2261 12.433C13.2261 12.704 14.3681 15.259 15.1161 15.259V13.568C14.7421 13.568 14.1251 11.868 13.8561 11.868ZM5.0371 11.868C4.7681 11.868 4.1511 13.568 3.7771 13.568V15.268C4.5251 15.268 5.6671 12.713 5.6671 12.442C5.6671 12.204 5.2761 11.868 5.0371 11.868Z" fill="#75A64B"/>
<path d="M10.707 0H8.18702C8.18702 0 5.66602 0.858 5.66602 1.7C5.66602 2.826 8.81602 4.525 8.81602 4.525C8.81602 4.525 8.93402 5.656 9.44602 5.656C9.95802 5.656 10.076 4.525 10.076 4.525C10.076 4.525 13.226 2.825 13.226 1.7C13.226 0.858 10.707 0 10.707 0Z" fill="#517334"/>
<path fill-rule="evenodd" clip-rule="evenodd" d="M8.18712 0C6.29712 0 3.77612 1.779 3.77612 2.825C5.25871 3.86253 7.00801 4.45257 8.81612 4.525C8.81612 4.525 6.92612 2.752 6.92612 1.7C6.92712 0.939 8.18712 0 8.18712 0ZM15.1161 2.825C15.1161 1.779 12.5961 0 10.7061 0C10.7061 0 11.9661 0.939 11.9661 1.7C11.9661 2.753 10.0761 4.525 10.0761 4.525C11.8842 4.45257 13.6335 3.86253 15.1161 2.825Z" fill="#75A64B"/>
</svg>
