<svg width="23" height="23" viewBox="0 0 23 23" fill="none" xmlns="http://www.w3.org/2000/svg">
<path d="M11.043 20C17.1419 20 22.086 15.5228 22.086 10C22.086 4.47715 17.1419 0 11.043 0C4.94412 0 0 4.47715 0 10C0 15.5228 4.94412 20 11.043 20Z" fill="#FFF59D"/>
<path d="M18.527 9.94099C18.527 6.02799 14.821 2.92699 10.386 3.38499C8.8153 3.49155 7.32718 4.12761 6.16473 5.18926C5.00227 6.25091 4.2342 7.67539 3.98599 9.22999C3.85911 10.3312 4.03216 11.4462 4.48684 12.4571C4.94151 13.468 5.66092 14.3373 6.56899 14.973C6.95748 15.2529 7.27611 15.6187 7.50004 16.0419C7.72397 16.4651 7.84715 16.9343 7.85998 17.413V17.565H14.597V17.514C14.6046 17.0403 14.7197 16.5745 14.9336 16.1518C15.1476 15.7291 15.4547 15.3606 15.832 15.074C16.6521 14.4895 17.3233 13.7204 17.7915 12.8288C18.2596 11.9372 18.5116 10.9479 18.527 9.94099Z" fill="#FBC02D"/>
<path d="M14.934 9.02599L13.254 8.00899C13.1587 7.95889 13.0526 7.93271 12.945 7.93271C12.8373 7.93271 12.7313 7.95889 12.636 8.00899L11.236 8.82199L9.88899 8.00899C9.7937 7.95889 9.68765 7.93271 9.57999 7.93271C9.47233 7.93271 9.36628 7.95889 9.27099 8.00899L7.58699 9.02499C7.52688 9.0655 7.47588 9.11811 7.43727 9.17946C7.39865 9.24081 7.37326 9.30954 7.36272 9.38125C7.35217 9.45297 7.35672 9.5261 7.37605 9.59597C7.39538 9.66583 7.42908 9.73089 7.47499 9.78699L9.60899 12.176V17.563H10.732V11.974C10.7192 11.8665 10.6808 11.7636 10.62 11.674L8.75399 9.58299L9.59599 9.07499L10.943 9.88799C11.0383 9.93809 11.1443 9.96427 11.252 9.96427C11.3596 9.96427 11.4657 9.93809 11.561 9.88799L12.908 9.07499L13.75 9.58299L11.897 11.667C11.8362 11.7566 11.7978 11.8595 11.785 11.967V17.558H12.908V12.177L15.042 9.78799C15.0995 9.73981 15.1411 9.67526 15.1611 9.60293C15.1811 9.5306 15.1786 9.45389 15.154 9.38299C15.102 9.22899 15.046 9.07699 14.934 9.02599Z" fill="#FFF59D"/>
<path d="M11.044 23C12.264 23 13.253 22.3284 13.253 21.5C13.253 20.6716 12.264 20 11.044 20C9.82396 20 8.83496 20.6716 8.83496 21.5C8.83496 22.3284 9.82396 23 11.044 23Z" fill="#5C6BC0"/>
<path d="M12.3509 21.63H10.1049C9.53826 21.6551 8.9846 21.4557 8.5641 21.0751C8.1436 20.6944 7.89019 20.1633 7.85889 19.597V17.056H14.5959V19.597C14.5646 20.1631 14.3113 20.6941 13.891 21.0747C13.4707 21.4553 12.9173 21.6548 12.3509 21.63Z" fill="#9FA8DA"/>
<path d="M14.597 19.597L8.08398 20.41C8.28115 20.8014 8.59585 21.1214 8.98398 21.325L14.262 20.664C14.4873 20.3545 14.605 19.9797 14.597 19.597Z" fill="#5C6BC0"/>
<path d="M7.85889 18.428V19.444L14.5959 18.58V17.564L7.85889 18.428Z" fill="#5C6BC0"/>
</svg>
