<svg width="22" height="22" viewBox="0 0 22 22" fill="none" xmlns="http://www.w3.org/2000/svg">
<path d="M10.9998 22C8.45502 21.9994 5.98917 21.1165 4.02236 19.5017C2.05556 17.8869 0.709471 15.6401 0.213445 13.1441C-0.28258 10.6481 0.10214 8.05739 1.30206 5.81326C2.50198 3.56913 4.44287 1.81046 6.79405 0.836868C9.14523 -0.136722 11.7612 -0.264995 14.1964 0.473903C16.6315 1.2128 18.7352 2.77316 20.1489 4.88913C21.5626 7.0051 22.1989 9.54578 21.9495 12.0783C21.7 14.6108 20.5802 16.9785 18.7808 18.778C16.7165 20.8405 13.9179 21.9994 10.9998 22ZM10.9998 14.224C10.7463 14.2243 10.5031 14.325 10.3238 14.5042C10.1444 14.6834 10.0433 14.9264 10.0428 15.18C10.0414 15.371 10.0969 15.5581 10.2021 15.7175C10.3073 15.8769 10.4576 16.0015 10.6338 16.0752C10.81 16.149 11.0041 16.1687 11.1916 16.1319C11.379 16.095 11.5512 16.0033 11.6864 15.8683C11.8215 15.7333 11.9134 15.5611 11.9505 15.3738C11.9875 15.1864 11.968 14.9922 11.8944 14.8159C11.8208 14.6397 11.6965 14.4893 11.5372 14.3839C11.3779 14.2785 11.1908 14.2228 10.9998 14.224ZM10.9998 5.862C10.7441 5.86537 10.4999 5.96844 10.3191 6.14925C10.1382 6.33006 10.0352 6.57432 10.0318 6.83V11.692C10.0318 11.9474 10.1333 12.1923 10.3139 12.3729C10.4945 12.5535 10.7394 12.655 10.9948 12.655C11.2502 12.655 11.4952 12.5535 11.6758 12.3729C11.8563 12.1923 11.9578 11.9474 11.9578 11.692V6.831C11.9589 6.57568 11.8586 6.33036 11.679 6.14888C11.4994 5.9674 11.2551 5.86459 10.9998 5.863V5.862Z" fill="#FD5E29"/>
</svg>
