<svg width="25" height="22" viewBox="0 0 25 22" fill="none" xmlns="http://www.w3.org/2000/svg">
<path d="M24.1649 12.751L24.2649 9.92203L22.3519 9.86697C22.2368 9.2838 22.0571 8.71534 21.8159 8.17203L23.5689 7.30899L22.0519 4.82706L20.1879 5.74503C19.7816 5.31687 19.3355 4.92812 18.8559 4.58401L19.9689 2.897L17.2539 1.45401L16.1049 3.19498C15.5375 3.01031 14.9554 2.87448 14.3649 2.78897V0.744049H12.9919V6.767C13.571 6.72922 14.1517 6.81063 14.6981 7.00626C15.2444 7.20189 15.7448 7.50755 16.1683 7.90433C16.5918 8.3011 16.9294 8.78055 17.1602 9.31302C17.391 9.84549 17.5101 10.4197 17.5101 11C17.5101 11.5804 17.391 12.1545 17.1602 12.6869C16.9294 13.2194 16.5918 13.6988 16.1683 14.0956C15.7448 14.4924 15.2444 14.7981 14.6981 14.9937C14.1517 15.1893 13.571 15.2708 12.9919 15.2331V21.257H14.3649V19.989C14.9494 19.9039 15.5257 19.7701 16.0879 19.589L16.7589 20.722L19.5449 19.393L18.8449 18.204C19.3607 17.8359 19.8381 17.4168 20.2699 16.953L21.5849 17.705L23.2849 15.318L21.8679 14.508C22.1175 13.9284 22.2971 13.3211 22.4029 12.699L24.1649 12.751Z" fill="#3E7CB0"/>
<path d="M22.999 15.1609C20.0136 15.8519 16.908 15.8359 13.9299 15.114C13.6218 15.1819 13.3082 15.222 12.9929 15.2339V21.259H14.366V19.991C14.9504 19.9059 15.5267 19.7721 16.0889 19.591L16.7609 20.7241L19.5469 19.395L18.8469 18.206C19.3628 17.838 19.8402 17.4189 20.2719 16.955L21.5869 17.707L23.2869 15.32L22.999 15.1609Z" fill="#2F638E"/>
<path d="M12.9989 4.81805V6.76801C13.578 6.73022 14.1587 6.81163 14.705 7.00726C15.2514 7.20289 15.7518 7.50856 16.1753 7.90533C16.5988 8.30211 16.9364 8.78156 17.1672 9.31403C17.398 9.84649 17.517 10.4207 17.517 11.001C17.517 11.5814 17.398 12.1555 17.1672 12.6879C16.9364 13.2204 16.5988 13.6998 16.1753 14.0966C15.7518 14.4934 15.2514 14.7991 14.705 14.9947C14.1587 15.1903 13.578 15.2717 12.9989 15.2339V17.185C16.7139 17.085 19.6909 14.358 19.6909 11.002C19.6909 7.64601 16.7099 4.91605 12.9989 4.81805Z" fill="#244E79"/>
<path d="M12.1599 19.3581C12.6199 22.1341 5.43395 22.2201 4.82595 18.0191C1.86995 18.7621 -0.174045 16.2031 1.25795 13.9411C-0.457045 12.8911 -0.42407 9.82908 1.35793 8.91108C-0.00806963 7.60608 1.64891 3.95207 4.94991 4.60407C4.04991 1.66907 8.82095 -0.720966 12.1749 1.61603L12.1599 19.3581Z" fill="#F69789"/>
<path d="M12.166 13.74C10.921 13.373 9.23603 13.574 9.47903 14.777C9.6012 14.6199 9.75525 14.4905 9.93106 14.3973C10.1069 14.304 10.3004 14.249 10.499 14.236C10.6473 14.2571 10.7877 14.3163 10.9063 14.4078C11.025 14.4992 11.1179 14.6199 11.176 14.758C11.5241 15.5845 11.6373 16.4912 11.503 17.378C11.5244 17.8074 11.4373 18.2354 11.2498 18.6224C11.0623 19.0093 10.7804 19.3427 10.43 19.592C9.93154 19.8385 9.36507 19.9118 8.82028 19.8002C8.27549 19.6886 7.78348 19.3986 7.42203 18.976C7.23842 18.7647 7.1035 18.5156 7.02695 18.2464C6.95039 17.9771 6.93406 17.6943 6.97903 17.418C7.12103 16.687 7.81003 16.273 8.13803 15.628C8.53039 14.848 8.63042 13.9534 8.42001 13.106C8.37234 12.876 8.27402 12.6596 8.13217 12.4725C7.99032 12.2853 7.80851 12.132 7.6 12.024C7.34213 11.9396 7.06257 11.9505 6.81198 12.0545C6.56139 12.1585 6.35631 12.3488 6.23398 12.591C5.85898 13.261 6.574 13.942 6.319 14.651C6.14522 15.0926 5.81826 15.4568 5.39798 15.677C5.01598 15.89 3.578 16.3961 3.509 15.6081C3.52274 15.4013 3.5854 15.2007 3.6918 15.0229C3.7982 14.845 3.94529 14.6949 4.121 14.585C4.486 14.309 5.18302 14.008 5.29202 13.554C5.44502 12.919 4.443 12.4061 3.892 12.2441C3.35381 12.1322 2.82233 11.9903 2.30002 11.819C1.10002 11.319 1.51799 10.144 1.85599 9.25102C2.05514 8.63976 2.32814 8.05514 2.66897 7.51005C2.76897 7.36805 3.18903 6.62197 3.50003 6.78397C3.77903 6.92997 3.77601 7.46002 3.86001 7.70402C3.89701 7.8716 3.98023 8.02544 4.10025 8.14811C4.22027 8.27078 4.37229 8.35734 4.53903 8.39799C5.01267 8.40098 5.47482 8.25246 5.858 7.97404C6.08931 7.82649 6.34909 7.72925 6.62045 7.68876C6.89182 7.64827 7.1687 7.66545 7.43301 7.73905C7.63818 7.78066 7.85065 7.76786 8.04935 7.70194C8.24804 7.63602 8.42603 7.51919 8.56564 7.3632C8.70525 7.20721 8.80161 7.01742 8.84518 6.81266C8.88875 6.6079 8.87801 6.39528 8.81399 6.19596C8.42299 5.21996 7.18301 4.75501 6.67001 3.84501C6.11501 2.85901 7.27 1.927 8.285 1.705C8.97544 1.58776 9.68329 1.62502 10.3576 1.814C11.032 2.00299 11.6561 2.33903 12.185 2.79801V1.61906C8.83103 -0.718942 4.05799 1.67197 4.95999 4.60697C1.65999 3.95597 0.00200939 7.60698 1.36801 8.91398C-0.417991 9.83098 -0.450966 12.894 1.26803 13.944C-0.161966 16.206 1.88103 18.765 4.83603 18.022C5.44403 22.222 12.629 22.137 12.17 19.361L12.166 13.74Z" fill="#EC8A7E"/>
<path d="M5.13989 4.73798C5.31103 5.30069 5.67449 5.78534 6.16675 6.10724C6.65901 6.42914 7.24876 6.5678 7.83289 6.49896" stroke="#E17975" stroke-width="0.68" stroke-miterlimit="10" stroke-linecap="round" stroke-linejoin="round"/>
<path d="M7.8348 2.97501C7.4968 4.92101 10.4568 5.49095 11.7288 4.54495" stroke="#E17975" stroke-width="0.68" stroke-miterlimit="10" stroke-linecap="round" stroke-linejoin="round"/>
<path d="M6.08887 6.05396C6.08887 7.02396 4.98889 7.40403 4.41589 7.60803" stroke="#E17975" stroke-width="0.68" stroke-miterlimit="10" stroke-linecap="round" stroke-linejoin="round"/>
<path d="M3.76379 9.82597C4.66379 10.233 4.68082 11.403 5.65082 11.662C6.66782 11.934 7.2218 10.926 7.6308 10.226C7.90059 9.71827 8.3311 9.31434 8.85492 9.07731C9.37874 8.84028 9.96634 8.78346 10.5258 8.91593C10.9006 9.00926 11.2581 9.16188 11.5848 9.36796" stroke="#E17975" stroke-width="0.68" stroke-miterlimit="10" stroke-linecap="round" stroke-linejoin="round"/>
<path d="M2.74292 9.76007C3.44292 10.5351 4.55792 9.39 3.83392 8.716" stroke="#E17975" stroke-width="0.68" stroke-miterlimit="10" stroke-linecap="round" stroke-linejoin="round"/>
<path d="M11.7429 13.642C11.513 13.5605 11.2687 13.5273 11.0253 13.5442C10.7819 13.5612 10.5446 13.628 10.3281 13.7405C10.1117 13.8531 9.92069 14.0089 9.76703 14.1984C9.61336 14.3879 9.50027 14.6071 9.43488 14.8421C9.05688 15.9301 10.2049 16.8181 9.80188 17.8791C9.69267 18.1807 9.47586 18.4312 9.19305 18.5826C8.91025 18.7339 8.58143 18.7754 8.2699 18.699" stroke="#E17975" stroke-width="0.68" stroke-miterlimit="10" stroke-linecap="round" stroke-linejoin="round"/>
<path d="M4.85181 17.789C4.44181 14.654 9.28782 16.676 6.88782 12.696" stroke="#E17975" stroke-width="0.68" stroke-miterlimit="10" stroke-linecap="round" stroke-linejoin="round"/>
<path d="M1.47986 13.7679C2.06207 13.4088 2.74428 13.2462 3.4259 13.304C3.96103 13.3888 4.45825 13.6327 4.85291 14.0039" stroke="#E17975" stroke-width="0.68" stroke-miterlimit="10" stroke-linecap="round" stroke-linejoin="round"/>
</svg>
