<svg width="20" height="20" viewBox="0 0 20 20" fill="none" xmlns="http://www.w3.org/2000/svg">
<path d="M18 3H8.88L8 0H2C1.47005 0.00158273 0.962265 0.212805 0.587535 0.587535C0.212805 0.962265 0.00158273 1.47005 0 2V15C0.00158273 15.5299 0.212805 16.0377 0.587535 16.4125C0.962265 16.7872 1.47005 16.9984 2 17H9L10 20H18C18.5299 19.9984 19.0377 19.7872 19.4125 19.4125C19.7872 19.0377 19.9984 18.5299 20 18V5C19.9984 4.47005 19.7872 3.96227 19.4125 3.58753C19.0377 3.2128 18.5299 3.00158 18 3ZM5.17 12.59C4.08526 12.59 3.04496 12.1591 2.27793 11.3921C1.51091 10.625 1.08 9.58474 1.08 8.5C1.08 7.41526 1.51091 6.37496 2.27793 5.60793C3.04496 4.84091 4.08526 4.41 5.17 4.41C6.18705 4.40051 7.16854 4.78379 7.91 5.48L7.98 5.54L6.75 6.72L6.69 6.67C6.27918 6.28341 5.73406 6.07181 5.17 6.08C4.52818 6.08 3.91264 6.33496 3.4588 6.7888C3.00496 7.24264 2.75 7.85818 2.75 8.5C2.75 9.14182 3.00496 9.75736 3.4588 10.2112C3.91264 10.665 4.52818 10.92 5.17 10.92C5.63702 10.9556 6.10213 10.8301 6.48788 10.5645C6.87363 10.2988 7.15672 9.90901 7.29 9.46H5.08V7.91H9.03L9.04 7.98C9.07649 8.18122 9.09324 8.38552 9.09 8.59C9.11939 9.11619 9.03874 9.64272 8.85321 10.136C8.66769 10.6293 8.38135 11.0784 8.01248 11.4548C7.64361 11.8312 7.20032 12.1266 6.7109 12.322C6.22147 12.5175 5.69667 12.6088 5.17 12.59ZM11.2 10.88C11.5365 11.4865 11.9354 12.0562 12.39 12.58L11.85 13.11L11.2 10.88ZM11.97 10.12H10.98L10.67 9.08H14.66C14.3351 10.0914 13.8039 11.0244 13.1 11.82C12.6613 11.2971 12.2823 10.7269 11.97 10.12ZM19 18C19 18.2652 18.8946 18.5196 18.7071 18.7071C18.5196 18.8946 18.2652 19 18 19H11L13 17L12.19 14.23L13.11 13.31L15.79 16L16.52 15.27L13.81 12.59C14.7131 11.5844 15.3703 10.3828 15.73 9.08H17V8.04H13.36V7H12.32V8.04H10.36L9.18 4H18C18.2652 4 18.5196 4.10536 18.7071 4.29289C18.8946 4.48043 19 4.73478 19 5V18Z" fill="#FD5E29"/>
</svg>
