<svg width="25" height="25" viewBox="0 0 25 25" fill="none" xmlns="http://www.w3.org/2000/svg">
<path d="M24.1193 5.803C24.1048 4.369 23.5224 2.99926 22.4996 1.99397C21.4769 0.988685 20.0974 0.429869 18.6633 0.440001H12.6803C11.249 0.428279 9.87158 0.985314 8.85077 1.98869C7.82995 2.99207 7.24927 4.35969 7.23633 5.791L7.23633 10.491H16.3103C16.3103 10.491 17.3653 10.444 17.3653 12.599C17.3653 14.754 16.3103 14.666 16.3103 14.666H7.23633V19.198C7.25059 20.6324 7.83323 22.0026 8.85644 23.008C9.87965 24.0134 11.2599 24.5719 12.6943 24.561H18.6743C20.1058 24.573 21.4835 24.0161 22.5045 23.0127C23.5256 22.0093 24.1064 20.6415 24.1193 19.21V5.803Z" fill="#FD5E29"/>
<path d="M0.26721 11.842L3.70021 8.33398C3.78298 8.24787 3.88228 8.17936 3.99217 8.13257C4.10206 8.08577 4.22027 8.06165 4.33971 8.06165C4.45915 8.06165 4.57736 8.08577 4.68725 8.13257C4.79714 8.17936 4.89644 8.24787 4.97921 8.33398C5.14891 8.51041 5.2437 8.74569 5.2437 8.99048C5.2437 9.23528 5.14891 9.47056 4.97921 9.64698L3.09521 11.571H15.0162C15.2572 11.5789 15.4857 11.6802 15.6533 11.8534C15.821 12.0267 15.9147 12.2584 15.9147 12.4995C15.9147 12.7406 15.821 12.9723 15.6533 13.1455C15.4857 13.3188 15.2572 13.4201 15.0162 13.428H3.09521L4.97521 15.349C5.14491 15.5254 5.2397 15.7607 5.2397 16.0055C5.2397 16.2503 5.14491 16.4856 4.97521 16.662C4.89257 16.7475 4.79356 16.8156 4.68408 16.8621C4.5746 16.9086 4.45688 16.9327 4.33792 16.9327C4.21897 16.9328 4.10121 16.909 3.99166 16.8627C3.8821 16.8163 3.78299 16.7484 3.70021 16.663L0.26721 13.158C0.0961551 12.9817 0.000488281 12.7456 0.000488281 12.5C0.000488281 12.2543 0.0961551 12.0183 0.26721 11.842Z" fill="#FD5E29"/>
</svg>
