<svg width="22" height="15" viewBox="0 0 22 15" fill="none" xmlns="http://www.w3.org/2000/svg">
<path d="M20.9838 0.875C20.9918 0.875 20.9978 0.875 21.0058 0.875L11.6118 10.269C11.4524 10.4199 11.2413 10.5041 11.0218 10.5041C10.8023 10.5041 10.5912 10.4199 10.4318 10.269L7.12079 6.958L1.03779 0.875H20.9838ZM0.383789 1.504C0.383789 1.499 0.383789 1.495 0.383789 1.49L6.76979 7.875L0.383789 14.264V1.504ZM1.01179 15.004C0.984117 15.0006 0.956717 14.9952 0.929789 14.988L7.40479 8.513L9.80479 10.913C10.1298 11.2366 10.5697 11.4183 11.0283 11.4183C11.4869 11.4183 11.9268 11.2366 12.2518 10.913L14.5718 8.593L20.9838 15L1.01179 15.004ZM21.6168 14.371L15.2028 7.957L21.6168 1.544V14.371Z" fill="#FD5E29"/>
</svg>
