<svg width="34" height="27" viewBox="0 0 34 27" fill="none" xmlns="http://www.w3.org/2000/svg">
<path d="M6.50603 5.16703C6.42421 5.20587 6.35667 5.26944 6.31295 5.34877C6.26923 5.42809 6.25155 5.51914 6.26241 5.60906L8.40396 20.5003C8.42951 20.6075 8.48924 20.7033 8.57412 20.7735C8.659 20.8437 8.76441 20.8843 8.87442 20.8892L15.4824 20.8246C15.5909 20.8288 15.6974 20.795 15.7835 20.7288C15.8696 20.6627 15.9297 20.5684 15.9535 20.4625L18.4759 5.56547C18.4792 5.50269 18.469 5.43995 18.4462 5.38139C18.4233 5.32284 18.3882 5.26982 18.3433 5.22586C18.2984 5.1819 18.2446 5.14801 18.1856 5.12643C18.1265 5.10485 18.0636 5.09609 18.0009 5.10071L6.74312 5.12368C6.66196 5.12177 6.58127 5.13653 6.50603 5.16703Z" fill="#FFD657"/>
<path d="M6.50879 5.16555C6.43806 5.20498 6.3792 5.26265 6.33832 5.33255C6.29745 5.40245 6.27606 5.48203 6.27638 5.56301L17.175 5.528C17.2406 5.52565 17.306 5.53686 17.3671 5.5609C17.4282 5.58495 17.4837 5.62132 17.5301 5.66776C17.5766 5.7142 17.6129 5.7697 17.6369 5.83081C17.661 5.89191 17.6721 5.95731 17.6698 6.02293L15.1409 20.8428L15.4777 20.8262C15.5879 20.8391 15.6988 20.8085 15.7868 20.7409C15.8748 20.6733 15.9329 20.574 15.9488 20.4642L18.493 5.60077C18.4953 5.53515 18.4842 5.46975 18.4601 5.40864C18.4361 5.34754 18.3998 5.29203 18.3533 5.2456C18.3069 5.19916 18.2514 5.16278 18.1903 5.13874C18.1292 5.11469 18.0638 5.10349 17.9982 5.10584L6.74241 5.1242C6.66255 5.12213 6.58309 5.1362 6.50879 5.16555Z" fill="#F4BC0F"/>
<path d="M8.62426 20.2277C8.56222 20.2569 8.51119 20.3052 8.47868 20.3655C8.44617 20.4259 8.4339 20.4951 8.44367 20.5629C8.43142 21.4337 8.39848 23.2287 8.39848 23.2287C8.4113 23.3477 8.46917 23.4573 8.56022 23.5351C8.65126 23.6128 8.7686 23.6528 8.88818 23.6468L15.2773 23.6531C15.3867 23.6537 15.4928 23.6151 15.5762 23.5443C15.6597 23.4734 15.715 23.3751 15.7322 23.267L15.8398 20.5594C15.8398 20.4696 15.8106 20.3822 15.7565 20.3105C15.7024 20.2388 15.6263 20.1867 15.54 20.1621C13.337 19.4374 10.96 19.4361 8.7563 20.1584C8.72425 20.1769 8.63844 20.1803 8.62376 20.2269L8.62426 20.2277Z" fill="#DCE1E5"/>
<path d="M9.54919 7.30378L9.45402 7.35295C9.40949 7.38873 9.37336 7.43386 9.34819 7.48514C9.32302 7.53643 9.30943 7.59262 9.30837 7.64974C9.30731 7.70685 9.31881 7.76351 9.34207 7.81569C9.36532 7.86787 9.39975 7.91431 9.44292 7.95172L10.0798 8.53086C10.1708 8.61334 10.2888 8.65982 10.4116 8.66161C10.5344 8.66339 10.6537 8.62035 10.7471 8.54054C10.7916 8.50476 10.8277 8.45963 10.8529 8.40834C10.8781 8.35706 10.8916 8.30087 10.8927 8.24375C10.8938 8.18663 10.8823 8.12998 10.859 8.0778C10.8358 8.02562 10.8013 7.97918 10.7582 7.94177L10.1213 7.36263C10.0471 7.28879 9.94977 7.24265 9.84564 7.23194C9.74151 7.22123 9.63686 7.24659 9.54919 7.30378ZM12.1554 6.34987C12.084 6.38217 12.0229 6.43352 11.9788 6.4983C11.9347 6.56307 11.9094 6.63875 11.9055 6.71701L11.9099 7.54469C11.9251 7.66269 11.9837 7.7708 12.0743 7.84788C12.165 7.92496 12.2811 7.96547 12.4 7.9615C12.5193 7.96269 12.6344 7.91768 12.7213 7.83588C12.8082 7.75409 12.86 7.64186 12.866 7.52269L12.8813 6.7252C12.8687 6.60591 12.8108 6.496 12.7197 6.41805C12.6285 6.34011 12.5109 6.30007 12.3911 6.30615C12.3104 6.30455 12.2302 6.31943 12.1554 6.34987ZM8.46301 9.64446C8.38835 9.68599 8.32521 9.74547 8.27932 9.81754C8.23342 9.8896 8.20622 9.97196 8.20015 10.0572C8.215 10.1754 8.27344 10.2838 8.36402 10.3611C8.4546 10.4385 8.5708 10.4792 8.68985 10.4754L9.56026 10.459C9.61955 10.467 9.67987 10.4625 9.73732 10.4458C9.79477 10.4291 9.84807 10.4005 9.8938 10.3619C9.93953 10.3234 9.97666 10.2756 10.0028 10.2218C10.0289 10.168 10.0435 10.1093 10.0455 10.0495C10.0476 9.98992 10.037 9.93063 10.0144 9.87548C9.9919 9.82034 9.95796 9.77058 9.91482 9.7295C9.87168 9.68841 9.82034 9.65692 9.76416 9.63711C9.70798 9.61729 9.64824 9.60959 9.58887 9.61452L8.66705 9.61788C8.59797 9.60403 8.52624 9.61338 8.46301 9.64446ZM11.2265 8.60898C10.9667 8.75705 10.7505 8.97104 10.5998 9.22937C10.4491 9.48769 10.3692 9.7812 10.3682 10.0803C10.3816 10.3245 10.4432 10.5637 10.5493 10.784C10.6554 11.0044 10.8039 11.2017 10.9864 11.3645C11.169 11.5273 11.3818 11.6525 11.6128 11.7329C11.8439 11.8133 12.0885 11.8472 12.3326 11.8328C12.8227 11.85 13.3001 11.6758 13.664 11.3472C14.0279 11.0186 14.2497 10.5613 14.2824 10.072C14.27 9.82744 14.2092 9.58776 14.1034 9.36688C13.9977 9.146 13.8491 8.94831 13.6664 8.78528C13.4837 8.62225 13.2704 8.49713 13.0389 8.41717C12.8074 8.3372 12.5624 8.30399 12.318 8.31946C11.9343 8.31108 11.5558 8.40965 11.2249 8.60415L11.2265 8.60898ZM14.7808 7.3652L14.6897 7.40741L14.0448 7.97836C13.9991 8.01724 13.9626 8.06571 13.9378 8.12032C13.913 8.17493 13.9005 8.23434 13.9013 8.29431C13.9021 8.35429 13.9161 8.41335 13.9423 8.4673C13.9685 8.52125 14.0062 8.56876 14.0529 8.60644C14.1468 8.67791 14.2624 8.71496 14.3804 8.71139C14.4983 8.70781 14.6115 8.66383 14.7009 8.58681L15.3424 8.01786C15.3908 7.98484 15.4307 7.94069 15.4586 7.8891C15.4865 7.83751 15.5016 7.77998 15.5027 7.72134C15.5038 7.6627 15.4908 7.60466 15.4648 7.55207C15.4389 7.49948 15.4007 7.45388 15.3535 7.41909C15.2764 7.35213 15.1807 7.31036 15.0792 7.29939C14.9777 7.28842 14.8753 7.30878 14.7857 7.35774L14.7808 7.3652ZM10.1751 11.4839L10.0765 11.535L9.43162 12.1002C9.39204 12.1418 9.36152 12.1913 9.34199 12.2453C9.32247 12.2994 9.31436 12.3569 9.31818 12.4143C9.322 12.4716 9.33767 12.5276 9.3642 12.5786C9.39072 12.6296 9.42753 12.6745 9.4723 12.7106C9.5623 12.7909 9.67944 12.834 9.80003 12.8313C9.92062 12.8285 10.0357 12.7801 10.1219 12.6958L10.7669 12.1248C10.8078 12.0875 10.84 12.0418 10.8614 11.9907C10.8828 11.9397 10.8929 11.8846 10.8908 11.8293C10.8888 11.774 10.8747 11.7198 10.8496 11.6705C10.8245 11.6211 10.7889 11.5779 10.7454 11.5437C10.6684 11.4767 10.5727 11.435 10.4712 11.424C10.3697 11.413 10.2673 11.4334 10.1777 11.4824L10.1751 11.4839ZM14.8729 9.68265C14.7944 9.70427 14.7262 9.75306 14.6805 9.82031C14.6347 9.88756 14.6143 9.9689 14.623 10.0498C14.6219 10.1091 14.6332 10.168 14.6562 10.2227C14.6791 10.2774 14.7131 10.3268 14.7562 10.3676C14.7992 10.4085 14.8502 10.4399 14.9061 10.46C14.9619 10.4801 15.0213 10.4883 15.0805 10.4842L16.0023 10.4809C16.1208 10.4794 16.2345 10.4335 16.3208 10.3523C16.4071 10.271 16.4598 10.1603 16.4683 10.0421C16.4555 9.92303 16.3976 9.81341 16.3066 9.73566C16.2155 9.65791 16.0982 9.61792 15.9786 9.62389L15.0899 9.61049C15.0128 9.61841 14.9385 9.64353 14.8725 9.68402L14.8729 9.68265ZM12.1176 12.1764C12.0513 12.2068 11.9955 12.256 11.9571 12.3181C11.9187 12.3801 11.8996 12.452 11.902 12.5249L11.8867 13.3224C11.8848 13.3819 11.8955 13.4411 11.9181 13.4962C11.9407 13.5512 11.9746 13.6009 12.0177 13.642C12.0608 13.683 12.1121 13.7145 12.1682 13.7344C12.2243 13.7543 12.284 13.7621 12.3433 13.7573C12.4683 13.7683 12.5927 13.7298 12.6896 13.6501C12.7865 13.5704 12.8483 13.4559 12.8616 13.3311L12.8246 12.521C12.8257 12.4617 12.8145 12.4029 12.7917 12.3482C12.7688 12.2935 12.7348 12.2441 12.6919 12.2032C12.649 12.1623 12.598 12.1308 12.5422 12.1106C12.4865 12.0905 12.4271 12.0821 12.368 12.0861C12.2909 12.094 12.2167 12.1191 12.1506 12.1596L12.1186 12.1781L12.1176 12.1764ZM13.9686 11.4945C13.9501 11.5011 13.9332 11.5119 13.9193 11.5259C13.9054 11.5399 13.8949 11.5568 13.8884 11.5755C13.8419 11.6099 13.804 11.6546 13.7775 11.706C13.751 11.7575 13.7366 11.8143 13.7356 11.8721C13.7345 11.93 13.7467 11.9873 13.7713 12.0397C13.7958 12.0921 13.8321 12.1381 13.8773 12.1743L14.5142 12.7534C14.6148 12.8308 14.7386 12.8722 14.8655 12.8709C14.9925 12.8696 15.1154 12.8257 15.2145 12.7463C15.2929 12.6594 15.3356 12.5461 15.3339 12.429C15.3323 12.3119 15.2865 12.1998 15.2057 12.1151L14.5599 11.5827C14.485 11.5046 14.3863 11.4536 14.2793 11.4377C14.1723 11.4217 14.0631 11.4417 13.9686 11.4945Z" fill="#F29312"/>
<path d="M18.5593 15.7538L18.5914 15.7353L18.6264 15.7959L18.5593 15.7538Z" fill="#CFD8DC"/>
<path d="M8.67053 20.1618L8.63849 20.1803C8.5958 20.2 8.55804 20.229 8.52796 20.2651C8.49789 20.3012 8.47626 20.3436 8.46465 20.3892C10.5224 19.8238 12.7011 19.8772 14.7287 20.5428C14.8192 20.5596 14.9002 20.6097 14.9556 20.6833C15.0111 20.7568 15.0371 20.8484 15.0285 20.9401L14.9523 23.626L15.2891 23.6094C15.3446 23.6135 15.4004 23.6066 15.4532 23.5891C15.506 23.5715 15.5549 23.5437 15.5969 23.5072C15.639 23.4707 15.6734 23.4262 15.6981 23.3764C15.7229 23.3265 15.7376 23.2722 15.7413 23.2167L15.8565 20.5163C15.8477 20.4279 15.8149 20.3436 15.7615 20.2726C15.7081 20.2016 15.6362 20.1467 15.5537 20.1138C13.3459 19.4131 10.9753 19.4131 8.76756 20.1138L8.67053 20.1618Z" fill="#C2C9CF"/>
<path d="M6.51875 5.117L6.48584 5.136C6.40711 5.17271 6.34307 5.23492 6.30407 5.31254C6.26507 5.39017 6.25339 5.47868 6.27093 5.56376L8.39781 20.5016L8.36487 23.2446C8.36378 23.3039 8.37501 23.3627 8.39786 23.4174C8.42071 23.4721 8.45468 23.5215 8.49761 23.5624C8.54055 23.6033 8.59151 23.6348 8.64727 23.655C8.70303 23.6751 8.76237 23.6835 8.82153 23.6795L15.4645 23.6755C15.583 23.6738 15.6965 23.6279 15.7828 23.5466C15.869 23.4654 15.9218 23.3548 15.9305 23.2367L15.9718 20.4901L18.475 5.56375C18.4859 5.49839 18.4819 5.43141 18.4633 5.36781C18.4448 5.3042 18.4121 5.24561 18.3677 5.19641C18.3233 5.14722 18.2683 5.10868 18.207 5.08368C18.1456 5.05869 18.0794 5.04787 18.0132 5.05205L6.75597 5.07588C6.67492 5.07325 6.59419 5.08724 6.51875 5.117ZM7.28904 5.90318L17.4736 5.92134L15.0932 19.8784C13.1842 19.3637 11.1705 19.3825 9.27134 19.9326L7.28904 5.90318ZM9.57183 7.33109L9.53979 7.34959C9.47898 7.37952 9.42648 7.42397 9.3869 7.47899C9.34733 7.53402 9.32191 7.59793 9.31288 7.66511C9.30385 7.73228 9.3115 7.80064 9.33513 7.86416C9.35877 7.92769 9.39768 7.98441 9.44843 8.02934L10.1012 8.56004C10.5437 9.04243 11.2719 8.38762 10.7801 7.97181L10.1432 7.39267C10.0617 7.3347 9.96672 7.29861 9.86731 7.28787C9.7679 7.27713 9.6674 7.29209 9.57543 7.33132L9.57183 7.33109ZM12.1645 6.50165C12.0982 6.53203 12.0423 6.58132 12.004 6.64332C11.9656 6.70533 11.9464 6.77729 11.9488 6.85016L11.9335 7.64766C11.8894 8.2632 12.9157 8.28492 12.8728 7.67461L12.8684 6.84693C12.862 6.7679 12.8351 6.6919 12.7905 6.62639C12.7458 6.56088 12.6848 6.50813 12.6136 6.47331C12.5423 6.43849 12.4633 6.42281 12.3841 6.4278C12.305 6.43279 12.2285 6.45829 12.1622 6.50179L12.1645 6.50165ZM8.43447 9.73712C8.00518 9.95957 8.2298 10.5146 8.70716 10.5034L9.59594 10.5168C9.65757 10.5239 9.72 10.5177 9.779 10.4985C9.838 10.4793 9.89219 10.4477 9.93792 10.4058C9.98364 10.3639 10.0198 10.3126 10.044 10.2555C10.0682 10.1984 10.0798 10.1367 10.0781 10.0747C10.0764 10.0127 10.0614 9.95179 10.0341 9.89609C10.0068 9.84039 9.96783 9.7912 9.91986 9.75186C9.8719 9.71253 9.81604 9.68395 9.75607 9.66808C9.6961 9.65221 9.63342 9.6494 9.57228 9.65986L8.6835 9.64646C8.5915 9.64304 8.50175 9.67541 8.4331 9.73675L8.43447 9.73712ZM11.267 8.66524C11.0047 8.80457 10.7847 9.01201 10.6303 9.26576C10.4759 9.51951 10.3927 9.81019 10.3894 10.1072C10.4171 10.5951 10.6344 11.0528 10.9949 11.3827C11.3553 11.7126 11.8305 11.8886 12.3189 11.8731C12.8166 11.8954 13.3031 11.7213 13.6737 11.3883C14.0443 11.0554 14.2693 10.5902 14.3002 10.0929C14.2647 9.60279 14.0397 9.14577 13.673 8.81864C13.3064 8.49151 12.8267 8.31996 12.3358 8.34034C11.956 8.34722 11.5853 8.45745 11.2635 8.65918L11.267 8.66524ZM14.8018 7.38768C14.7538 7.40602 14.7137 7.44061 14.6885 7.48543L14.0766 8.03962C13.5391 8.43657 14.2851 9.11669 14.7328 8.64807L15.3777 8.07711C15.7635 7.71929 15.2641 7.14847 14.8018 7.38768ZM11.7558 9.3599C11.9299 9.26191 12.1277 9.21406 12.3273 9.22166C12.4529 9.21325 12.579 9.22979 12.6983 9.27031C12.8175 9.31084 12.9276 9.37455 13.0221 9.45778C13.1166 9.54101 13.1938 9.64212 13.249 9.75528C13.3043 9.86844 13.3367 9.99141 13.3443 10.1171C13.3364 10.242 13.3037 10.364 13.2483 10.4762C13.1929 10.5883 13.1157 10.6883 13.0213 10.7704C12.927 10.8525 12.8172 10.9151 12.6985 10.9544C12.5797 10.9938 12.4544 11.0092 12.3296 10.9997C12.2038 11.0082 12.0776 10.9917 11.9583 10.9511C11.8389 10.9106 11.7288 10.8468 11.6342 10.7635C11.5396 10.6801 11.4624 10.5789 11.4072 10.4656C11.3519 10.3523 11.3196 10.2292 11.3121 10.1034C11.3295 9.95484 11.3782 9.81169 11.455 9.68337C11.5318 9.55505 11.6349 9.44446 11.7576 9.3589L11.7558 9.3599ZM10.1938 11.5123C10.1752 11.5189 10.1583 11.5297 10.1444 11.5437C10.1305 11.5577 10.12 11.5746 10.1135 11.5933L9.46857 12.1642C9.01635 12.557 9.67198 13.1646 10.1569 12.7564L10.7688 12.2022C11.1884 11.8271 10.6852 11.2575 10.1929 11.5128L10.1938 11.5123ZM14.8915 9.7111L14.8275 9.7481C14.7455 9.7975 14.6831 9.87372 14.6508 9.96386C14.6186 10.054 14.6185 10.1525 14.6506 10.2427C14.6827 10.3329 14.745 10.4092 14.8269 10.4587C14.9089 10.5082 15.0054 10.5279 15.1002 10.5144L15.9889 10.5278C16.0511 10.5368 16.1145 10.5324 16.1748 10.515C16.2352 10.4975 16.2911 10.4673 16.3388 10.4265C16.3865 10.3857 16.425 10.3351 16.4516 10.2782C16.4782 10.2213 16.4924 10.1594 16.4931 10.0965C16.4939 10.0337 16.4812 9.97148 16.4559 9.91397C16.4306 9.85646 16.3934 9.80501 16.3466 9.76307C16.2998 9.72112 16.2446 9.68966 16.1847 9.67077C16.1248 9.65189 16.0615 9.64603 15.9992 9.65357L15.0949 9.68724C15.0263 9.67279 14.9549 9.68117 14.8915 9.7111ZM12.1363 12.2048C12.0676 12.2405 12.0088 12.2927 11.9651 12.3566C11.9214 12.4205 11.8942 12.4942 11.8859 12.5711L11.8903 13.3988C11.9264 13.9333 12.8482 13.93 12.846 13.3781L12.8608 12.5798C12.8535 12.4988 12.8258 12.421 12.7804 12.3536C12.7351 12.2861 12.6735 12.2312 12.6013 12.1938C12.5291 12.1565 12.4486 12.1379 12.3674 12.1398C12.2861 12.1417 12.2066 12.1641 12.1363 12.2048ZM14.0066 11.5523C13.9436 11.5752 13.8879 11.6144 13.845 11.6658C13.8021 11.7173 13.7737 11.7792 13.7625 11.8453C13.7514 11.9113 13.7579 11.9792 13.7815 12.0419C13.8051 12.1046 13.8449 12.1599 13.8968 12.2022L14.5337 12.7813C14.9711 13.187 15.6491 12.5992 15.2126 12.1931L14.5757 11.614C14.4986 11.547 14.4029 11.5052 14.3014 11.4943C14.1999 11.4833 14.0975 11.5037 14.0079 11.5526L14.0066 11.5523ZM9.34741 20.8044C11.1868 20.2385 13.1516 20.2232 14.9997 20.7604L14.9931 21.435L13.4863 21.4251L12.4846 20.9561C12.417 20.9176 12.3408 20.8968 12.263 20.8957C12.1852 20.8946 12.1084 20.9131 12.0398 20.9497L10.8601 21.4425L9.3432 21.4731L9.34741 20.8044ZM9.31325 22.3252L11.0018 22.2799C11.0541 22.2924 11.1197 22.258 11.205 22.2538L12.2312 21.7952L13.1318 22.2371C13.1978 22.2658 13.2682 22.2829 13.34 22.2878L15.0144 22.2899L14.9983 22.8119L9.32714 22.8253L9.31325 22.3252Z" fill="#1B3254"/>
<path d="M24.0148 9.40599H24.8148C24.8148 9.40599 24.7928 8.38699 24.8148 7.96099C24.8259 7.83971 24.8797 7.72634 24.9668 7.64115C25.0538 7.55596 25.1683 7.5045 25.2898 7.49599C25.2354 6.73529 25.2354 5.97169 25.2898 5.21099C25.3157 5.13598 25.3615 5.0694 25.4222 5.01834C25.483 4.96727 25.5564 4.93363 25.6348 4.92099H28.9348C28.9348 4.92099 29.3448 4.97899 29.3878 5.32799C29.4308 5.67699 29.3878 7.49599 29.3878 7.49599C29.4469 7.49752 29.5051 7.51084 29.5589 7.53516C29.6128 7.55949 29.6613 7.59433 29.7016 7.63764C29.7418 7.68095 29.773 7.73187 29.7933 7.78739C29.8136 7.84292 29.8226 7.90194 29.8198 7.96099C29.8418 8.42599 29.8198 9.40599 29.8198 9.40599H30.7638C31.5268 9.40599 31.7078 9.22699 32.1638 10.621L33.2698 12.981L31.9298 22.257C31.9099 22.604 31.7535 22.9291 31.4947 23.1613C31.236 23.3934 30.8959 23.5137 30.5488 23.496H24.1608C23.8136 23.5137 23.4735 23.3934 23.2148 23.1613C22.956 22.9291 22.7996 22.604 22.7798 22.257L21.4058 12.981L22.4988 10.544C23.0168 9.26599 23.2518 9.40599 24.0148 9.40599Z" fill="#1B3254"/>
<path d="M25.7847 8.41H28.9007V9.393H25.7847V8.41Z" fill="#DCE1E5"/>
<path d="M26.2617 5.793H28.3957V7.528H26.2617V5.793Z" fill="#FFD657"/>
<path d="M27.3267 6.033C27.3887 6.02944 27.4508 6.03865 27.5091 6.06006C27.5674 6.08146 27.6207 6.11461 27.6657 6.15745C27.7107 6.20029 27.7464 6.25191 27.7707 6.30911C27.7949 6.36631 27.8072 6.42788 27.8067 6.49V6.847C27.8067 7.107 27.6167 7.241 27.3267 7.241C27.2651 7.24546 27.2033 7.23704 27.1452 7.21629C27.0871 7.19554 27.034 7.1629 26.9892 7.12047C26.9444 7.07803 26.909 7.02673 26.8851 6.96983C26.8613 6.91293 26.8495 6.85169 26.8507 6.79V6.49C26.8497 6.42811 26.8616 6.36669 26.8854 6.30957C26.9093 6.25245 26.9446 6.20084 26.9893 6.15797C27.0339 6.11511 27.0869 6.08189 27.145 6.06039C27.203 6.03889 27.2649 6.02957 27.3267 6.033Z" fill="#1B3254"/>
<path d="M31.0911 10.2633L32.343 13.1852L30.9426 22.7008H23.8157L22.3567 13.1852L23.5559 10.2633" fill="#FFD657"/>
<path d="M29.3217 12.796H25.2437C24.6914 12.796 24.2437 13.2437 24.2437 13.796V19.692C24.2437 20.2443 24.6914 20.692 25.2437 20.692H29.3217C29.8739 20.692 30.3217 20.2443 30.3217 19.692V13.796C30.3217 13.2437 29.8739 12.796 29.3217 12.796Z" fill="#1B3254"/>
<path d="M29.2737 13.73H25.2917V19.746H29.2737V13.73Z" fill="#F29312"/>
</svg>
