<svg width="22" height="24" viewBox="0 0 22 24" fill="none" xmlns="http://www.w3.org/2000/svg">
<path d="M5.00955 7.01101C4.69688 6.53981 4.49612 6.00335 4.42263 5.44265C4.34914 4.88195 4.40487 4.31186 4.58555 3.77601C4.98355 2.42601 6.55955 0.465007 8.35355 0.465007C8.60365 0.459128 8.85225 0.505244 9.0836 0.600435C9.31495 0.695626 9.52401 0.837818 9.69755 1.01801C10.5716 1.92901 10.4366 3.64901 10.2766 4.58901C10.2316 4.83701 10.1996 5.08901 10.1606 5.33201C9.94155 6.84901 9.69155 8.56201 8.00055 8.56201C7.86278 8.56393 7.72514 8.55254 7.58955 8.52801C7.07922 8.46296 6.5874 8.29497 6.14391 8.03421C5.70043 7.77345 5.31451 7.42535 5.00955 7.01101ZM20.2466 8.04401C19.9528 7.89101 19.6257 7.81336 19.2946 7.81801C17.8154 8.02516 16.4706 8.78784 15.5336 9.95101C14.4856 11.359 13.1866 13.117 14.9676 14.715C15.656 15.3182 16.5477 15.6377 17.4626 15.609C17.9136 15.6061 18.3626 15.548 18.7996 15.436C19.8476 15.183 20.2996 14.565 20.9786 13.636L21.0946 13.474C21.6158 12.7096 21.8792 11.7987 21.8466 10.874C21.9331 10.2915 21.8227 9.69671 21.5329 9.18404C21.2431 8.67137 20.7903 8.27015 20.2466 8.04401ZM14.0806 8.53401C14.1706 8.54001 14.2546 8.54001 14.3566 8.54501C16.6136 8.54501 17.8216 6.47501 17.9886 4.54501C18.0237 3.95527 17.9311 3.3649 17.7169 2.81431C17.5027 2.26372 17.172 1.76592 16.7476 1.35501C16.2253 0.813658 15.5142 0.494828 14.7626 0.465007C12.8536 0.465007 12.5506 2.33401 12.2806 3.98301L12.2116 4.41601C11.9226 6.14101 12.0566 7.20201 12.6416 7.87101C13.0149 8.27388 13.5327 8.5123 14.0816 8.53401H14.0806ZM5.58855 14.14C6.1312 13.6378 6.50088 12.9768 6.6446 12.2515C6.78832 11.5263 6.69869 10.7742 6.38855 10.103C6.08855 9.31901 4.61355 7.35201 2.87855 7.35201C2.72041 7.35123 2.5627 7.36868 2.40855 7.40401C0.586554 7.81301 -0.00344548 10.535 -0.00344548 11.424C-0.0260645 11.9924 0.110643 12.5557 0.391246 13.0505C0.671848 13.5452 1.08517 13.9517 1.58455 14.224C2.24266 14.5888 2.97931 14.7889 3.73155 14.807C4.41184 14.8226 5.07367 14.5849 5.58855 14.14ZM16.3056 17.255C14.9867 16.3195 13.7901 15.2226 12.7436 13.99C12.6436 13.857 12.5576 13.707 12.4616 13.546C12.2953 13.1212 12.0141 12.7511 11.6494 12.4772C11.2846 12.2032 10.8508 12.0363 10.3966 11.995C10.3386 11.995 10.2806 12.001 10.2106 12.001C9.47155 12.07 9.01055 12.554 8.37155 13.223C7.32962 14.3693 6.12027 15.3514 4.78455 16.136C2.73955 17.358 2.29656 18.726 3.25455 20.871C3.53575 21.5083 4.0075 22.0427 4.60489 22.4009C5.20229 22.759 5.89599 22.9233 6.59055 22.871C7.39547 22.8475 8.19445 22.7253 8.96955 22.507C9.20755 22.449 9.49656 22.381 9.54755 22.375C9.94621 22.4697 10.3392 22.5868 10.7246 22.726C11.8181 23.1492 12.9644 23.4207 14.1316 23.533C14.8452 23.506 15.5404 23.2989 16.1524 22.9308C16.7644 22.5627 17.2732 22.0457 17.6316 21.428C17.8328 21.1683 17.9803 20.8711 18.0657 20.5539C18.1511 20.2366 18.1726 19.9056 18.129 19.5799C18.0854 19.2543 17.9774 18.9406 17.8115 18.657C17.6456 18.3734 17.425 18.1256 17.1626 17.928C16.9806 17.773 16.6786 17.543 16.3056 17.254V17.255Z" fill="#A25F4D"/>
</svg>
