<svg width="21" height="21" viewBox="0 0 21 21" fill="none" xmlns="http://www.w3.org/2000/svg">
<path d="M0.363281 21.0001V18.4221C0.363281 14.9921 7.23773 13.2632 10.6777 13.2632C14.1177 13.2632 20.9961 14.9921 20.9961 18.4221V21.0001H0.363281ZM5.52246 5.52612C5.5222 4.15848 6.06456 2.84672 7.03125 1.87927C7.99794 0.91183 9.31009 0.367983 10.6777 0.367188C11.3553 0.367056 12.0254 0.500304 12.6514 0.759522C13.2773 1.01874 13.8461 1.39885 14.3252 1.87793C14.8043 2.35701 15.1841 2.92578 15.4434 3.55176C15.7026 4.17774 15.8361 4.8486 15.8359 5.52612C15.8361 6.20365 15.7026 6.87463 15.4434 7.50061C15.1841 8.12659 14.8043 8.69535 14.3252 9.17444C13.8461 9.65352 13.2773 10.0335 12.6514 10.2927C12.0254 10.5519 11.3553 10.6853 10.6777 10.6852C9.31061 10.6836 7.99925 10.1392 7.0332 9.17188C6.06716 8.20452 5.52512 6.89324 5.52539 5.52612H5.52246Z" fill="#FD5E29"/>
</svg>
