<svg width="41" height="22" viewBox="0 0 41 22" fill="none" xmlns="http://www.w3.org/2000/svg">
<path d="M11.619 0.992249L14.219 3.60025L17.964 2.68125L18.598 6.15025L22.298 7.21225L20.762 10.4412L23.24 13.1472L20.022 15.1102L20.492 18.6002L16.613 18.6752L14.926 21.8422L11.618 20.0042L8.31105 21.8422L6.62505 18.6762L2.74605 18.6012L3.21605 15.1112L-0.00195312 13.1472L2.47605 10.4412L0.939047 7.21225L4.63905 6.15025L5.27305 2.68125L9.01805 3.60025L11.619 0.992249Z" fill="#1B3254"/>
<path d="M11.618 2.11926L13.939 4.44526L17.279 3.62626L17.845 6.71926L21.145 7.66626L19.775 10.5463L21.985 12.9593L19.114 14.7103L19.534 17.8233L16.075 17.8903L14.575 20.7143L11.625 19.0753L8.66803 20.7193L7.16803 17.8953L3.70903 17.8283L4.12903 14.7153L1.25403 12.9603L3.46403 10.5473L2.09403 7.66726L5.39403 6.72026L5.95403 3.62626L9.29403 4.44526L11.618 2.11926Z" fill="#DF6060"/>
<path d="M7.831 15.3623H9.741L14.992 7.86726H13.082L7.831 15.3623ZM8.01 9.52726C8.0117 9.43705 8.03195 9.34816 8.06951 9.26612C8.10706 9.18409 8.16111 9.11066 8.22828 9.05043C8.29546 8.9902 8.37432 8.94445 8.45995 8.91603C8.54558 8.88762 8.63615 8.87714 8.726 8.88526C8.81586 8.87714 8.90643 8.88762 8.99206 8.91603C9.07769 8.94445 9.15655 8.9902 9.22372 9.05043C9.2909 9.11066 9.34494 9.18409 9.3825 9.26612C9.42005 9.34816 9.44031 9.43705 9.442 9.52726C9.44031 9.61746 9.42005 9.70636 9.3825 9.78839C9.34494 9.87043 9.2909 9.94385 9.22372 10.0041C9.15655 10.0643 9.07769 10.1101 8.99206 10.1385C8.90643 10.1669 8.81586 10.1774 8.726 10.1693C8.63615 10.1774 8.54558 10.1669 8.45995 10.1385C8.37432 10.1101 8.29546 10.0643 8.22828 10.0041C8.16111 9.94385 8.10706 9.87043 8.06951 9.78839C8.03195 9.70636 8.0117 9.61746 8.01 9.52726ZM6.578 9.52726C6.63101 10.0496 6.88442 10.531 7.28498 10.8704C7.68554 11.2098 8.20206 11.3807 8.726 11.3473C9.24994 11.3807 9.76646 11.2098 10.167 10.8704C10.5676 10.531 10.821 10.0496 10.874 9.52726C10.821 9.00493 10.5676 8.52349 10.167 8.18409C9.76646 7.8447 9.24994 7.67378 8.726 7.70726C8.20206 7.67378 7.68554 7.8447 7.28498 8.18409C6.88442 8.52349 6.63101 9.00493 6.578 9.52726ZM13.378 13.7033C13.3797 13.613 13.4 13.5242 13.4375 13.4421C13.4751 13.3601 13.5291 13.2867 13.5963 13.2264C13.6635 13.1662 13.7423 13.1205 13.8279 13.092C13.9136 13.0636 14.0041 13.0531 14.094 13.0613C14.1839 13.0531 14.2744 13.0636 14.3601 13.092C14.4457 13.1205 14.5245 13.1662 14.5917 13.2264C14.6589 13.2867 14.7129 13.3601 14.7505 13.4421C14.7881 13.5242 14.8083 13.613 14.81 13.7033C14.8083 13.7935 14.7881 13.8824 14.7505 13.9644C14.7129 14.0464 14.6589 14.1198 14.5917 14.1801C14.5245 14.2403 14.4457 14.2861 14.3601 14.3145C14.2744 14.3429 14.1839 14.3534 14.094 14.3453C14.0044 14.3529 13.9141 14.3421 13.8289 14.3135C13.7436 14.2849 13.6651 14.2391 13.5983 14.1789C13.5314 14.1187 13.4776 14.0454 13.4403 13.9636C13.4029 13.8818 13.3827 13.7932 13.381 13.7033H13.378ZM11.946 13.7033C11.999 14.2256 12.2524 14.707 12.653 15.0464C13.0535 15.3858 13.5701 15.5567 14.094 15.5233C14.6179 15.5567 15.1345 15.3858 15.535 15.0464C15.9356 14.707 16.189 14.2256 16.242 13.7033C16.189 13.1809 15.9356 12.6995 15.535 12.3601C15.1345 12.0207 14.6179 11.8498 14.094 11.8833C13.5706 11.8506 13.0548 12.0219 12.6549 12.3612C12.255 12.7005 12.002 13.1815 11.949 13.7033H11.946Z" fill="white"/>
<path d="M30.6265 4.85569L24.105 3.88716C23.4073 3.76657 22.9766 4.12723 23.062 4.75993L23.6815 10.6647C23.798 11.2292 24.0938 11.7409 24.5249 12.1234L31.742 19.0666C32.5361 19.8302 33.5815 20.1242 34.0712 19.7154L39.8211 14.9005C40.2992 14.5011 40.2263 13.4288 39.4102 12.6475L32.1931 5.70425C31.7633 5.27672 31.2194 4.98211 30.6265 4.85569Z" fill="#1B3254"/>
<path d="M30.4375 5.61454L24.6816 4.5829C24.0668 4.45883 23.701 4.76445 23.7974 5.32536L24.5391 10.5488C24.6634 11.0567 24.9397 11.5146 25.331 11.8614L31.8984 18.1798C32.6241 18.8773 33.5488 19.1622 33.9642 18.8144L38.851 14.7264C39.257 14.3861 39.1556 13.4401 38.4142 12.7286L31.8467 6.41021C31.4585 6.02119 30.9711 5.746 30.4375 5.61454Z" fill="#FFDD00"/>
<path d="M25.0621 6.73224C25.679 6.73224 26.1791 6.28363 26.1791 5.73024C26.1791 5.17685 25.679 4.72824 25.0621 4.72824C24.4452 4.72824 23.9451 5.17685 23.9451 5.73024C23.9451 6.28363 24.4452 6.73224 25.0621 6.73224Z" fill="white"/>
<path d="M17.49 4.71145C19.0314 4.39496 20.5949 4.19749 22.1666 4.12076C24.4919 4.03745 24.9979 4.72687 24.9979 4.72687C25.4056 5.08063 25.6285 5.12918 25.2232 5.50097C24.818 5.87277 24.662 5.85278 24.6346 6.15452C24.6072 6.45625 24.0722 6.43704 22.3299 6.03522C21.7159 5.96079 21.0932 6.00852 20.4977 6.17568C19.9022 6.34285 19.3456 6.62613 18.86 7.00924L17.8603 6.73837L17.49 4.71145Z" fill="#FBFBFB"/>
<path d="M17.5764 5.24293C18.8491 4.84104 20.1672 4.60079 21.4999 4.52783C22.0101 4.52338 22.5201 4.55181 23.0267 4.61295C23.896 4.71378 24.7571 4.87593 25.6035 5.0982C25.6814 5.16245 25.7445 5.24278 25.7884 5.33369C25.8323 5.42459 25.856 5.52392 25.8579 5.62486C25.8598 5.72579 25.8399 5.82595 25.7995 5.91845C25.759 6.01096 25.6991 6.09363 25.6237 6.16078C25.4612 6.3052 25.2523 6.38646 25.0349 6.38976C24.8175 6.39306 24.6062 6.31818 24.4394 6.17876C23.5205 5.74891 22.5092 5.55417 21.4963 5.61203C20.2069 5.70879 18.9593 6.11287 17.858 6.79046C17.8325 6.70462 17.655 5.66521 17.5764 5.24293Z" fill="#1B3254"/>
<path d="M26.9588 7.73653L27.9498 7.35935L27.958 7.36813L27.4674 8.22622L26.9588 7.73653ZM25.2008 7.75155L25.6806 8.21335L26.3752 7.9553L27.185 8.73428L26.8505 9.33745L27.3304 9.79924L28.7712 7.13757L28.2619 6.64715L25.2008 7.75155ZM27.7767 10.2294L28.2264 10.6619L28.8853 10.1104L29.4638 10.1178L29.1136 11.5164L29.6379 12.0215L30.1151 10.1066L31.827 10.0773L31.2876 9.55749L29.5157 9.58405L30.4778 8.77851L30.028 8.34606L27.7767 10.2294ZM30.1336 11.9476C30.1206 12.0618 30.1288 12.1775 30.1578 12.2888C30.225 12.571 30.3756 12.8265 30.59 13.022C30.7701 13.2325 31.0223 13.3682 31.2971 13.4027C31.572 13.4371 31.8499 13.3678 32.0764 13.2083C32.8599 12.5515 31.64 11.6846 32.0267 11.3677C32.155 11.2604 32.3389 11.2626 32.5668 11.4821C32.666 11.5764 32.733 11.6996 32.7583 11.8341C32.7674 11.8943 32.7702 11.9553 32.7668 12.0162L33.3817 12.0348C33.3863 11.9352 33.3774 11.8354 33.3553 11.7382C33.2959 11.494 33.1661 11.2727 32.982 11.1018C32.8106 10.8986 32.5693 10.7669 32.3057 10.7328C32.0421 10.6987 31.7752 10.7647 31.5578 10.9176C30.7763 11.5766 31.9935 12.4406 31.6109 12.7605C31.4666 12.8814 31.2489 12.8752 31.0059 12.641C30.8765 12.521 30.7894 12.3623 30.7578 12.1887C30.7432 12.1143 30.7409 12.038 30.7508 11.9628L30.1336 11.9476ZM31.9523 14.2497L32.402 14.6822L34.6548 12.7974L34.2051 12.365L31.9523 14.2497ZM34.607 15.0981L35.598 14.7209L35.6062 14.7297L35.1156 15.5878L34.607 15.0981ZM32.8512 15.1111L33.3311 15.5729L34.0249 15.3155L34.8348 16.0945L34.5002 16.6976L34.9801 17.1594L36.4216 14.4971L35.9124 14.0067L32.8512 15.1111Z" fill="#1B3254"/>
</svg>
