<svg width="16" height="16" viewBox="0 0 16 16" fill="none" xmlns="http://www.w3.org/2000/svg">
<path d="M15.623 6.78406C15.6246 8.41389 14.9799 9.97786 13.8303 11.1331C12.6806 12.2884 11.1198 12.9407 9.49002 12.9471C8.20339 12.9479 6.94963 12.5407 5.90902 11.7841L2.28902 15.4191C2.22196 15.4855 2.14232 15.538 2.05475 15.5734C1.96719 15.6087 1.87345 15.6263 1.77902 15.6251C1.66524 15.6238 1.55283 15.6 1.4483 15.555C1.34376 15.5101 1.24918 15.4448 1.17002 15.3631C1.01379 15.2206 0.920303 15.0221 0.909997 14.8109C0.899691 14.5997 0.973403 14.3931 1.11502 14.2361L4.70202 10.6311C4.08338 9.86619 3.65744 8.96395 3.46003 8.00023C3.26262 7.0365 3.2995 6.03945 3.56759 5.09295C3.83567 4.14644 4.32712 3.27814 5.00059 2.56108C5.67406 1.84401 6.50987 1.29915 7.43773 0.972304C8.36558 0.64546 9.35836 0.546193 10.3326 0.682853C11.3068 0.819512 12.2339 1.1881 13.036 1.75762C13.8381 2.32714 14.4918 3.08095 14.942 3.95563C15.3921 4.83032 15.6257 5.80032 15.623 6.78406ZM13.935 6.76706C13.9307 5.88509 13.6652 5.02416 13.1721 4.29288C12.6791 3.5616 11.9805 2.99273 11.1644 2.65804C10.3484 2.32335 9.45157 2.23782 8.58701 2.41226C7.72245 2.58669 6.92891 3.01327 6.30651 3.63818C5.6841 4.26309 5.26072 5.05833 5.08976 5.92359C4.9188 6.78885 5.00793 7.68535 5.3459 8.50002C5.68387 9.31468 6.25554 10.011 6.98879 10.5011C7.72205 10.9913 8.58404 11.2533 9.46602 11.2541C10.6535 11.2511 11.7912 10.7769 12.6292 9.93554C13.4672 9.09418 13.9369 7.95454 13.935 6.76706ZM11.308 4.84306C11.3717 4.9603 11.4051 5.09162 11.4051 5.22506C11.4051 5.3585 11.3717 5.48982 11.308 5.60706C11.155 5.85606 10.775 5.94506 10.698 5.84106C10.526 5.63746 10.3116 5.47384 10.0698 5.3616C9.82796 5.24937 9.5646 5.19123 9.29802 5.19123C9.03145 5.19123 8.76809 5.24937 8.52629 5.3616C8.2845 5.47384 8.07009 5.63746 7.89802 5.84106C7.78134 5.86529 7.66018 5.8562 7.54842 5.81482C7.43666 5.77344 7.33879 5.70144 7.26602 5.60706C7.19674 5.49168 7.16014 5.35964 7.16014 5.22506C7.16014 5.09048 7.19674 4.95843 7.26602 4.84306C7.80683 4.3073 8.53777 4.00745 9.29902 4.00906C9.67235 4.00869 10.0421 4.08219 10.3869 4.22533C10.7316 4.36846 11.0447 4.57841 11.308 4.84306Z" fill="white"/>
</svg>
