<svg width="41" height="18" viewBox="0 0 41 18" fill="none" xmlns="http://www.w3.org/2000/svg">
<path d="M14.0731 14.2662C13.9937 14.2056 13.9282 14.1286 13.8809 14.0406C13.8337 13.9526 13.8058 13.8556 13.7991 13.7559C13.7925 13.6563 13.8074 13.5564 13.8426 13.463C13.8778 13.3695 13.9323 13.2847 14.003 13.2142L14.9881 12.2142C15.1437 12.0647 15.3478 11.976 15.5633 11.9644C15.7788 11.9529 15.9914 12.0192 16.1622 12.1512C16.2417 12.2118 16.3075 12.2885 16.3548 12.3765C16.4022 12.4646 16.43 12.5619 16.4366 12.6617C16.4432 12.7615 16.4284 12.8616 16.3931 12.9552C16.3579 13.0487 16.3029 13.1336 16.232 13.2042L15.2471 14.2042C15.0914 14.3535 14.8872 14.4418 14.6717 14.4532C14.4562 14.4646 14.2437 14.3983 14.0731 14.2662Z" fill="#EBB689"/>
<path d="M24.256 10.88L20.683 11.08C20.6508 11.0831 20.6185 11.0738 20.5932 11.0536C20.5678 11.0335 20.5513 11.0042 20.547 10.9721L20.358 8.23306C20.3578 8.21701 20.3606 8.2011 20.3666 8.18619C20.3726 8.17128 20.3815 8.1576 20.3927 8.14615C20.404 8.1347 20.4175 8.12575 20.4323 8.11954C20.4471 8.11333 20.4631 8.11002 20.4791 8.11002L24.0521 7.91007C24.0844 7.90694 24.1166 7.91653 24.142 7.93668C24.1674 7.95683 24.1839 7.98586 24.1881 8.01798L24.3761 10.756C24.3767 10.7721 24.3738 10.7881 24.3681 10.8031C24.3623 10.8182 24.3536 10.8321 24.3424 10.8437C24.3312 10.8552 24.3177 10.8642 24.3029 10.8705C24.288 10.8768 24.2721 10.88 24.256 10.88Z" fill="#C99268"/>
<path d="M28.504 11.59L26.817 7.5629L25.8109 7.36295L23.027 10.1071L19.472 15.2289L21.1559 15.787L25.296 15.0099C25.9847 14.6643 26.6295 14.2376 27.2169 13.7389C27.6964 13.3743 28.0185 12.8403 28.1171 12.246C28.1446 12.1022 28.1468 11.9546 28.1239 11.81L28.504 11.59Z" fill="#EBB689"/>
<path d="M14.2111 7.62823L15.151 7.51812C15.151 7.51812 15.1699 7.50007 15.2079 7.46807C15.9074 6.88118 16.7851 6.5486 17.6979 6.52422C18.4448 6.4579 19.1971 6.56212 19.8978 6.82916C19.9719 7.15794 19.9162 7.50254 19.7421 7.79107L20.2938 8.57208L27.4288 12.5792C27.6318 12.6901 27.7915 12.8663 27.882 13.0792C27.9369 13.199 27.9549 13.3324 27.9335 13.4625C27.9121 13.5925 27.8522 13.7132 27.7618 13.8091C27.7618 13.8091 27.6279 14.1001 27.0619 14.1221C26.8606 14.1307 26.661 14.0833 26.485 13.9852L20.423 10.6702L26.076 13.8702C26.2079 13.9461 26.318 14.0545 26.3961 14.1851C26.4742 14.3157 26.5174 14.4639 26.5219 14.616C26.5149 14.916 26.5149 14.9161 26.2489 15.2461C26.0901 15.3893 25.8921 15.4816 25.6803 15.511C25.4685 15.5405 25.2527 15.5056 25.0609 15.4112L19.703 12.4192L24.476 15.1902C24.6159 15.2643 24.7288 15.3805 24.7987 15.5225C24.8686 15.6646 24.8917 15.825 24.8649 15.981C24.8416 16.1009 24.7868 16.2124 24.7059 16.304C24.7059 16.304 24.4059 16.9401 23.4139 16.5311L18.369 13.7422L22.2469 15.9422C22.3541 16.0003 22.4442 16.0854 22.5084 16.189C22.5726 16.2927 22.6087 16.4112 22.6129 16.533C22.6264 16.659 22.6064 16.7864 22.5548 16.9022C22.5032 17.0179 22.4218 17.1181 22.319 17.1922C22.1293 17.3795 21.8753 17.4874 21.6088 17.4937C21.3422 17.5 21.0832 17.4043 20.8849 17.2261L14.837 13.5262L13.7909 12.949C13.7909 12.949 13.3839 12.7491 13.3129 11.9271C13.2824 11.7765 13.2861 11.6211 13.3239 11.4722L12.7111 11.4771L14.2111 7.62823Z" fill="#F6D5B3"/>
<path d="M25.005 6.56992C24.1178 6.21778 23.1857 5.99171 22.2359 5.89804H22.2259C21.4959 5.93495 20.7921 6.18105 20.1981 6.60703L19.251 7.29404C19.251 7.29404 18.0699 7.97907 17.9749 8.37607C17.9352 8.4449 17.9101 8.52101 17.9009 8.59995C17.8911 8.7856 17.9326 8.97047 18.0208 9.13412C18.109 9.29778 18.2405 9.43405 18.4009 9.52792C18.5614 9.62179 18.7448 9.66968 18.9307 9.66635C19.1166 9.66303 19.2979 9.60867 19.4549 9.50912C19.7887 9.31871 20.1045 9.09794 20.398 8.84995L21.608 8.11606C21.608 8.11606 20.7609 8.72794 23.4959 10.3709C24.6731 10.6528 25.7621 11.2217 26.6658 12.0269L27.3519 12.181L27.8231 11.3111L26.4769 8.01108C26.3389 7.68552 26.138 7.3905 25.8853 7.14316C25.6327 6.89582 25.3334 6.7009 25.005 6.56992Z" fill="#EBB689"/>
<path d="M15.766 14.9509C15.6864 14.8904 15.6208 14.8136 15.5734 14.7256C15.5259 14.6376 15.4978 14.5405 15.4911 14.4407C15.4844 14.3409 15.4991 14.2408 15.5343 14.1472C15.5695 14.0536 15.6244 13.9686 15.6952 13.8979L16.2372 13.3511C16.3929 13.2017 16.5971 13.1132 16.8126 13.1018C17.0281 13.0904 17.2404 13.1569 17.411 13.2891C17.4904 13.3496 17.5561 13.4264 17.6034 13.5144C17.6506 13.6024 17.6783 13.6994 17.6849 13.7991C17.6916 13.8987 17.6769 13.9986 17.6417 14.092C17.6065 14.1855 17.5518 14.2705 17.4811 14.3411L16.9401 14.8889C16.7843 15.0383 16.5801 15.1268 16.3646 15.1382C16.1491 15.1496 15.9366 15.0831 15.766 14.9509Z" fill="#EBB689"/>
<path d="M16.9862 15.964C16.9047 15.903 16.8374 15.8252 16.7889 15.7357C16.7404 15.6463 16.7117 15.5475 16.7049 15.446C16.6982 15.3444 16.7136 15.2424 16.7498 15.1474C16.7861 15.0523 16.8425 14.9664 16.9151 14.8952L17.4652 14.339C17.6235 14.1878 17.8307 14.0984 18.0494 14.0868C18.2681 14.0753 18.4836 14.1423 18.6571 14.276C18.7385 14.337 18.8058 14.4149 18.8543 14.5043C18.9028 14.5937 18.9313 14.6928 18.9381 14.7943C18.9448 14.8959 18.9297 14.9976 18.8934 15.0927C18.8571 15.1877 18.8007 15.2739 18.7281 15.3451L18.179 15.9001C18.0207 16.0517 17.8135 16.1415 17.5946 16.1532C17.3757 16.165 17.1598 16.0979 16.9862 15.964Z" fill="#EBB689"/>
<path d="M18.257 16.9672C18.1752 16.9057 18.1075 16.8273 18.0588 16.7372C18.01 16.6472 17.9813 16.5476 17.9746 16.4455C17.9678 16.3433 17.9832 16.2408 18.0197 16.1452C18.0562 16.0495 18.1129 15.9627 18.186 15.891L18.739 15.3312C18.8984 15.179 19.107 15.0888 19.3271 15.0771C19.5472 15.0653 19.7644 15.1326 19.9392 15.267C20.0211 15.3284 20.0888 15.407 20.1377 15.497C20.1865 15.587 20.2153 15.6863 20.2221 15.7885C20.229 15.8907 20.2136 15.9933 20.1772 16.089C20.1408 16.1847 20.084 16.2714 20.0109 16.3432L19.458 16.9032C19.2985 17.0557 19.0897 17.1459 18.8693 17.1576C18.649 17.1694 18.4318 17.1018 18.257 16.9672Z" fill="#EBB689"/>
<path d="M11.771 5.2189L10.5439 8.18106L9.13403 11.588L9.12903 11.599L-0.00195312 8.54996V1.2941L11.771 5.2189Z" fill="#5D9CA4"/>
<path d="M10.547 8.18097L9.13696 11.588L0.000976562 8.54303V4.6651L10.547 8.18097Z" fill="#73BDC5"/>
<path d="M11.4708 5.45498L9.07094 11.245C9.03629 11.3373 9.02121 11.4357 9.02675 11.5341C9.03229 11.6325 9.05813 11.7285 9.10293 11.8163C9.14772 11.9041 9.21034 11.9816 9.28676 12.0439C9.36318 12.1061 9.45173 12.1518 9.54677 12.1779L11.5648 12.85C11.7602 12.9196 11.9743 12.9144 12.1662 12.8356C12.358 12.7568 12.514 12.6099 12.6039 12.423L15.0038 6.63296C15.0386 6.54071 15.0539 6.44211 15.0485 6.34366C15.043 6.2452 15.0169 6.14902 14.9721 6.06119C14.9273 5.97335 14.8647 5.89586 14.7882 5.83365C14.7117 5.77144 14.6229 5.72582 14.5277 5.69986L12.5089 5.02798C12.3137 4.95862 12.0997 4.96381 11.9081 5.04263C11.7165 5.12145 11.5608 5.26833 11.4708 5.45498Z" fill="#FDFEFF"/>
<path d="M13.9041 9.30191L12.6109 12.424C12.5209 12.6109 12.3652 12.758 12.1734 12.8368C11.9816 12.9157 11.7674 12.9206 11.5721 12.851L9.55399 12.1779C9.41572 12.1365 9.29257 12.056 9.1995 11.9457C9.10643 11.8354 9.04755 11.7003 9.03006 11.557C9.01991 11.4511 9.03593 11.3442 9.07694 11.246L10.3699 8.12296L13.9041 9.30191Z" fill="#DCDBDB"/>
<path d="M13.914 6.95402C14.183 6.95402 14.401 6.75837 14.401 6.51702C14.401 6.27567 14.183 6.08002 13.914 6.08002C13.645 6.08002 13.427 6.27567 13.427 6.51702C13.427 6.75837 13.645 6.95402 13.914 6.95402Z" fill="#2F363E"/>
<path d="M40.8591 0.487091V7.91507L32.208 11.3279L32.2031 11.3169L30.575 7.98904L29.1589 5.095L40.8591 0.487091Z" fill="#2F363E"/>
<path d="M40.8579 3.93912V7.90811L32.2019 11.3161L30.573 7.98795L40.8579 3.93912Z" fill="#5B6374"/>
<path d="M29.4731 5.31512L32.2399 10.9711C32.2807 11.0604 32.3025 11.1573 32.3034 11.2555C32.3043 11.3538 32.2844 11.4509 32.2453 11.5409C32.2061 11.631 32.1485 11.7119 32.0761 11.7783C32.0037 11.8446 31.9183 11.8949 31.8251 11.926L29.8529 12.7031C29.6606 12.7821 29.446 12.7877 29.2497 12.7189C29.0534 12.6502 28.889 12.5119 28.788 12.33L26.0209 6.674C25.9799 6.58464 25.9582 6.48765 25.9572 6.38934C25.9562 6.29102 25.9759 6.19364 26.0151 6.10345C26.0542 6.01326 26.112 5.9323 26.1845 5.8659C26.257 5.7995 26.3427 5.74903 26.436 5.71795L28.4079 4.94207C28.6003 4.86343 28.8149 4.85797 29.0111 4.92669C29.2073 4.99541 29.3717 5.13359 29.4731 5.31512Z" fill="#FDFEFF"/>
<path d="M27.296 9.27692L28.788 12.327C28.8891 12.5086 29.0536 12.6468 29.2499 12.7154C29.4462 12.784 29.6606 12.7782 29.8529 12.699L31.8241 11.9229C31.9591 11.8744 32.0767 11.7873 32.1625 11.6722C32.2482 11.5571 32.2982 11.4192 32.306 11.2759C32.3095 11.1693 32.2866 11.0636 32.2391 10.9681L30.746 7.91705L27.296 9.27692Z" fill="#DCDBDB"/>
<path d="M27.102 6.938C27.371 6.938 27.589 6.74234 27.589 6.501C27.589 6.25965 27.371 6.064 27.102 6.064C26.833 6.064 26.615 6.25965 26.615 6.501C26.615 6.74234 26.833 6.938 27.102 6.938Z" fill="#2F363E"/>
</svg>
