<svg width="19" height="20" viewBox="0 0 19 20" fill="none" xmlns="http://www.w3.org/2000/svg">
<path d="M10.202 20H8.80904C8.53414 20.0079 8.26045 19.9608 8.00399 19.8615C7.74754 19.7622 7.51349 19.6127 7.31557 19.4217C7.11765 19.2308 6.95985 19.0023 6.8514 18.7495C6.74295 18.4968 6.68605 18.225 6.68404 17.95C6.66354 17.4632 6.4568 17.0028 6.10654 16.6641C5.75628 16.3254 5.28927 16.1342 4.80204 16.13C4.48577 16.1148 4.17221 16.1949 3.90204 16.36C3.57348 16.5538 3.1995 16.6573 2.81804 16.66C2.45127 16.6584 2.09119 16.5617 1.77292 16.3794C1.45464 16.1972 1.18905 15.9355 1.00204 15.62L0.302037 14.42C0.113886 14.112 0.0125912 13.7588 0.00889402 13.3979C0.00519688 13.037 0.0992348 12.6818 0.281037 12.37C0.476055 12.0372 0.758646 11.7643 1.09804 11.581C1.36823 11.432 1.59131 11.2103 1.74204 10.941C1.86274 10.7375 1.94171 10.512 1.97433 10.2776C2.00696 10.0433 1.99258 9.80474 1.93204 9.576C1.87168 9.339 1.76461 9.11644 1.61711 8.92137C1.4696 8.72629 1.28463 8.56264 1.07304 8.44C0.834878 8.30647 0.625871 8.1266 0.458341 7.911C0.290811 7.6954 0.168152 7.44844 0.097597 7.18468C0.0270425 6.92091 0.0100216 6.64569 0.0475382 6.37524C0.0850548 6.1048 0.176349 5.8446 0.316037 5.61L1.00204 4.43C1.2863 3.95016 1.74796 3.60144 2.28725 3.45923C2.82653 3.31702 3.40012 3.39273 3.88404 3.67C4.16084 3.8181 4.47011 3.89507 4.78404 3.894C5.11613 3.89518 5.44308 3.81192 5.73416 3.65204C6.02523 3.49216 6.27089 3.2609 6.44804 2.98C6.61378 2.71723 6.69605 2.41044 6.68404 2.1C6.66585 1.72542 6.7659 1.3546 6.97004 1.04C7.16183 0.7306 7.42741 0.473627 7.74295 0.292118C8.0585 0.11061 8.41416 0.0102376 8.77804 0L10.219 0C10.5859 0.0040261 10.9456 0.10167 11.2641 0.283675C11.5826 0.465679 11.8493 0.726014 12.039 1.04C12.2398 1.35568 12.336 1.72655 12.314 2.1C12.3022 2.41028 12.3841 2.71695 12.549 2.98C12.7273 3.26173 12.9743 3.49346 13.2668 3.65336C13.5593 3.81326 13.8877 3.89607 14.221 3.894C14.5348 3.89376 14.8438 3.81686 15.121 3.67C15.6033 3.39269 16.1756 3.31696 16.7134 3.45927C17.2512 3.60159 17.711 3.95045 17.993 4.43L18.677 5.61C18.8194 5.8439 18.913 6.10424 18.952 6.37529C18.991 6.64634 18.9747 6.92249 18.904 7.18706C18.8334 7.45164 18.7099 7.69915 18.5409 7.91467C18.372 8.13018 18.1611 8.30923 17.921 8.441C17.7101 8.56412 17.5259 8.72824 17.3794 8.9237C17.2329 9.11915 17.127 9.34197 17.068 9.579C17.0088 9.80788 16.9959 10.0463 17.0303 10.2802C17.0646 10.5141 17.1455 10.7388 17.268 10.941C17.4124 11.2117 17.6328 11.4341 17.902 11.581C18.2399 11.7703 18.5246 12.0417 18.73 12.37C18.9088 12.6828 19.0012 13.0375 18.9977 13.3977C18.9942 13.758 18.8949 14.1108 18.71 14.42L17.995 15.62C17.8548 15.8597 17.6683 16.0692 17.4466 16.2363C17.2248 16.4035 16.972 16.525 16.703 16.5938C16.4339 16.6626 16.1539 16.6774 15.8791 16.6373C15.6043 16.5971 15.3402 16.5029 15.102 16.36C14.8309 16.1972 14.5181 16.1172 14.202 16.13C13.7132 16.1319 13.244 16.3221 12.8918 16.661C12.5396 17 12.3316 17.4616 12.311 17.95C12.3097 18.2238 12.2537 18.4946 12.1465 18.7466C12.0393 18.9985 11.8829 19.2266 11.6866 19.4174C11.4902 19.6083 11.2578 19.7581 11.0029 19.8581C10.7481 19.9581 10.4758 20.0064 10.202 20ZM9.51404 7.18C8.75457 7.17199 8.02288 7.46535 7.47931 7.99581C6.93573 8.52626 6.62458 9.25056 6.61404 10.01C6.61305 10.3834 6.68777 10.7532 6.8337 11.097C6.97962 11.4407 7.19371 11.7513 7.46304 12.01C8.01389 12.5413 8.75074 12.836 9.51604 12.831C10.0792 12.8407 10.6324 12.6816 11.1044 12.3743C11.5764 12.067 11.9456 11.6255 12.1646 11.1065C12.3835 10.5876 12.4422 10.015 12.3331 9.46248C12.2239 8.90992 11.9519 8.40267 11.552 8.006C11.0089 7.47166 10.2759 7.1746 9.51404 7.18Z" fill="#FD5E29"/>
</svg>
