<svg width="15" height="19" viewBox="0 0 15 19" fill="none" xmlns="http://www.w3.org/2000/svg">
<path d="M9.24905 18.05H2.54105C2.34669 18.0749 2.14925 18.0581 1.96195 18.0005C1.77465 17.9429 1.60182 17.8459 1.45505 17.7161C1.30827 17.5863 1.19094 17.4266 1.11092 17.2477C1.03089 17.0689 0.990023 16.875 0.991047 16.679C0.991047 14.847 0.991047 12.938 0.991047 11.253C0.991047 10.3497 0.991047 9.44567 0.991047 8.541V8.389H11.743V10.536C11.743 12.456 11.743 14.436 11.743 16.394C11.743 16.441 11.743 16.486 11.743 16.533C11.743 16.58 11.743 16.633 11.743 16.679C11.7481 16.8735 11.7108 17.0668 11.6339 17.2455C11.557 17.4243 11.4423 17.5842 11.2976 17.7143C11.153 17.8445 10.9818 17.9417 10.7959 17.9993C10.6101 18.0569 10.4139 18.0735 10.221 18.048C9.89805 18.05 9.57305 18.05 9.24905 18.05ZM10.989 7.738H10.924C10.824 7.738 10.724 7.731 10.624 7.731H10.415H10.407H10.153L10.959 6.417C11.359 5.76 11.777 5.081 12.185 4.41L12.212 4.42C12.327 4.461 12.412 4.492 12.512 4.52C12.412 4.773 12.303 5.02 12.199 5.272L12.138 5.416L12.004 5.738C11.939 5.894 11.874 6.05 11.81 6.205L11.748 6.349C11.716 6.425 11.684 6.502 11.648 6.577C11.521 6.877 11.373 7.217 11.239 7.556C11.2264 7.61145 11.1942 7.66045 11.1482 7.69391C11.1022 7.72738 11.0457 7.74304 10.989 7.738ZM3.64405 7.738H2.65005C2.30105 7.738 2.00305 7.738 1.68405 7.733C1.64766 7.72841 1.61281 7.71557 1.58213 7.69547C1.55146 7.67537 1.52578 7.64853 1.50705 7.617C1.30705 7.272 1.12005 6.927 0.942047 6.607L0.798047 6.347C0.680047 6.13433 0.56138 5.92233 0.442047 5.711C0.391047 5.611 0.404047 5.565 0.494047 5.511C0.768047 5.348 1.04105 5.184 1.31805 5.018L1.41805 4.956L1.92705 4.656L2.69805 6.03L2.89005 6.374L3.14205 6.826C3.30905 7.126 3.47805 7.426 3.64205 7.732L3.64405 7.738ZM8.85905 7.72H5.30505V0H8.86405V1.288H7.20805H7.12005C6.88205 1.305 6.72005 1.449 6.73405 1.63C6.75184 1.72236 6.80386 1.80459 6.8797 1.86022C6.95555 1.91585 7.04961 1.94078 7.14305 1.93H8.85905V2.58H8.26505H7.97305H7.88905C7.84914 2.57917 7.80926 2.58252 7.77005 2.59C7.68478 2.59457 7.60445 2.63143 7.54538 2.6931C7.48631 2.75477 7.45294 2.83661 7.45205 2.922C7.46621 3.00763 7.51151 3.08501 7.57925 3.13927C7.64699 3.19354 7.73239 3.22086 7.81905 3.216H8.16105H8.86105V3.868H7.38505H7.19205C6.91005 3.868 6.73905 3.992 6.73405 4.188C6.73261 4.22554 6.73948 4.26293 6.75418 4.29751C6.76887 4.33208 6.79102 4.36298 6.81905 4.388C6.9235 4.47101 7.05485 4.51266 7.18805 4.505H8.85905V5.8H7.91005C7.86805 5.8 7.83405 5.8 7.79805 5.805C7.58705 5.831 7.44205 5.97 7.45205 6.137C7.46499 6.22631 7.51174 6.30724 7.58265 6.36307C7.65355 6.4189 7.74319 6.44537 7.83305 6.437C7.93305 6.437 8.04205 6.437 8.17005 6.437H8.50105H8.85905V7.719V7.72ZM0.198047 4.921C0.129047 4.4 0.0660469 3.956 -0.00195312 3.49L0.147047 3.565C0.377047 3.685 0.600047 3.8 0.825047 3.914L1.20505 4.114L1.39505 4.214C1.16205 4.353 0.937047 4.486 0.709047 4.624L0.198047 4.92V4.921ZM13.047 3.937C12.9609 3.93689 12.8749 3.92953 12.79 3.915C12.5915 3.89523 12.4009 3.82686 12.235 3.71594C12.0691 3.60502 11.9332 3.45495 11.839 3.279C11.7759 3.1038 11.763 2.91446 11.8017 2.7323C11.8404 2.55015 11.9292 2.38242 12.058 2.248C12.082 2.218 12.107 2.19 12.131 2.162L12.16 2.128L12.26 2.007C12.5015 1.79769 12.6911 1.53523 12.8139 1.24025C12.9368 0.945269 12.9895 0.625814 12.968 0.307C13.3982 0.518345 13.7503 0.86039 13.9742 1.28414C14.198 1.70789 14.282 2.19161 14.214 2.666C14.1623 2.93733 14.0667 3.19841 13.931 3.439C13.8455 3.59636 13.7175 3.7265 13.5615 3.81456C13.4055 3.90262 13.228 3.94505 13.049 3.937H13.047Z" fill="#A67C52"/>
<path d="M8.31494 0.0169983H8.87794V7.687H8.31494V0.0169983Z" fill="#A67C52"/>
</svg>
